v 0.2705993 -0.08276244 -0.2382553
v 0.2768525 -0.08327862 -0.2376185
v 0.2768531 -0.08327565 -0.2383304
v 0.270482 -0.08279194 -0.2376812
v 0.2641564 -0.08699931 -0.2383587
v 0.2708037 -0.08417995 -0.2361403
v 0.2765593 -0.08467478 -0.236135
v 0.2760227 -0.08519409 -0.1798597
v 0.2641828 -0.0870277 -0.2374997
v 0.2620369 -0.09338725 -0.2383443
v 0.2620564 -0.09338725 -0.2375516
v 0.2641564 -0.0997752 -0.2383587
v 0.2651983 -0.08797063 -0.236106
v 0.2709104 -0.08484153 -0.1799833
v 0.2641828 -0.0997468 -0.2374997
v 0.2703263 -0.1039331 -0.238283
v 0.2709137 -0.08483414 -0.1769334
v 0.2659407 -0.08802714 -0.1768731
v 0.2760407 -0.08518992 -0.1768906
v 0.2759801 -0.08534883 -0.1760285
v 0.2708236 -0.085006 -0.1760503
v 0.2661942 -0.08812416 -0.1759377
v 0.2644294 -0.09338725 -0.1758951
v 0.2659473 -0.08802562 -0.180208
v 0.2635388 -0.09338725 -0.2360017
v 0.2641102 -0.09338725 -0.1798136
v 0.2641208 -0.09338725 -0.176852
v 0.2659407 -0.09874737 -0.1768731
v 0.2661942 -0.09865035 -0.1759377
v 0.2708236 -0.1017685 -0.1760503
v 0.2651983 -0.09880387 -0.236106
v 0.2659473 -0.09874887 -0.180208
v 0.2709137 -0.1019404 -0.1769334
v 0.2759801 -0.1014257 -0.1760285
v 0.2708037 -0.1025946 -0.2361403
v 0.2709104 -0.101933 -0.1799833
v 0.2760407 -0.1015846 -0.1768906
v 0.2797248 -0.09863838 -0.1760057
v 0.2760227 -0.1015804 -0.1798597
v 0.279996 -0.0985409 -0.1768836
v 0.2814172 -0.09338725 -0.1759156
v 0.280015 -0.09850682 -0.1796475
v 0.2765593 -0.1020997 -0.236135
v 0.270482 -0.1039826 -0.2376812
v 0.2768531 -0.1034988 -0.2383304
v 0.2768525 -0.1034959 -0.2376185
v 0.2815819 -0.09985676 -0.2375305
v 0.2816505 -0.09982804 -0.2382952
v 0.2837555 -0.09338725 -0.2375645
v 0.2837702 -0.09338725 -0.2383503
v 0.2816505 -0.08694647 -0.2382952
v 0.2805159 -0.09889156 -0.2360757
v 0.2815819 -0.08691774 -0.2375305
v 0.2768531 -0.08327565 -0.2383304
v 0.2768525 -0.08327862 -0.2376185
v 0.2765593 -0.08467478 -0.236135
v 0.2822797 -0.09338725 -0.2359888
v 0.2805159 -0.08788294 -0.2360757
v 0.2816908 -0.09338725 -0.1798257
v 0.280015 -0.08826768 -0.1796475
v 0.2760227 -0.08519409 -0.1798597
v 0.2760407 -0.08518992 -0.1768906
v 0.2816833 -0.09338725 -0.176855
v 0.279996 -0.08823361 -0.1768836
v 0.2797248 -0.08813613 -0.1760057
v 0.2759801 -0.08534883 -0.1760285
v 0.2814172 -0.09338725 -0.1759156
v 0.2797248 -0.08813613 -0.1760057
v 0.2797248 -0.09863838 -0.1760057
v 0.2759801 -0.1014257 -0.1760285
v 0.2759801 -0.08534883 -0.1760285
v 0.2708236 -0.1017685 -0.1760503
v 0.2708236 -0.085006 -0.1760503
v 0.2661942 -0.09865035 -0.1759377
v 0.2661942 -0.08812416 -0.1759377
v 0.2644294 -0.09338725 -0.1758951
v 0.2837702 -0.09338725 -0.2383503
v 0.2816505 -0.09982804 -0.2382952
v 0.2816505 -0.08694647 -0.2382952
v 0.2768531 -0.08327565 -0.2383304
v 0.2768531 -0.1034988 -0.2383304
v 0.2705993 -0.08276244 -0.2382553
v 0.2703263 -0.1039331 -0.238283
v 0.2641564 -0.08699931 -0.2383587
v 0.2641564 -0.0997752 -0.2383587
v 0.2620369 -0.09338725 -0.2383443
vt 0.4487757 0.01873494
vt 0.4938973 0.02987026
vt 0.4938973 0.01873494
vt 0.4487757 0.02987026
vt 0.3959951 0.01873494
vt 0.4487757 0.05344541
vt 0.4938973 0.05344541
vt 0.4938973 0.9198674
vt 0.3959951 0.02987026
vt 0.3467216 0.01873494
vt 0.3467247 0.02987026
vt 0.2977593 0.01873494
vt 0.3959951 0.05344541
vt 0.4487757 0.9198674
vt 0.2977593 0.02987026
vt 0.245566 0.01873494
vt 0.4487757 0.9666552
vt 0.3959951 0.9666552
vt 0.4938973 0.9666552
vt 0.4938973 0.980827
vt 0.4487757 0.980827
vt 0.3959951 0.980827
vt 0.3470036 0.980827
vt 0.3959951 0.9198674
vt 0.3466887 0.05344541
vt 0.3469818 0.9198674
vt 0.3469983 0.9666552
vt 0.2977593 0.9666552
vt 0.2977593 0.980827
vt 0.245566 0.980827
vt 0.2977593 0.05344541
vt 0.2977593 0.9198674
vt 0.245566 0.9666552
vt 0.2002324 0.980827
vt 0.245566 0.05344541
vt 0.245566 0.9198674
vt 0.2002324 0.9666552
vt 0.1588536 0.980827
vt 0.2002324 0.9198674
vt 0.1588536 0.9666552
vt 0.1094891 0.980827
vt 0.1588536 0.9198674
vt 0.2002324 0.05344541
vt 0.245566 0.02987026
vt 0.2002324 0.01873494
vt 0.2002324 0.02987026
vt 0.1588536 0.02987026
vt 0.1588536 0.01873494
vt 0.1097679 0.02987026
vt 0.109771 0.01873494
vt 0.06022509 0.01873494
vt 0.1588536 0.05344541
vt 0.06022509 0.02987026
vt 0.01886987 0.01873494
vt 0.01886987 0.02987026
vt 0.01886987 0.05344541
vt 0.1098035 0.05344541
vt 0.06022509 0.05344541
vt 0.109511 0.9198674
vt 0.06022509 0.9198674
vt 0.01886987 0.9198674
vt 0.01886987 0.9666552
vt 0.1094944 0.9666552
vt 0.06022509 0.9666552
vt 0.06022509 0.980827
vt 0.01886987 0.980827
vt 0.6037726 0.9514384
vt 0.658102 0.9165049
vt 0.5494432 0.9165049
vt 0.5206053 0.8392195
vt 0.6869399 0.8392195
vt 0.5170583 0.7327939
vt 0.690487 0.7327939
vt 0.5493194 0.6372539
vt 0.6582258 0.6372539
vt 0.6037726 0.6008317
vt 0.8083449 0.7330441
vt 0.9121699 0.665752
vt 0.7045195 0.6657525
vt 0.6453462 0.5134779
vt 0.9713434 0.5134773
vt 0.6370731 0.3149623
vt 0.9783427 0.3062979
vt 0.7053716 0.1104596
vt 0.9113183 0.1104592
vt 0.8083448 0.04318083
vn -0.208745 0.9779563 0.005187906
vn 0.3296956 0.876591 0.3505553
vn 0.3608644 0.9326044 0.005077475
vn -0.2578838 0.9063752 0.334634
vn -0.7949481 0.605255 0.04151934
vn -0.2308356 0.8851612 0.403986
vn 0.3445394 0.8466954 0.4054621
vn 0.3538428 0.9352931 0.004721496
vn -0.7352453 0.5634691 0.3767187
vn -0.9996808 0.0009540267 0.0252501
vn -0.9334748 0.0005555812 0.3586425
vn -0.7950335 -0.6049825 0.04379228
vn -0.7321059 0.5373817 0.4186189
vn -0.2490549 0.9684799 0.004274146
vn -0.7351434 -0.563191 0.3773328
vn -0.3114819 -0.9502512 0.00122174
vn -0.2348453 0.9687709 0.07956452
vn -0.7876663 0.602352 0.1294358
vn 0.350166 0.9322201 0.09137495
vn 0.3397268 0.9202569 0.1941984
vn -0.2769164 0.9469842 0.1629052
vn -0.7559195 0.5978186 0.2668307
vn -0.9522094 0 0.305446
vn -0.7864624 0.6176231 0.004307545
vn -0.9161047 0 0.4009391
vn -0.9999833 0 0.005785936
vn -0.9882601 0 0.1527803
vn -0.7876664 -0.602352 0.1294359
vn -0.7559195 -0.5978184 0.2668311
vn -0.2769164 -0.9469844 0.1629046
vn -0.7325442 -0.5372166 0.4180639
vn -0.7867594 -0.6172392 0.005036909
vn -0.2348453 -0.9687709 0.07956424
vn 0.3397269 -0.9202571 0.1941972
vn -0.2302501 -0.8854067 0.403782
vn -0.2483555 -0.9686584 0.004516027
vn 0.3501662 -0.9322201 0.09137453
vn 0.7742638 -0.6075348 0.1772484
vn 0.3539591 -0.9352536 0.003711934
vn 0.8245447 -0.5575408 0.09630226
vn 0.9624125 0 0.2715918
vn 0.8172744 -0.5762302 0.004604385
vn 0.3444954 -0.8463024 0.4063191
vn -0.2101561 -0.9214199 0.3268333
vn 0.357489 -0.9339156 0.001841227
vn 0.3283818 -0.8774039 0.3497539
vn 0.7466167 -0.5475081 0.3778866
vn 0.821319 -0.5682595 0.0501611
vn 0.9350402 0 0.3545418
vn 0.9998242 0 0.01874913
vn 0.821319 0.5682595 0.0501611
vn 0.754959 -0.5123622 0.4092945
vn 0.7466167 0.5475081 0.3778866
vn 0.3608644 0.9326044 0.005077475
vn 0.3296956 0.876591 0.3505553
vn 0.3445394 0.8466954 0.4054621
vn 0.9182063 -8.838484E-05 0.3961025
vn 0.7553535 0.5122883 0.4086584
vn 0.9999774 -9.893562E-05 0.006739461
vn 0.8174188 0.5760195 0.005300527
vn 0.3538428 0.9352931 0.004721496
vn 0.350166 0.9322201 0.09137495
vn 0.9907442 0 0.1357427
vn 0.8245448 0.5575408 0.09630226
vn 0.7742638 0.6075348 0.1772485
vn 0.3397268 0.9202569 0.1941984
vn -0.05314519 0 0.9985868
vn -0.01191926 0 0.999929
vn -0.01191926 0 0.999929
vn -0.004905479 0 0.999988
vn -0.004905479 0 0.999988
vn 0.007019072 0 0.9999754
vn 0.007019074 0 0.9999754
vn 0.02429541 0 0.9997048
vn 0.02429541 0 0.9997048
vn 0.02415704 0 0.9997081
vn -0.02595926 0 -0.999663
vn 0.003155701 0 -0.999995
vn 0.003155701 0 -0.999995
vn -0.00509926 0 -0.999987
vn -0.002611722 0.0007376921 -0.9999963
vn -0.0006668527 0.0006102601 -0.9999996
vn 0.0009230408 0.00100444 -0.999999
vn 0.01201371 0.0008091757 -0.9999275
vn 0.009804423 0 -0.999952
vn -0.006767174 0 -0.9999771
f 1/1/1 2/2/2 3/3/3
f 2/2/2 1/1/1 4/4/4
f 5/5/5 4/4/4 1/1/1
f 6/6/6 2/2/2 4/4/4
f 2/2/2 6/6/6 7/7/7
f 6/6/6 8/8/8 7/7/7
f 4/4/4 5/5/5 9/9/9
f 9/9/9 6/6/6 4/4/4
f 10/10/10 9/9/9 5/5/5
f 9/9/9 10/10/10 11/11/11
f 12/12/12 11/11/11 10/10/10
f 6/6/6 9/9/9 13/13/13
f 11/11/11 13/13/13 9/9/9
f 8/8/8 6/6/6 14/14/14
f 13/13/13 14/14/14 6/6/6
f 11/11/11 12/12/12 15/15/15
f 16/16/16 15/15/15 12/12/12
f 17/17/17 8/8/8 14/14/14
f 14/14/14 18/18/18 17/17/17
f 8/8/8 17/17/17 19/19/19
f 17/17/17 20/20/20 19/19/19
f 20/20/20 17/17/17 21/21/21
f 18/18/18 21/21/21 17/17/17
f 21/21/21 18/18/18 22/22/22
f 18/18/18 23/23/23 22/22/22
f 14/14/14 13/13/13 24/24/24
f 18/18/18 14/14/14 24/24/24
f 13/13/13 11/11/11 25/25/25
f 25/25/25 24/24/24 13/13/13
f 26/26/26 18/18/18 24/24/24
f 24/24/24 25/25/25 26/26/26
f 23/23/23 18/18/18 27/27/27
f 18/18/18 26/26/26 27/27/27
f 28/28/28 23/23/23 27/27/27
f 26/26/26 28/28/28 27/27/27
f 23/23/23 28/28/28 29/29/29
f 28/28/28 30/30/30 29/29/29
f 11/11/11 31/31/31 25/25/25
f 31/31/31 11/11/11 15/15/15
f 25/25/25 32/32/32 26/26/26
f 32/32/32 25/25/25 31/31/31
f 28/28/28 26/26/26 32/32/32
f 30/30/30 28/28/28 33/33/33
f 33/33/33 34/34/34 30/30/30
f 15/15/15 35/35/35 31/31/31
f 35/35/35 32/32/32 31/31/31
f 36/36/36 28/28/28 32/32/32
f 28/28/28 36/36/36 33/33/33
f 32/32/32 35/35/35 36/36/36
f 34/34/34 33/33/33 37/37/37
f 37/37/37 38/38/38 34/34/34
f 39/39/39 33/33/33 36/36/36
f 33/33/33 39/39/39 37/37/37
f 38/38/38 37/37/37 40/40/40
f 40/40/40 41/41/41 38/38/38
f 37/37/37 42/42/42 40/40/40
f 42/42/42 37/37/37 39/39/39
f 36/36/36 43/43/43 39/39/39
f 43/43/43 36/36/36 35/35/35
f 35/35/35 15/15/15 44/44/44
f 15/15/15 16/16/16 44/44/44
f 45/45/45 44/44/44 16/16/16
f 46/46/46 35/35/35 44/44/44
f 44/44/44 45/45/45 46/46/46
f 35/35/35 46/46/46 43/43/43
f 45/45/45 47/47/47 46/46/46
f 47/47/47 43/43/43 46/46/46
f 47/47/47 45/45/45 48/48/48
f 48/48/48 49/49/49 47/47/47
f 49/49/49 48/48/48 50/50/50
f 51/51/51 49/49/49 50/50/50
f 52/52/52 39/39/39 43/43/43
f 43/43/43 47/47/47 52/52/52
f 49/49/49 52/52/52 47/47/47
f 39/39/39 52/52/52 42/42/42
f 49/49/49 51/51/51 53/53/53
f 54/54/54 53/53/53 51/51/51
f 53/53/53 54/54/54 55/55/55
f 56/56/56 53/53/53 55/55/55
f 52/52/52 49/49/49 57/57/57
f 57/57/57 42/42/42 52/52/52
f 58/58/58 49/49/49 53/53/53
f 53/53/53 56/56/56 58/58/58
f 49/49/49 58/58/58 57/57/57
f 42/42/42 57/57/57 59/59/59
f 58/58/58 59/59/59 57/57/57
f 56/56/56 60/60/60 58/58/58
f 59/59/59 58/58/58 60/60/60
f 60/60/60 56/56/56 61/61/61
f 62/62/62 60/60/60 61/61/61
f 63/63/63 42/42/42 59/59/59
f 60/60/60 63/63/63 59/59/59
f 42/42/42 63/63/63 40/40/40
f 41/41/41 40/40/40 63/63/63
f 63/63/63 60/60/60 64/64/64
f 64/64/64 41/41/41 63/63/63
f 60/60/60 62/62/62 64/64/64
f 41/41/41 64/64/64 65/65/65
f 62/62/62 65/65/65 64/64/64
f 65/65/65 62/62/62 66/66/66
f 67/67/67 68/68/68 69/69/69
f 68/68/68 70/70/70 69/69/69
f 70/70/70 68/68/68 71/71/71
f 71/71/71 72/72/72 70/70/70
f 72/72/72 71/71/71 73/73/73
f 73/73/73 74/74/74 72/72/72
f 74/74/74 73/73/73 75/75/75
f 75/75/75 76/76/76 74/74/74
f 77/77/77 78/78/78 79/79/79
f 78/78/78 80/80/80 79/79/79
f 80/80/80 78/78/78 81/81/81
f 81/81/81 82/82/82 80/80/80
f 82/82/82 81/81/81 83/83/83
f 83/83/83 84/84/84 82/82/82
f 84/84/84 83/83/83 85/85/85
f 86/86/86 84/84/84 85/85/85
