v -0.3934054 1.401737 0.3414662
v -0.4216689 1.422214 0.3414377
v -0.4156055 1.406232 0.3414464
v -0.3757645 1.451263 0.3612187
v -0.4266197 1.505993 0.3415236
v -0.2940515 1.397633 0.3415315
v -0.3782038 1.511747 0.3652095
v -0.4297746 1.64306 0.3416838
v -0.2935712 1.447376 0.366825
v -0.1784114 1.39709 0.3418175
v -0.3792466 1.644051 0.3661694
v -0.4271639 1.758244 0.3415391
v -0.2935942 1.513469 0.3757548
v -0.1784114 1.513743 0.3764012
v -0.1784114 1.443883 0.3673909
v -0.06270401 1.447376 0.366825
v -0.06236435 1.397633 0.3415315
v -0.2934368 1.644044 0.376705
v -0.3784296 1.759174 0.3646513
v 0.01460213 1.451407 0.3633133
v 0.05117412 1.402405 0.3413472
v -0.3806432 1.817873 0.3567108
v -0.4217691 1.835717 0.3412706
v -0.293349 1.759394 0.3745778
v 0.06932148 1.424817 0.3410809
v 0.06491192 1.408325 0.3413167
v 0.07234211 1.508507 0.3415053
v -0.06268775 1.513469 0.3757548
v 0.01600319 1.513544 0.3678978
v 0.07322277 1.644002 0.3417494
v -0.4003197 1.855191 0.3412977
v -0.4158141 1.851047 0.3412468
v -0.2931643 1.860305 0.34168
v -0.2932832 1.820632 0.3632167
v -0.1784114 1.861583 0.3416432
v -0.06279907 1.644044 0.376705
v 0.01719734 1.644143 0.3685286
v -0.1784114 1.644248 0.3771449
v -0.1784114 1.75938 0.3754635
v -0.06286117 1.759394 0.3745778
v 0.02037411 1.759289 0.3661145
v 0.07157776 1.759646 0.3413429
v -0.1784114 1.820389 0.3651834
v -0.06290775 1.820632 0.3632167
v -0.06236366 1.859886 0.3417311
v 0.02183914 1.820407 0.3574078
v 0.06796192 1.838581 0.3414284
v 0.04965744 1.854895 0.3412921
v 0.06236259 1.851652 0.3412883
vt 0.9139799 0.0003015643
vt 0.9984053 0.06433398
vt 0.9984053 0.0003015643
vt 0.8799754 0.123553
vt 0.9984053 0.2444082
vt 0.7093112 0.0003015643
vt 0.8799754 0.2444082
vt 0.9984053 0.5000539
vt 0.7093112 0.123553
vt 0.5001007 0.0003015643
vt 0.8799754 0.5000539
vt 0.9984053 0.7314997
vt 0.7093112 0.2444082
vt 0.5001007 0.2444082
vt 0.5001007 0.123553
vt 0.2852528 0.123553
vt 0.2852528 0.0003015643
vt 0.7093112 0.5000539
vt 0.8799754 0.7314997
vt 0.1267312 0.123553
vt 0.04831201 0.0003015643
vt 0.8799754 0.8549835
vt 0.9984053 0.9295201
vt 0.7093112 0.7314997
vt 0.001009986 0.06865451
vt 0.001009986 0.0003015643
vt 0.001009986 0.2444082
vt 0.2852528 0.2444082
vt 0.1267312 0.2444082
vt 0.001009986 0.5000539
vt 0.9164175 0.9994774
vt 0.9984053 0.9994774
vt 0.7093112 0.9994774
vt 0.7093112 0.8549835
vt 0.5001007 0.9994774
vt 0.2852528 0.5000539
vt 0.1267312 0.5000539
vt 0.5001007 0.5000539
vt 0.5001007 0.7314997
vt 0.2852528 0.7314997
vt 0.1267312 0.7314997
vt 0.001009986 0.7314997
vt 0.5001007 0.8549835
vt 0.2852528 0.8549835
vt 0.2852528 0.9994774
vt 0.1267312 0.8549835
vt 0.001009986 0.9320326
vt 0.07528865 0.9994774
vt 0.001009986 0.9994774
vn -0.1007771 -0.2869471 0.9526307
vn -0.2403795 -0.1353856 0.9611912
vn -0.0008485198 0.0002222809 0.9999996
vn -0.190448 -0.1850044 0.9641073
vn -0.4234954 -0.03298163 0.9052977
vn -0.03076497 -0.4370131 0.8989288
vn -0.2761893 -0.04774588 0.9599165
vn -0.4364011 0.0002613958 0.8997521
vn -0.04980604 -0.2925577 0.9549499
vn -2.536483E-05 -0.4720616 0.8815656
vn -0.2828134 0.002240762 0.9591724
vn -0.4126115 0.04227208 0.9099257
vn -0.0635408 -0.07021485 0.995506
vn -1.428716E-05 -0.06825187 0.9976681
vn -3.359537E-05 -0.3121165 0.9500439
vn 0.03305566 -0.2993568 0.9535684
vn 0.02496404 -0.4422661 0.8965364
vn -0.06251893 0.005176737 0.9980304
vn -0.272722 0.06754008 0.9597193
vn 0.1811495 -0.2030317 0.9622697
vn 0.1394668 -0.2447799 0.9594956
vn -0.1866262 0.2154517 0.9585151
vn -0.248586 0.1198372 0.9611681
vn -0.05558292 0.09504704 0.9939197
vn 0.2773035 -0.1040834 0.955128
vn -0.004450798 0.01548245 0.9998702
vn 0.4084813 -0.02700278 0.9123671
vn 0.0456993 -0.06437442 0.9968789
vn 0.2643699 -0.04045563 0.9635724
vn 0.4308195 0.0002297828 0.9024381
vn -0.1175226 0.2668634 0.956542
vn -0.004134058 0.003158774 0.9999865
vn -0.03385288 0.4627086 0.8858638
vn -0.04458946 0.3342482 0.9414297
vn 0.0001278622 0.4919927 0.8705994
vn 0.05278309 0.006039905 0.9985877
vn 0.269111 0.002916014 0.9631048
vn -1.077339E-05 0.005424826 0.9999853
vn -0.00155212 0.09190299 0.9957668
vn 0.05521537 0.09862114 0.993592
vn 0.2650829 0.07606062 0.9612211
vn 0.4112546 0.04061655 0.9106151
vn -0.001605248 0.3367732 0.9415845
vn 0.04364019 0.3313693 0.9424914
vn 0.02821533 0.470075 0.8821753
vn 0.1662068 0.2287189 0.9591991
vn 0.2366706 0.1129473 0.9650025
vn 0.1237766 0.2723921 0.9541917
vn 0.003408295 0.01217558 0.9999201
f 1/1/1 2/2/2 3/3/3
f 2/2/2 1/1/1 4/4/4
f 4/4/4 5/5/5 2/2/2
f 6/6/6 4/4/4 1/1/1
f 5/5/5 4/4/4 7/7/7
f 7/7/7 8/8/8 5/5/5
f 4/4/4 6/6/6 9/9/9
f 9/9/9 7/7/7 4/4/4
f 10/10/10 9/9/9 6/6/6
f 8/8/8 7/7/7 11/11/11
f 11/11/11 12/12/12 8/8/8
f 7/7/7 9/9/9 13/13/13
f 13/13/13 11/11/11 7/7/7
f 9/9/9 14/14/14 13/13/13
f 9/9/9 10/10/10 15/15/15
f 14/14/14 9/9/9 15/15/15
f 10/10/10 16/16/16 15/15/15
f 16/16/16 14/14/14 15/15/15
f 16/16/16 10/10/10 17/17/17
f 11/11/11 13/13/13 18/18/18
f 14/14/14 18/18/18 13/13/13
f 12/12/12 11/11/11 19/19/19
f 18/18/18 19/19/19 11/11/11
f 17/17/17 20/20/20 16/16/16
f 20/20/20 17/17/17 21/21/21
f 22/22/22 12/12/12 19/19/19
f 12/12/12 22/22/22 23/23/23
f 19/19/19 18/18/18 24/24/24
f 24/24/24 22/22/22 19/19/19
f 21/21/21 25/25/25 20/20/20
f 25/25/25 21/21/21 26/26/26
f 27/27/27 20/20/20 25/25/25
f 20/20/20 28/28/28 16/16/16
f 14/14/14 16/16/16 28/28/28
f 20/20/20 27/27/27 29/29/29
f 28/28/28 20/20/20 29/29/29
f 30/30/30 29/29/29 27/27/27
f 31/31/31 23/23/23 22/22/22
f 23/23/23 31/31/31 32/32/32
f 22/22/22 33/33/33 31/31/31
f 33/33/33 22/22/22 34/34/34
f 34/34/34 35/35/35 33/33/33
f 22/22/22 24/24/24 34/34/34
f 36/36/36 14/14/14 28/28/28
f 29/29/29 36/36/36 28/28/28
f 29/29/29 30/30/30 37/37/37
f 36/36/36 29/29/29 37/37/37
f 14/14/14 36/36/36 38/38/38
f 18/18/18 14/14/14 38/38/38
f 38/38/38 24/24/24 18/18/18
f 39/39/39 34/34/34 24/24/24
f 24/24/24 38/38/38 39/39/39
f 40/40/40 38/38/38 36/36/36
f 37/37/37 40/40/40 36/36/36
f 38/38/38 40/40/40 39/39/39
f 30/30/30 41/41/41 37/37/37
f 40/40/40 37/37/37 41/41/41
f 41/41/41 30/30/30 42/42/42
f 34/34/34 39/39/39 43/43/43
f 40/40/40 43/43/43 39/39/39
f 35/35/35 34/34/34 43/43/43
f 43/43/43 40/40/40 44/44/44
f 44/44/44 35/35/35 43/43/43
f 41/41/41 44/44/44 40/40/40
f 35/35/35 44/44/44 45/45/45
f 42/42/42 46/46/46 41/41/41
f 44/44/44 41/41/41 46/46/46
f 46/46/46 45/45/45 44/44/44
f 46/46/46 42/42/42 47/47/47
f 45/45/45 46/46/46 48/48/48
f 47/47/47 48/48/48 46/46/46
f 48/48/48 47/47/47 49/49/49
