v 0.1451019 0.007304188 0.0696688
v 0.1314639 0.007304184 0.06966879
v 0.1314639 -0.0078909 0.06966878
v 0.1451019 -0.007890952 0.06966879
v 0.1284188 0.007773621 0.0666455
v 0.1283771 -0.01262074 0.04179937
v 0.1284188 -0.008360337 0.06664556
v 0.1283771 0.01203396 0.0417993
v 0.1283538 -0.01498561 0.01393042
v 0.1283538 0.01439884 0.01393042
v 0.1283538 -0.01498561 -0.01393896
v 0.1283537 0.01439885 -0.01393896
v 0.128377 -0.01262087 -0.04180799
v 0.128377 0.01203397 -0.04180799
v 0.1284187 -0.008360307 -0.06665418
v 0.1284187 0.007773573 -0.06665418
v 0.1313937 0.01738919 -0.01393895
v 0.1313938 0.01738919 0.01392997
v 0.1283771 0.01203396 0.0417993
v 0.1314171 0.01502424 -0.04180799
v 0.128377 0.01203397 -0.04180799
v 0.1314171 0.01502422 0.04179938
v 0.1284188 0.007773621 0.0666455
v 0.1314588 0.0108002 0.06668913
v 0.1456896 0.01080028 0.06668898
v 0.1512585 0.01502423 0.04179946
v 0.1543367 0.0173892 0.01392997
v 0.1542984 0.01203396 0.04179931
v 0.1487941 0.007763709 0.06671576
v 0.1573767 0.01439887 0.01393005
v 0.1543367 0.01738928 -0.01393903
v 0.1314588 0.01080023 -0.06669736
v 0.1284187 0.007773573 -0.06665418
v 0.1512584 0.01502432 -0.04180798
v 0.1456895 0.01080029 -0.06669736
v 0.1487941 0.007763776 -0.06672459
v 0.1542984 0.0120341 -0.04180814
v 0.1573767 0.0143988 -0.0139391
v 0.1573768 -0.01498564 0.01392996
v 0.1573768 -0.01498556 -0.01393911
v 0.1542985 -0.01262079 0.04179938
v 0.1542984 0.01203396 0.04179931
v 0.1487942 -0.008350334 0.06671591
v 0.1487941 0.007763709 0.06671576
v 0.1451019 -0.007890952 0.06966879
v 0.1456897 -0.01138697 0.06668913
v 0.1451019 0.007304188 0.0696688
v 0.1456896 0.01080028 0.06668898
v 0.1314588 0.0108002 0.06668913
v 0.1314639 -0.0078909 0.06966878
v 0.1314589 -0.01138699 0.06668913
v 0.1284188 -0.008360337 0.06664556
v 0.1314639 0.007304184 0.06966879
v 0.1284188 0.007773621 0.0666455
v 0.1543368 -0.01797583 0.01392996
v 0.1542985 -0.01262079 0.04179938
v 0.1512585 -0.01561099 0.04179945
v 0.1487942 -0.008350334 0.06671591
v 0.1456897 -0.01138697 0.06668913
v 0.1314172 -0.01561108 0.0417993
v 0.1314589 -0.01138699 0.06668913
v 0.1283771 -0.01262074 0.04179937
v 0.1284188 -0.008360337 0.06664556
v 0.1283538 -0.01498561 0.01393042
v 0.1313938 -0.01797595 0.01393042
v 0.1283538 -0.01498561 -0.01393896
v 0.1313938 -0.01797595 -0.01393896
v 0.128377 -0.01262087 -0.04180799
v 0.1543368 -0.01797583 -0.01393911
v 0.1314171 -0.01561106 -0.04180799
v 0.1284187 -0.008360307 -0.06665418
v 0.1314588 -0.01138706 -0.06669737
v 0.1512584 -0.01561086 -0.04180814
v 0.1542984 -0.01262075 -0.04180814
v 0.1456896 -0.01138696 -0.06669736
v 0.1487941 -0.008350267 -0.0667246
v 0.1487941 0.007763776 -0.06672459
v 0.1542984 -0.01262075 -0.04180814
v 0.1487941 -0.008350267 -0.0667246
v 0.1542984 0.0120341 -0.04180814
v 0.1573768 -0.01498556 -0.01393911
v 0.1573767 0.0143988 -0.0139391
v -0.1457768 0.007304125 0.06966882
v -0.1457768 -0.007891035 0.06966881
v -0.1321388 -0.007891011 0.06966882
v -0.1321388 0.007304148 0.06966882
v -0.1290937 0.007773511 0.06664553
v -0.1290937 -0.00836037 0.0666456
v -0.129052 -0.01262077 0.04179941
v -0.129052 0.01203392 0.04179933
v -0.1290288 -0.01498572 0.01393045
v -0.1290287 0.01439874 0.01393045
v -0.1290287 -0.01498572 -0.01393893
v -0.1290287 0.01439874 -0.01393892
v -0.129052 -0.0126209 -0.04180796
v -0.129052 0.01203394 -0.04180796
v -0.1290937 -0.008360359 -0.06665415
v -0.1290937 0.007773521 -0.06665415
v -0.1320687 0.01738914 -0.01393892
v -0.1320687 0.01738913 0.01392999
v -0.129052 0.01203392 0.04179933
v -0.1320921 0.0150242 -0.04180796
v -0.129052 0.01203394 -0.04180796
v -0.1320921 0.01502419 0.04179941
v -0.1290937 0.007773511 0.06664553
v -0.1321337 0.01080009 0.06668916
v -0.1463646 0.01080022 0.06668901
v -0.1519334 0.01502416 0.04179948
v -0.1550117 0.01738913 0.01392999
v -0.1549734 0.01203389 0.04179933
v -0.1494691 0.007763566 0.06671578
v -0.1580517 0.01439878 0.01393007
v -0.1550117 0.01738913 -0.013939
v -0.1580517 0.01439871 -0.01393908
v -0.1580517 -0.01498575 0.01392998
v -0.1580517 -0.01498567 -0.01393909
v -0.1549734 0.01203399 -0.04180812
v -0.1519334 0.01502418 -0.04180796
v -0.1494691 0.007763653 -0.06672458
v -0.1463646 0.01080025 -0.06669734
v -0.1321337 0.01080018 -0.06669733
v -0.1290937 0.007773521 -0.06665415
v -0.1549734 0.01203399 -0.04180812
v -0.1580517 0.01439871 -0.01393908
v -0.1549734 -0.01262086 -0.04180812
v -0.1494691 0.007763653 -0.06672458
v -0.1494691 -0.008350391 -0.06672458
v -0.1457768 0.007304156 -0.06967707
v -0.1463646 0.01080025 -0.06669734
v -0.1457768 -0.007890928 -0.06967708
v -0.1463646 -0.01138702 -0.06669734
v -0.1321338 -0.01138709 -0.06669734
v -0.1321387 -0.007890999 -0.06967707
v -0.1290937 -0.008360359 -0.06665415
v -0.1290937 0.007773521 -0.06665415
v -0.1321387 0.00730416 -0.06967706
v -0.1321337 0.01080018 -0.06669733
v -0.1457768 -0.007890928 -0.06967708
v -0.1549734 0.01203389 0.04179933
v -0.1494691 -0.008350478 0.06671593
v -0.1494691 0.007763566 0.06671578
v -0.1549734 -0.01262087 0.0417994
v -0.1580517 0.01439878 0.01393007
v -0.1321338 -0.01138711 0.06668916
v -0.129052 -0.01262077 0.04179941
v -0.1290937 -0.00836037 0.0666456
v -0.1320921 -0.01561119 0.04179933
v -0.1463646 -0.01138713 0.06668916
v -0.1290288 -0.01498572 0.01393045
v -0.1519334 -0.01561106 0.04179948
v -0.1494691 -0.008350478 0.06671593
v -0.1549734 -0.01262087 0.0417994
v -0.1320687 -0.01797599 0.01393045
v -0.1290287 -0.01498572 -0.01393893
v -0.1550117 -0.01797594 0.01392999
v -0.1580517 -0.01498575 0.01392998
v -0.1320687 -0.01797598 -0.01393893
v -0.129052 -0.0126209 -0.04180796
v -0.1550117 -0.01797593 -0.01393909
v -0.1580517 -0.01498567 -0.01393909
v -0.132092 -0.01561117 -0.04180796
v -0.1290937 -0.008360359 -0.06665415
v -0.1321338 -0.01138709 -0.06669734
v -0.1519334 -0.01561097 -0.04180812
v -0.1549734 -0.01262086 -0.04180812
v -0.1463646 -0.01138702 -0.06669734
v -0.1494691 -0.008350391 -0.06672458
v 0.1314638 0.007304215 -0.0696771
v 0.1451018 0.0073042 -0.06967709
v 0.1451018 -0.007890864 -0.0696771
v 0.1314638 -0.007890888 -0.06967711
v 0.1456895 0.01080029 -0.06669736
v 0.1487941 0.007763776 -0.06672459
v 0.1314588 0.01080023 -0.06669736
v 0.1487941 -0.008350267 -0.0667246
v 0.1284187 0.007773573 -0.06665418
v 0.1284187 -0.008360307 -0.06665418
v 0.1314588 -0.01138706 -0.06669737
v 0.1451018 -0.007890864 -0.0696771
v 0.1456896 -0.01138696 -0.06669736
v -0.1457768 0.007304125 0.06966882
v -0.1463646 0.01080022 0.06668901
v -0.1494691 0.007763566 0.06671578
v -0.1321337 0.01080009 0.06668916
v -0.1457768 -0.007891035 0.06966881
v -0.1494691 -0.008350478 0.06671593
v -0.1463646 -0.01138713 0.06668916
v -0.1321388 0.007304148 0.06966882
v -0.1290937 0.007773511 0.06664553
v -0.1290937 -0.00836037 0.0666456
v -0.1321388 -0.007891011 0.06966882
v -0.1321338 -0.01138711 0.06668916
vt 0.8254652 0.9358693
vt 0.8363636 0.9358244
vt 0.8363326 0.9231077
vt 0.8254387 0.9231359
vt 0.8209925 0.974301
vt 0.800563 0.9917365
vt 0.8209925 0.9880949
vt 0.800563 0.9706581
vt 0.7776368 0.9937567
vt 0.7776635 0.9686321
vt 0.7546969 0.9937567
vt 0.7546727 0.9686317
vt 0.7317691 0.9917365
vt 0.7317691 0.9706581
vt 0.7113385 0.9880953
vt 0.7113385 0.974301
vt 0.7547566 0.9650158
vt 0.7775829 0.965017
vt 0.8008204 0.9685528
vt 0.7318322 0.9649493
vt 0.7315178 0.9685441
vt 0.8005078 0.9649569
vt 0.8216224 0.9684871
vt 0.8212417 0.9648604
vt 0.8212009 0.9528605
vt 0.800463 0.9482795
vt 0.7775691 0.9457191
vt 0.8009144 0.944705
vt 0.8218264 0.9492192
vt 0.777697 0.9420999
vt 0.7547755 0.9457183
vt 0.7110984 0.964846
vt 0.7107164 0.9684727
vt 0.7318812 0.9482713
vt 0.7111419 0.9528461
vt 0.7105181 0.9492046
vt 0.7314312 0.9446964
vt 0.7546488 0.9420999
vt 0.7776962 0.9169619
vt 0.7546498 0.9169619
vt 0.8007678 0.9189856
vt 0.8007678 0.9400642
vt 0.8217512 0.922496
vt 0.8217685 0.9365398
vt 0.8254387 0.9231359
vt 0.8245731 0.9194522
vt 0.8254652 0.9358693
vt 0.8246231 0.9395589
vt 0.8367807 0.9395481
vt 0.8363326 0.9231077
vt 0.8367288 0.9193801
vt 0.8396205 0.9222939
vt 0.8363636 0.9358244
vt 0.8396564 0.9366169
vt 0.7775694 0.9133477
vt 0.8009133 0.9143882
vt 0.8004656 0.9108131
vt 0.8218299 0.9098989
vt 0.8212085 0.906257
vt 0.8005291 0.8941369
vt 0.8212634 0.8942587
vt 0.8008472 0.8905432
vt 0.8216485 0.8906318
vt 0.777707 0.8904415
vt 0.7775955 0.8940533
vt 0.754642 0.8904409
vt 0.7547527 0.8940527
vt 0.7315008 0.8905406
vt 0.7547765 0.9133474
vt 0.7318192 0.8941349
vt 0.7106998 0.8906277
vt 0.7110847 0.8942542
vt 0.7318804 0.9108107
vt 0.7314327 0.9143863
vt 0.7111371 0.9062536
vt 0.7105162 0.9098953
vt 0.7105789 0.936541
vt 0.7315791 0.9189864
vt 0.7105971 0.9224976
vt 0.7315791 0.9400654
vt 0.7546498 0.9169619
vt 0.7546488 0.9420999
vt 0.8254652 0.9358693
vt 0.8254387 0.9231359
vt 0.8363326 0.9231077
vt 0.8363636 0.9358244
vt 0.8209925 0.974301
vt 0.8209925 0.9880949
vt 0.800563 0.9917365
vt 0.800563 0.9706581
vt 0.7776368 0.9937567
vt 0.7776635 0.9686321
vt 0.7546969 0.9937567
vt 0.7546727 0.9686317
vt 0.7317691 0.9917365
vt 0.7317691 0.9706581
vt 0.7113385 0.9880953
vt 0.7113385 0.974301
vt 0.7547566 0.9650158
vt 0.7775829 0.965017
vt 0.8008204 0.9685528
vt 0.7318322 0.9649493
vt 0.7315178 0.9685441
vt 0.8005078 0.9649569
vt 0.8216224 0.9684871
vt 0.8212417 0.9648604
vt 0.8212009 0.9528605
vt 0.800463 0.9482795
vt 0.7775691 0.9457191
vt 0.8009144 0.944705
vt 0.8218264 0.9492192
vt 0.777697 0.9420999
vt 0.7547755 0.9457183
vt 0.7546488 0.9420999
vt 0.7776962 0.9169619
vt 0.7546498 0.9169619
vt 0.7314312 0.9446964
vt 0.7318812 0.9482713
vt 0.7105181 0.9492046
vt 0.7111419 0.9528461
vt 0.7110984 0.964846
vt 0.7107164 0.9684727
vt 0.7315791 0.9400654
vt 0.7546488 0.9420999
vt 0.7315791 0.9189864
vt 0.7105789 0.936541
vt 0.7105971 0.9224976
vt 0.7068825 0.9358711
vt 0.7077244 0.9395604
vt 0.7069092 0.9231383
vt 0.7077752 0.9194545
vt 0.6956201 0.9193805
vt 0.6960157 0.9231086
vt 0.6927283 0.9222944
vt 0.692691 0.9366173
vt 0.6959838 0.9358248
vt 0.6955661 0.9395486
vt 0.7069092 0.9231383
vt 0.8007678 0.9400642
vt 0.8217512 0.922496
vt 0.8217685 0.9365398
vt 0.8007678 0.9189856
vt 0.777697 0.9420999
vt 0.8212634 0.8942587
vt 0.8008472 0.8905432
vt 0.8216485 0.8906318
vt 0.8005291 0.8941369
vt 0.8212085 0.906257
vt 0.777707 0.8904415
vt 0.8004656 0.9108131
vt 0.8218299 0.9098989
vt 0.8009133 0.9143882
vt 0.7775955 0.8940533
vt 0.754642 0.8904409
vt 0.7775694 0.9133477
vt 0.7776962 0.9169619
vt 0.7547527 0.8940527
vt 0.7315008 0.8905406
vt 0.7547765 0.9133474
vt 0.7546498 0.9169619
vt 0.7318192 0.8941349
vt 0.7106998 0.8906277
vt 0.7110847 0.8942542
vt 0.7318804 0.9108107
vt 0.7314327 0.9143863
vt 0.7111371 0.9062536
vt 0.7105162 0.9098953
vt 0.6959838 0.9358248
vt 0.7068825 0.9358711
vt 0.7069092 0.9231383
vt 0.6960157 0.9231086
vt 0.7077244 0.9395604
vt 0.7105789 0.936541
vt 0.6955661 0.9395486
vt 0.7105971 0.9224976
vt 0.692691 0.9366173
vt 0.6927283 0.9222944
vt 0.6956201 0.9193805
vt 0.7069092 0.9231383
vt 0.7077752 0.9194545
vt 0.8254652 0.9358693
vt 0.8246231 0.9395589
vt 0.8217685 0.9365398
vt 0.8367807 0.9395481
vt 0.8254387 0.9231359
vt 0.8217512 0.922496
vt 0.8245731 0.9194522
vt 0.8363636 0.9358244
vt 0.8396564 0.9366169
vt 0.8396205 0.9222939
vt 0.8363326 0.9231077
vt 0.8367288 0.9193801
vn 0.2856812 0.3000684 0.9101346
vn -0.336226 0.3031394 0.8916606
vn -0.336227 -0.3031353 0.8916616
vn 0.2856782 -0.3000636 0.9101372
vn -0.8667807 0.3226058 0.3802851
vn -0.918054 -0.3930047 0.05219156
vn -0.8667793 -0.3226045 0.3802893
vn -0.9180533 0.3930067 0.05219104
vn -0.9184808 -0.3950811 0.01743638
vn -0.9184797 0.3950832 0.01743807
vn -0.91848 -0.3950831 -0.01743382
vn -0.9184801 0.3950828 -0.01743472
vn -0.9180521 -0.3930095 -0.05219173
vn -0.918053 0.3930075 -0.05219159
vn -0.8667666 -0.3226076 -0.3803157
vn -0.8667672 0.3226095 -0.3803128
vn -0.3752271 0.926109 -0.03907634
vn -0.3752255 0.9261095 0.03907681
vn -0.9180533 0.3930067 0.05219104
vn -0.3744569 0.9198867 -0.1165783
vn -0.9180529 0.3930075 -0.05219159
vn -0.3744558 0.9198873 0.1165772
vn -0.8667807 0.3226058 0.3802851
vn -0.3337694 0.830722 0.4455321
vn 0.3004377 0.8186199 0.4894882
vn 0.3772615 0.9091697 0.1763071
vn 0.3854844 0.9207903 0.05955592
vn 0.903423 0.3818948 0.1948931
vn 0.800416 0.3125539 0.5115117
vn 0.9187189 0.3893669 0.06594772
vn 0.3854835 0.9207907 -0.05955549
vn -0.3337632 0.8307288 -0.4455242
vn -0.8667672 0.3226095 -0.3803128
vn 0.3772515 0.909174 -0.1763065
vn 0.3004143 0.8186289 -0.4894875
vn 0.8003893 0.3125654 -0.5115463
vn 0.903419 0.3819018 -0.1948976
vn 0.9187194 0.3893653 -0.06594903
vn 0.9187146 -0.3893771 0.06594621
vn 0.9187142 -0.3893773 -0.06594994
vn 0.9034211 -0.3818988 0.1948943
vn 0.903423 0.3818948 0.1948931
vn 0.8004162 -0.3125435 0.5115178
vn 0.800416 0.3125539 0.5115117
vn 0.2856782 -0.3000637 0.9101372
vn 0.3004379 -0.8186156 0.4894954
vn 0.2856813 0.3000685 0.9101346
vn 0.3004377 0.8186199 0.4894882
vn -0.3337694 0.830722 0.4455321
vn -0.336227 -0.3031353 0.8916616
vn -0.3337683 -0.8307216 0.445534
vn -0.8667793 -0.3226045 0.3802893
vn -0.336226 0.3031394 0.8916606
vn -0.8667807 0.3226058 0.3802851
vn 0.3854745 -0.9207945 0.05955311
vn 0.9034211 -0.3818988 0.1948943
vn 0.3772562 -0.9091722 0.1763057
vn 0.8004162 -0.3125435 0.5115178
vn 0.3004379 -0.8186156 0.4894954
vn -0.3744562 -0.9198871 0.1165771
vn -0.3337682 -0.8307216 0.445534
vn -0.918054 -0.3930047 0.05219156
vn -0.8667793 -0.3226045 0.3802893
vn -0.9184808 -0.3950811 0.01743638
vn -0.3752262 -0.9261093 0.0390766
vn -0.91848 -0.3950831 -0.01743382
vn -0.3752229 -0.9261106 -0.03907594
vn -0.9180521 -0.3930095 -0.05219173
vn 0.3854744 -0.9207945 -0.0595569
vn -0.3744512 -0.919889 -0.1165779
vn -0.8667666 -0.3226076 -0.3803157
vn -0.3337585 -0.8307279 -0.4455293
vn 0.3772528 -0.9091733 -0.1763072
vn 0.9034178 -0.3819047 -0.1948977
vn 0.3004272 -0.8186234 -0.4894888
vn 0.8003938 -0.3125543 -0.5115463
vn 0.8003893 0.3125654 -0.5115463
vn 0.9034178 -0.3819047 -0.1948977
vn 0.8003938 -0.3125543 -0.5115463
vn 0.903419 0.3819018 -0.1948976
vn 0.9187142 -0.3893773 -0.06594994
vn 0.9187194 0.3893653 -0.06594903
vn -0.2856818 0.3000704 0.9101338
vn -0.2856778 -0.3000598 0.9101387
vn 0.3362278 -0.3031352 0.8916613
vn 0.3362263 0.3031436 0.8916591
vn 0.8667818 0.3226048 0.3802834
vn 0.8667823 -0.3225987 0.3802874
vn 0.9180557 -0.393001 0.05219075
vn 0.9180532 0.3930069 0.05219094
vn 0.9184797 -0.3950835 0.01743609
vn 0.9184811 0.3950803 0.0174373
vn 0.9184788 -0.3950857 -0.01743519
vn 0.9184813 0.39508 -0.01743559
vn 0.9180528 -0.3930076 -0.05219208
vn 0.9180528 0.3930077 -0.05219167
vn 0.8667679 -0.3226062 -0.3803137
vn 0.866767 0.3226096 -0.3803128
vn 0.3752282 0.9261085 -0.03907689
vn 0.3752279 0.9261085 0.03907589
vn 0.9180532 0.393007 0.05219093
vn 0.3744551 0.9198874 -0.1165779
vn 0.9180528 0.3930077 -0.05219167
vn 0.374456 0.9198871 0.1165775
vn 0.8667818 0.3226048 0.3802834
vn 0.3337702 0.8307228 0.4455301
vn -0.3004417 0.8186191 0.4894872
vn -0.3772638 0.9091686 0.176308
vn -0.3854851 0.9207901 0.05955551
vn -0.903424 0.3818921 0.1948936
vn -0.8004181 0.3125483 0.5115119
vn -0.9187191 0.3893662 0.06594832
vn -0.3854825 0.9207911 -0.05955553
vn -0.9187187 0.3893672 -0.06594827
vn -0.9187139 -0.3893787 0.06594738
vn -0.9187139 -0.3893785 -0.0659487
vn -0.903419 0.3819022 -0.194897
vn -0.3772529 0.9091735 -0.1763057
vn -0.8003908 0.3125611 -0.5115469
vn -0.300418 0.8186279 -0.4894867
vn 0.3337626 0.8307292 -0.445524
vn 0.866767 0.3226097 -0.3803129
vn -0.903419 0.3819022 -0.194897
vn -0.9187187 0.3893672 -0.06594827
vn -0.9034171 -0.3819065 -0.1948972
vn -0.8003908 0.3125611 -0.5115469
vn -0.8003917 -0.3125577 -0.5115475
vn -0.2856467 0.3000709 -0.9101447
vn -0.300418 0.8186279 -0.4894867
vn -0.2856483 -0.3000678 -0.9101452
vn -0.3004242 -0.8186245 -0.4894889
vn 0.333761 -0.830728 -0.4455274
vn 0.3362032 -0.3031431 -0.891668
vn 0.8667679 -0.3226063 -0.3803137
vn 0.866767 0.3226097 -0.3803129
vn 0.3362029 0.303145 -0.8916674
vn 0.3337626 0.8307292 -0.4455239
vn -0.2856483 -0.3000678 -0.9101452
vn -0.903424 0.3818921 0.1948936
vn -0.8004153 -0.3125444 0.5115185
vn -0.8004181 0.3125483 0.5115119
vn -0.9034206 -0.3819 0.1948939
vn -0.9187191 0.3893662 0.06594832
vn 0.3337739 -0.8307192 0.445534
vn 0.9180557 -0.393001 0.05219075
vn 0.8667823 -0.3225987 0.3802874
vn 0.374459 -0.9198861 0.1165761
vn -0.3004375 -0.818615 0.4894965
vn 0.9184797 -0.3950835 0.01743609
vn -0.3772555 -0.9091727 0.1763046
vn -0.8004153 -0.3125444 0.5115185
vn -0.9034206 -0.3819 0.1948939
vn 0.3752248 -0.9261098 0.03907622
vn 0.9184788 -0.3950857 -0.01743519
vn -0.3854729 -0.9207953 0.05955361
vn -0.9187139 -0.3893787 0.06594739
vn 0.3752217 -0.9261111 -0.03907606
vn 0.9180528 -0.3930076 -0.05219208
vn -0.3854728 -0.9207952 -0.05955596
vn -0.9187139 -0.3893785 -0.0659487
vn 0.3744526 -0.9198884 -0.1165784
vn 0.8667679 -0.3226063 -0.3803137
vn 0.333761 -0.830728 -0.4455274
vn -0.377251 -0.909174 -0.1763069
vn -0.9034171 -0.3819065 -0.1948972
vn -0.3004242 -0.8186245 -0.4894889
vn -0.8003917 -0.3125577 -0.5115475
vn -0.3362029 0.3031452 -0.8916673
vn 0.2856474 0.3000702 -0.9101447
vn 0.2856502 -0.3000673 -0.9101448
vn -0.336203 -0.303139 -0.8916694
vn 0.3004143 0.8186289 -0.4894875
vn 0.8003893 0.3125654 -0.5115463
vn -0.3337632 0.8307287 -0.4455243
vn 0.8003938 -0.3125543 -0.5115463
vn -0.8667672 0.3226095 -0.3803128
vn -0.8667666 -0.3226076 -0.3803157
vn -0.3337585 -0.8307279 -0.4455293
vn 0.2856502 -0.3000674 -0.9101448
vn 0.3004272 -0.8186234 -0.4894888
vn -0.2856818 0.3000704 0.9101338
vn -0.3004417 0.8186191 0.4894872
vn -0.8004181 0.3125483 0.5115119
vn 0.3337702 0.8307228 0.4455301
vn -0.2856778 -0.3000598 0.9101387
vn -0.8004153 -0.3125444 0.5115185
vn -0.3004375 -0.8186149 0.4894965
vn 0.3362263 0.3031436 0.8916591
vn 0.8667818 0.3226048 0.3802834
vn 0.8667823 -0.3225987 0.3802874
vn 0.3362278 -0.3031352 0.8916613
vn 0.333774 -0.8307192 0.445534
f 1/1/1 2/2/2 3/3/3
f 1/1/1 3/3/3 4/4/4
f 5/5/5 6/6/6 7/7/7
f 5/5/5 8/8/8 6/6/6
f 8/8/8 9/9/9 6/6/6
f 8/8/8 10/10/10 9/9/9
f 10/10/10 11/11/11 9/9/9
f 10/10/10 12/12/12 11/11/11
f 12/12/12 13/13/13 11/11/11
f 12/12/12 14/14/14 13/13/13
f 14/14/14 15/15/15 13/13/13
f 14/14/14 16/16/16 15/15/15
f 17/17/17 12/12/12 10/10/10
f 17/17/17 10/10/10 18/18/18
f 18/18/18 10/10/10 19/19/19
f 20/20/20 12/12/12 17/17/17
f 20/20/20 21/21/21 12/12/12
f 18/18/18 19/19/19 22/22/22
f 22/22/22 19/19/19 23/23/23
f 22/22/22 23/23/23 24/24/24
f 25/25/25 22/22/22 24/24/24
f 26/26/26 18/18/18 22/22/22
f 25/25/25 26/26/26 22/22/22
f 27/27/27 17/17/17 18/18/18
f 26/26/26 27/27/27 18/18/18
f 25/25/25 28/28/28 26/26/26
f 25/25/25 29/29/29 28/28/28
f 26/26/26 28/28/28 30/30/30
f 26/26/26 30/30/30 27/27/27
f 27/27/27 31/31/31 17/17/17
f 31/31/31 20/20/20 17/17/17
f 32/32/32 21/21/21 20/20/20
f 32/32/32 33/33/33 21/21/21
f 34/34/34 32/32/32 20/20/20
f 31/31/31 34/34/34 20/20/20
f 34/34/34 35/35/35 32/32/32
f 34/34/34 36/36/36 35/35/35
f 34/34/34 37/37/37 36/36/36
f 31/31/31 37/37/37 34/34/34
f 31/31/31 38/38/38 37/37/37
f 27/27/27 38/38/38 31/31/31
f 27/27/27 30/30/30 38/38/38
f 38/38/38 30/30/30 39/39/39
f 38/38/38 39/39/39 40/40/40
f 30/30/30 41/41/41 39/39/39
f 30/30/30 42/42/42 41/41/41
f 42/42/42 43/43/43 41/41/41
f 42/42/42 44/44/44 43/43/43
f 45/45/45 43/43/43 44/44/44
f 45/45/45 46/46/46 43/43/43
f 45/45/45 44/44/44 47/47/47
f 47/47/47 44/44/44 48/48/48
f 49/49/49 47/47/47 48/48/48
f 46/46/46 45/45/45 50/50/50
f 46/46/46 50/50/50 51/51/51
f 52/52/52 51/51/51 50/50/50
f 49/49/49 53/53/53 47/47/47
f 53/53/53 52/52/52 50/50/50
f 49/49/49 54/54/54 53/53/53
f 53/53/53 54/54/54 52/52/52
f 55/55/55 39/39/39 56/56/56
f 55/55/55 56/56/56 57/57/57
f 57/57/57 56/56/56 58/58/58
f 57/57/57 58/58/58 59/59/59
f 59/59/59 60/60/60 57/57/57
f 59/59/59 61/61/61 60/60/60
f 61/61/61 62/62/62 60/60/60
f 61/61/61 63/63/63 62/62/62
f 60/60/60 62/62/62 64/64/64
f 57/57/57 60/60/60 65/65/65
f 60/60/60 64/64/64 65/65/65
f 57/57/57 65/65/65 55/55/55
f 65/65/65 64/64/64 66/66/66
f 65/65/65 66/66/66 67/67/67
f 55/55/55 65/65/65 67/67/67
f 67/67/67 66/66/66 68/68/68
f 69/69/69 39/39/39 55/55/55
f 55/55/55 67/67/67 69/69/69
f 69/69/69 40/40/40 39/39/39
f 67/67/67 68/68/68 70/70/70
f 69/69/69 67/67/67 70/70/70
f 70/70/70 68/68/68 71/71/71
f 70/70/70 71/71/71 72/72/72
f 73/73/73 40/40/40 69/69/69
f 69/69/69 70/70/70 73/73/73
f 73/73/73 70/70/70 72/72/72
f 73/73/73 74/74/74 40/40/40
f 73/73/73 72/72/72 75/75/75
f 75/75/75 74/74/74 73/73/73
f 75/75/75 76/76/76 74/74/74
f 77/77/77 78/78/78 79/79/79
f 77/77/77 80/80/80 78/78/78
f 80/80/80 81/81/81 78/78/78
f 80/80/80 82/82/82 81/81/81
f 83/83/83 84/84/84 85/85/85
f 83/83/83 85/85/85 86/86/86
f 87/87/87 88/88/88 89/89/89
f 87/87/87 89/89/89 90/90/90
f 90/90/90 89/89/89 91/91/91
f 90/90/90 91/91/91 92/92/92
f 92/92/92 91/91/91 93/93/93
f 92/92/92 93/93/93 94/94/94
f 94/94/94 93/93/93 95/95/95
f 94/94/94 95/95/95 96/96/96
f 96/96/96 95/95/95 97/97/97
f 96/96/96 97/97/97 98/98/98
f 99/99/99 92/92/92 94/94/94
f 99/99/99 100/100/100 92/92/92
f 100/100/100 101/101/101 92/92/92
f 102/102/102 99/99/99 94/94/94
f 102/102/102 94/94/94 103/103/103
f 100/100/100 104/104/104 101/101/101
f 104/104/104 105/105/105 101/101/101
f 104/104/104 106/106/106 105/105/105
f 107/107/107 106/106/106 104/104/104
f 108/108/108 104/104/104 100/100/100
f 107/107/107 104/104/104 108/108/108
f 109/109/109 100/100/100 99/99/99
f 108/108/108 100/100/100 109/109/109
f 107/107/107 108/108/108 110/110/110
f 107/107/107 110/110/110 111/111/111
f 108/108/108 112/112/112 110/110/110
f 108/108/108 109/109/109 112/112/112
f 109/109/109 99/99/99 113/113/113
f 113/113/113 99/99/99 102/102/102
f 109/109/109 114/114/114 112/112/112
f 109/109/109 113/113/113 114/114/114
f 114/114/114 115/115/115 112/112/112
f 114/114/114 116/116/116 115/115/115
f 113/113/113 117/117/117 114/114/114
f 113/113/113 118/118/118 117/117/117
f 113/113/113 102/102/102 118/118/118
f 118/118/118 119/119/119 117/117/117
f 118/118/118 120/120/120 119/119/119
f 118/118/118 121/121/121 120/120/120
f 118/118/118 102/102/102 121/121/121
f 121/121/121 102/102/102 103/103/103
f 121/121/121 103/103/103 122/122/122
f 123/123/123 116/116/116 124/124/124
f 123/123/123 125/125/125 116/116/116
f 126/126/126 125/125/125 123/123/123
f 126/126/126 127/127/127 125/125/125
f 128/128/128 127/127/127 126/126/126
f 126/126/126 129/129/129 128/128/128
f 128/128/128 130/130/130 127/127/127
f 127/127/127 130/130/130 131/131/131
f 132/132/132 131/131/131 130/130/130
f 132/132/132 130/130/130 133/133/133
f 133/133/133 134/134/134 132/132/132
f 135/135/135 134/134/134 133/133/133
f 129/129/129 136/136/136 128/128/128
f 135/135/135 133/133/133 136/136/136
f 129/129/129 137/137/137 136/136/136
f 137/137/137 135/135/135 136/136/136
f 136/136/136 138/138/138 128/128/128
f 136/136/136 133/133/133 138/138/138
f 139/139/139 140/140/140 141/141/141
f 139/139/139 142/142/142 140/140/140
f 143/143/143 142/142/142 139/139/139
f 143/143/143 115/115/115 142/142/142
f 144/144/144 145/145/145 146/146/146
f 144/144/144 147/147/147 145/145/145
f 148/148/148 147/147/147 144/144/144
f 147/147/147 149/149/149 145/145/145
f 148/148/148 150/150/150 147/147/147
f 150/150/150 148/148/148 151/151/151
f 150/150/150 151/151/151 152/152/152
f 147/147/147 153/153/153 149/149/149
f 150/150/150 153/153/153 147/147/147
f 153/153/153 154/154/154 149/149/149
f 155/155/155 150/150/150 152/152/152
f 150/150/150 155/155/155 153/153/153
f 155/155/155 152/152/152 156/156/156
f 153/153/153 157/157/157 154/154/154
f 155/155/155 157/157/157 153/153/153
f 157/157/157 158/158/158 154/154/154
f 159/159/159 155/155/155 156/156/156
f 155/155/155 159/159/159 157/157/157
f 159/159/159 156/156/156 160/160/160
f 157/157/157 161/161/161 158/158/158
f 159/159/159 161/161/161 157/157/157
f 161/161/161 162/162/162 158/158/158
f 161/161/161 163/163/163 162/162/162
f 164/164/164 159/159/159 160/160/160
f 159/159/159 164/164/164 161/161/161
f 164/164/164 163/163/163 161/161/161
f 164/164/164 160/160/160 165/165/165
f 164/164/164 166/166/166 163/163/163
f 166/166/166 164/164/164 165/165/165
f 166/166/166 165/165/165 167/167/167
f 168/168/168 169/169/169 170/170/170
f 168/168/168 170/170/170 171/171/171
f 172/172/172 169/169/169 168/168/168
f 173/173/173 169/169/169 172/172/172
f 172/172/172 168/168/168 174/174/174
f 169/169/169 173/173/173 175/175/175
f 174/174/174 168/168/168 176/176/176
f 176/176/176 168/168/168 171/171/171
f 176/176/176 171/171/171 177/177/177
f 171/171/171 178/178/178 177/177/177
f 169/169/169 175/175/175 179/179/179
f 178/178/178 171/171/171 179/179/179
f 175/175/175 180/180/180 179/179/179
f 178/178/178 179/179/179 180/180/180
f 181/181/181 182/182/182 183/183/183
f 184/184/184 182/182/182 181/181/181
f 185/185/185 181/181/181 183/183/183
f 185/185/185 183/183/183 186/186/186
f 185/185/185 186/186/186 187/187/187
f 184/184/184 181/181/181 188/188/188
f 184/184/184 188/188/188 189/189/189
f 188/188/188 190/190/190 189/189/189
f 187/187/187 191/191/191 185/185/185
f 188/188/188 191/191/191 190/190/190
f 187/187/187 192/192/192 191/191/191
f 190/190/190 191/191/191 192/192/192
