v 0.1234154 -0.009413023 -0.09388312
v 0.1097775 0.005849119 -0.09320769
v 0.1234154 0.005849275 -0.09320769
v 0.1097775 -0.009413027 -0.09388312
v 0.1097719 -0.0131464 -0.09015319
v 0.1067318 -0.01010196 -0.08994811
v 0.109727 -0.01929447 -0.05370376
v 0.106687 -0.01629109 -0.05357085
v 0.1240582 -0.01314639 -0.09015311
v 0.109708 -0.0227615 -0.01816596
v 0.1066679 -0.01976376 -0.0179734
v 0.1271763 -0.01008395 -0.09006041
v 0.1234154 0.005849275 -0.09320769
v 0.1300661 -0.01929439 -0.05370368
v 0.1097076 -0.02406629 0.01118493
v 0.1066676 -0.02106229 0.01137727
v 0.1331061 -0.016291 -0.05357077
v 0.1271763 0.006188859 -0.0893402
v 0.1325708 -0.02276134 -0.01816596
v 0.1097269 -0.02365972 0.04764481
v 0.1066869 -0.02065618 0.04777779
v 0.135615 -0.01976375 -0.01797339
v 0.1326234 -0.02406628 0.01118501
v 0.1097718 -0.02066885 0.08449861
v 0.1067317 -0.01761854 0.08456353
v 0.1097773 -0.01727057 0.0885444
v 0.1300661 -0.02365971 0.04764489
v 0.1356592 -0.0210622 0.01137734
v 0.1331061 0.009235197 -0.05244093
v 0.1240581 -0.02066885 0.08449868
v 0.1331061 -0.02065625 0.04777779
v 0.1356592 0.009640924 -0.01604048
v 0.1271763 -0.01761014 0.08467706
v 0.1234154 -0.01727048 0.08854447
v 0.1234154 -0.002008339 0.08921998
v 0.1097773 -0.002008343 0.08921991
v 0.1356149 0.008342397 0.01331018
v 0.133106 0.00486972 0.04890764
v 0.1271763 -0.001337409 0.08539727
v 0.1234154 -0.002008339 0.08921998
v 0.1240581 0.001725029 0.08548989
v 0.130066 0.007873183 0.04904054
v 0.1097718 0.001725026 0.08548982
v 0.1097773 -0.002008343 0.08921991
v 0.1325707 0.01134021 0.01350275
v 0.1097269 0.007872949 0.04904046
v 0.1067317 -0.001319409 0.08528489
v 0.1326234 0.0126453 -0.01584814
v 0.1067317 -0.01761854 0.08456353
v 0.1097773 -0.01727057 0.0885444
v 0.1066869 -0.02065618 0.04777779
v 0.1066869 0.004869713 0.04890756
v 0.1066676 -0.02106229 0.01137727
v 0.109708 0.01134021 0.01350259
v 0.1066679 0.008342542 0.01331003
v 0.1066679 -0.01976376 -0.0179734
v 0.1300661 0.01223843 -0.05230803
v 0.1097076 0.01264499 -0.01584822
v 0.1066676 0.009640993 -0.01604064
v 0.106687 -0.01629109 -0.05357085
v 0.1240582 0.009247559 -0.0891619
v 0.1097775 0.005849119 -0.09320769
v 0.109727 0.01223827 -0.0523081
v 0.106687 0.009235037 -0.05244101
v 0.1067318 -0.01010196 -0.08994811
v 0.1097719 0.009247632 -0.0891619
v 0.1067318 0.006197323 -0.08922683
v 0.1097775 -0.009413027 -0.09388312
v -0.1284517 -0.009413242 -0.09388314
v -0.1284517 0.005848904 -0.09320771
v -0.1148137 0.005848907 -0.09320778
v -0.1148137 -0.009413239 -0.09388322
v -0.1148081 -0.01314661 -0.09015313
v -0.1117681 -0.01010217 -0.08994828
v -0.1147633 -0.01929453 -0.05370377
v -0.1117232 -0.01629114 -0.05357079
v -0.1290944 -0.01314661 -0.09015313
v -0.1147443 -0.02276164 -0.01816598
v -0.1117042 -0.01976397 -0.01797341
v -0.1322126 -0.01008417 -0.09006051
v -0.1284517 0.005848904 -0.09320771
v -0.1351024 -0.01929469 -0.05370386
v -0.1147439 -0.02406657 0.01118491
v -0.1117039 -0.0210625 0.01137725
v -0.1381423 -0.01629123 -0.05357087
v -0.1322125 0.006188563 -0.08934029
v -0.137607 -0.02276157 -0.01816606
v -0.1147632 -0.02365985 0.04764487
v -0.1117233 -0.02065647 0.04777778
v -0.1406512 -0.01976405 -0.01797349
v -0.1376597 -0.0240665 0.01118491
v -0.1148081 -0.02066891 0.08449866
v -0.1117681 -0.01761867 0.08456351
v -0.1148137 -0.01727062 0.08854438
v -0.1351024 -0.02365978 0.04764487
v -0.1406955 -0.02106243 0.01137725
v -0.1381424 0.009234744 -0.05244111
v -0.1290944 -0.02066883 0.08449866
v -0.1381424 -0.0206564 0.04777777
v -0.1406955 0.009640775 -0.01604058
v -0.1322126 -0.01761021 0.08467703
v -0.1284517 -0.01727063 0.08854438
v -0.1284517 -0.002008329 0.08921981
v -0.1148137 -0.002008325 0.08921981
v -0.1406512 0.008342477 0.01331008
v -0.1381424 0.004869573 0.04890754
v -0.1322126 -0.001337401 0.08539718
v -0.1284517 -0.002008329 0.08921981
v -0.1290945 0.001725039 0.08548979
v -0.1351024 0.007873037 0.04904044
v -0.1148082 0.001725043 0.08548979
v -0.1148137 -0.002008325 0.08921981
v -0.137607 0.01134007 0.01350265
v -0.1147632 0.007873042 0.04904052
v -0.111768 -0.001319237 0.08528487
v -0.1376597 0.01264493 -0.01584824
v -0.1117681 -0.01761867 0.08456351
v -0.1148137 -0.01727062 0.08854438
v -0.1117233 -0.02065647 0.04777778
v -0.1117233 0.004869427 0.04890754
v -0.1117039 -0.0210625 0.01137725
v -0.1147443 0.01134007 0.01350265
v -0.1117042 0.008342485 0.01331008
v -0.1117042 -0.01976397 -0.01797341
v -0.1351024 0.01223821 -0.05230813
v -0.1147439 0.01264501 -0.01584817
v -0.1117039 0.009640783 -0.01604058
v -0.1117232 -0.01629114 -0.05357079
v -0.1290944 0.00924734 -0.08916192
v -0.1148137 0.005848907 -0.09320778
v -0.1147633 0.01223821 -0.05230812
v -0.1117233 0.009234828 -0.05244103
v -0.1117681 -0.01010217 -0.08994828
v -0.1148082 0.00924742 -0.08916199
v -0.111768 0.00619696 -0.08922677
v -0.1148137 -0.009413239 -0.09388322
vt 0.888719 0.09378614
vt 0.8848569 0.08844887
vt 0.8852783 0.09448936
vt 0.8882617 0.08724491
vt 0.8894004 0.08666683
vt 0.8890668 0.08499529
vt 0.8974345 0.08157836
vt 0.8972691 0.07977465
vt 0.8899105 0.09277425
vt 0.9057279 0.07956499
vt 0.9057068 0.07772582
vt 0.8898214 0.09456611
vt 0.8885941 0.1024606
vt 0.8980935 0.09025665
vt 0.9126942 0.0801651
vt 0.9128133 0.07835469
vt 0.897991 0.09180641
vt 0.8897743 0.1017417
vt 0.9058539 0.08951154
vt 0.9210361 0.08354061
vt 0.9212715 0.08176287
vt 0.9058306 0.09109589
vt 0.9121731 0.09006412
vt 0.9288672 0.08972359
vt 0.9292646 0.08811013
vt 0.9299827 0.09047063
vt 0.9200441 0.09212049
vt 0.9121721 0.09164393
vt 0.8979732 0.1029958
vt 0.9281234 0.09571715
vt 0.9200729 0.09371598
vt 0.9057829 0.1040608
vt 0.9281296 0.09747992
vt 0.9292663 0.09691069
vt 0.9326663 0.09816995
vt 0.9333302 0.092217
vt 0.911988 0.1046033
vt 0.9196943 0.1048812
vt 0.927928 0.1046502
vt 0.9290652 0.1055884
vt 0.9278964 0.1064953
vt 0.9196621 0.1064079
vt 0.9280532 0.1126973
vt 0.9291508 0.1132663
vt 0.9119756 0.1061367
vt 0.9199128 0.1151322
vt 0.9280528 0.1144511
vt 0.905772 0.1055917
vt 0.9288577 0.1215518
vt 0.9299698 0.1205282
vt 0.9207696 0.1280222
vt 0.9198737 0.116785
vt 0.9119388 0.1308362
vt 0.9119496 0.1160156
vt 0.9119111 0.1176714
vt 0.9045057 0.130159
vt 0.8979339 0.1045679
vt 0.9054027 0.1154609
vt 0.9053562 0.1171065
vt 0.8959784 0.1260101
vt 0.8897175 0.1035443
vt 0.8881944 0.1100653
vt 0.8973416 0.1132629
vt 0.8973092 0.1149343
vt 0.8881649 0.1183594
vt 0.8893141 0.1096762
vt 0.8892399 0.111409
vt 0.887095 0.1171714
vt 0.888719 0.09378614
vt 0.8852783 0.09448936
vt 0.8848569 0.08844887
vt 0.8882617 0.08724491
vt 0.8894004 0.08666683
vt 0.8890668 0.08499529
vt 0.8974345 0.08157836
vt 0.8972691 0.07977465
vt 0.8899105 0.09277425
vt 0.9057279 0.07956499
vt 0.9057068 0.07772582
vt 0.8898214 0.09456611
vt 0.8885941 0.1024606
vt 0.8980935 0.09025665
vt 0.9126942 0.0801651
vt 0.9128133 0.07835469
vt 0.897991 0.09180641
vt 0.8897743 0.1017417
vt 0.9058539 0.08951154
vt 0.9210361 0.08354061
vt 0.9212715 0.08176287
vt 0.9058306 0.09109589
vt 0.9121731 0.09006412
vt 0.9288672 0.08972359
vt 0.9292646 0.08811013
vt 0.9299827 0.09047063
vt 0.9200441 0.09212049
vt 0.9121721 0.09164393
vt 0.8979732 0.1029958
vt 0.9281234 0.09571715
vt 0.9200729 0.09371598
vt 0.9057829 0.1040608
vt 0.9281296 0.09747992
vt 0.9292663 0.09691069
vt 0.9326663 0.09816995
vt 0.9333302 0.092217
vt 0.911988 0.1046033
vt 0.9196943 0.1048812
vt 0.927928 0.1046502
vt 0.9290652 0.1055884
vt 0.9278964 0.1064953
vt 0.9196621 0.1064079
vt 0.9280532 0.1126973
vt 0.9291508 0.1132663
vt 0.9119756 0.1061367
vt 0.9199128 0.1151322
vt 0.9280528 0.1144511
vt 0.905772 0.1055917
vt 0.9288577 0.1215518
vt 0.9299698 0.1205282
vt 0.9207696 0.1280222
vt 0.9198737 0.116785
vt 0.9119388 0.1308362
vt 0.9119496 0.1160156
vt 0.9119111 0.1176714
vt 0.9045057 0.130159
vt 0.8979339 0.1045679
vt 0.9054027 0.1154609
vt 0.9053562 0.1171065
vt 0.8959784 0.1260101
vt 0.8897175 0.1035443
vt 0.8881944 0.1100653
vt 0.8973416 0.1132629
vt 0.8973092 0.1149343
vt 0.8881649 0.1183594
vt 0.8893141 0.1096762
vt 0.8892399 0.111409
vt 0.887095 0.1171714
vn -1.710018E-07 0.04421191 -0.9990222
vn -1.710018E-07 0.04421191 -0.9990222
vn -1.710018E-07 0.04421191 -0.9990222
vn -1.710018E-07 0.04421191 -0.9990222
vn 3.179099E-06 -0.9860712 -0.1663239
vn -0.8857213 -0.3218931 -0.3344885
vn 4.449167E-06 -0.9912776 -0.131791
vn -0.9197343 -0.3889215 -0.05318584
vn 3.179099E-06 -0.9860712 -0.1663239
vn 4.693247E-06 -0.997492 -0.07077996
vn -0.9204664 -0.3898233 -0.02792034
vn 0.9872164 0.007047435 -0.1592295
vn -1.710018E-07 0.04421191 -0.9990222
vn 4.449167E-06 -0.9912776 -0.131791
vn 1.946255E-06 -0.9998616 -0.01663791
vn -0.9203588 -0.3910287 -0.006014966
vn 0.9933835 0.005078214 -0.1147319
vn 0.9872164 0.007047435 -0.1592295
vn 4.693247E-06 -0.997492 -0.07077996
vn 0 -0.9989392 0.04604777
vn -0.9197133 -0.3921036 0.0195548
vn 0.9993854 0.001550576 -0.03502217
vn 1.946255E-06 -0.9998616 -0.01663791
vn -1.088005E-07 -0.9967231 0.08088907
vn -0.8855945 -0.3499972 0.3053266
vn -5.541653E-06 -0.044217 0.999022
vn 0 -0.9989392 0.04604777
vn 0.9993852 -0.00154978 0.03502383
vn 0.9933835 0.005078214 -0.1147319
vn -1.088005E-07 -0.9967231 0.08088907
vn 0.9933835 -0.005077926 0.1147325
vn 0.9993854 0.001550576 -0.03502217
vn 0.9872164 -0.007047407 0.1592294
vn -5.541653E-06 -0.044217 0.999022
vn -5.541653E-06 -0.044217 0.999022
vn -5.541653E-06 -0.044217 0.999022
vn 0.9993852 -0.00154978 0.03502383
vn 0.9933835 -0.005077926 0.1147325
vn 0.9872164 -0.007047407 0.1592294
vn -5.541653E-06 -0.044217 0.999022
vn -7.519403E-06 0.9860713 0.1663235
vn -6.79172E-06 0.9912773 0.1317925
vn -7.519403E-06 0.9860713 0.1663235
vn -5.541653E-06 -0.044217 0.999022
vn -6.603768E-06 0.9974917 0.07078312
vn -6.79172E-06 0.9912773 0.1317925
vn -0.8857176 0.3219004 0.3344912
vn -8.97899E-06 0.9998616 0.0166363
vn -0.8855945 -0.3499972 0.3053266
vn -5.541653E-06 -0.044217 0.999022
vn -0.9197133 -0.3921036 0.0195548
vn -0.9197311 0.3889291 0.05318619
vn -0.9203588 -0.3910287 -0.006014966
vn -6.603768E-06 0.9974917 0.07078312
vn -0.920464 0.389829 0.02792039
vn -0.9204664 -0.3898233 -0.02792034
vn -6.542196E-06 0.9989392 -0.04604906
vn -8.97899E-06 0.9998616 0.0166363
vn -0.9203562 0.3910348 0.006013334
vn -0.9197343 -0.3889215 -0.05318584
vn -2.272548E-06 0.9967234 -0.08088576
vn -1.710018E-07 0.04421191 -0.9990222
vn -6.542196E-06 0.9989392 -0.04604906
vn -0.9197082 0.3921153 -0.01955604
vn -0.8857213 -0.3218931 -0.3344885
vn -2.272548E-06 0.9967234 -0.08088576
vn -0.8855895 0.350004 -0.3053333
vn -1.710018E-07 0.04421191 -0.9990222
vn -5.513562E-06 0.04421213 -0.9990222
vn -5.513562E-06 0.04421213 -0.9990222
vn -5.513562E-06 0.04421213 -0.9990222
vn -5.513562E-06 0.04421213 -0.9990222
vn 4.986018E-06 -0.9860714 -0.1663228
vn 0.8857173 -0.3218975 -0.334495
vn 3.679071E-06 -0.9912777 -0.1317902
vn 0.9197333 -0.3889242 -0.05318505
vn 4.986018E-06 -0.9860714 -0.1663228
vn -3.114278E-07 -0.997492 -0.07078106
vn 0.920465 -0.3898265 -0.02792086
vn -0.9872164 0.007047125 -0.1592296
vn -5.513562E-06 0.04421213 -0.9990222
vn 3.679071E-06 -0.9912777 -0.1317902
vn -3.12918E-06 -0.9998616 -0.01663706
vn 0.9203585 -0.3910294 -0.006014122
vn -0.9933835 0.005077597 -0.1147324
vn -0.9872164 0.007047125 -0.1592296
vn -3.114278E-07 -0.997492 -0.07078106
vn -3.700715E-06 -0.9989391 0.04605112
vn 0.9197114 -0.3921078 0.01955604
vn -0.9993852 0.001549896 -0.03502337
vn -3.12918E-06 -0.9998616 -0.01663706
vn -4.131252E-06 -0.9967229 0.08089148
vn 0.8855922 -0.3500003 0.3053299
vn 0 -0.04421169 0.9990222
vn -3.700715E-06 -0.9989391 0.04605112
vn -0.9993854 -0.001549813 0.03502219
vn -0.9933835 0.005077597 -0.1147324
vn -4.131252E-06 -0.9967229 0.08089148
vn -0.9933835 -0.005077043 0.1147319
vn -0.9993852 0.001549896 -0.03502337
vn -0.9872163 -0.007046018 0.1592301
vn 0 -0.04421169 0.9990222
vn 0 -0.04421169 0.9990222
vn 0 -0.04421169 0.9990222
vn -0.9993854 -0.001549813 0.03502219
vn -0.9933835 -0.005077043 0.1147319
vn -0.9872163 -0.007046018 0.1592301
vn 0 -0.04421169 0.9990222
vn -6.363998E-07 0.9860713 0.1663232
vn -5.382935E-07 0.9912776 0.1317909
vn -6.363998E-07 0.9860713 0.1663232
vn 0 -0.04421169 0.9990222
vn -1.222856E-06 0.997492 0.07078099
vn -5.382935E-07 0.9912776 0.1317909
vn 0.885716 0.3219021 0.3344941
vn -2.006132E-06 0.9998616 0.01663597
vn 0.8855922 -0.3500003 0.3053299
vn 0 -0.04421169 0.9990222
vn 0.9197114 -0.3921078 0.01955604
vn 0.9197364 0.3889169 0.0531837
vn 0.9203585 -0.3910294 -0.006014122
vn -1.222856E-06 0.997492 0.07078099
vn 0.920466 0.3898239 0.02792101
vn 0.920465 -0.3898265 -0.02792086
vn -2.31846E-06 0.9989391 -0.04604996
vn -2.006132E-06 0.9998616 0.01663597
vn 0.9203591 0.391028 0.006014063
vn 0.9197333 -0.3889242 -0.05318505
vn -2.628708E-06 0.9967232 -0.08088817
vn -5.513562E-06 0.04421213 -0.9990222
vn -2.31846E-06 0.9989391 -0.04604996
vn 0.9197122 0.392106 -0.0195559
vn 0.8857173 -0.3218975 -0.334495
vn -2.628708E-06 0.9967232 -0.08088817
vn 0.8855968 0.3499928 -0.3053253
vn -5.513562E-06 0.04421213 -0.9990222
f 1/1/1 2/2/2 3/3/3
f 1/1/1 4/4/4 2/2/2
f 5/5/5 4/4/4 1/1/1
f 5/5/5 6/6/6 4/4/4
f 7/7/7 6/6/6 5/5/5
f 7/7/7 8/8/8 6/6/6
f 5/5/5 1/1/1 9/9/9
f 9/9/9 7/7/7 5/5/5
f 10/10/10 8/8/8 7/7/7
f 10/10/10 11/11/11 8/8/8
f 1/1/1 12/12/12 9/9/9
f 13/13/13 12/12/12 1/1/1
f 9/9/9 14/14/14 7/7/7
f 14/14/14 10/10/10 7/7/7
f 15/15/15 11/11/11 10/10/10
f 15/15/15 16/16/16 11/11/11
f 9/9/9 12/12/12 17/17/17
f 9/9/9 17/17/17 14/14/14
f 13/13/13 18/18/18 12/12/12
f 17/17/17 12/12/12 18/18/18
f 14/14/14 19/19/19 10/10/10
f 19/19/19 15/15/15 10/10/10
f 20/20/20 16/16/16 15/15/15
f 20/20/20 21/21/21 16/16/16
f 14/14/14 17/17/17 22/22/22
f 14/14/14 22/22/22 19/19/19
f 19/19/19 23/23/23 15/15/15
f 23/23/23 20/20/20 15/15/15
f 24/24/24 21/21/21 20/20/20
f 24/24/24 25/25/25 21/21/21
f 24/24/24 26/26/26 25/25/25
f 27/27/27 24/24/24 20/20/20
f 23/23/23 27/27/27 20/20/20
f 19/19/19 28/28/28 23/23/23
f 19/19/19 22/22/22 28/28/28
f 22/22/22 17/17/17 29/29/29
f 17/17/17 18/18/18 29/29/29
f 30/30/30 26/26/26 24/24/24
f 27/27/27 30/30/30 24/24/24
f 23/23/23 31/31/31 27/27/27
f 23/23/23 28/28/28 31/31/31
f 28/28/28 22/22/22 32/32/32
f 22/22/22 29/29/29 32/32/32
f 27/27/27 33/33/33 30/30/30
f 27/27/27 31/31/31 33/33/33
f 30/30/30 34/34/34 26/26/26
f 33/33/33 34/34/34 30/30/30
f 26/26/26 34/34/34 35/35/35
f 26/26/26 35/35/35 36/36/36
f 31/31/31 28/28/28 37/37/37
f 28/28/28 32/32/32 37/37/37
f 33/33/33 31/31/31 38/38/38
f 31/31/31 37/37/37 38/38/38
f 34/34/34 33/33/33 39/39/39
f 33/33/33 38/38/38 39/39/39
f 34/34/34 39/39/39 40/40/40
f 41/41/41 39/39/39 38/38/38
f 41/41/41 40/40/40 39/39/39
f 42/42/42 38/38/38 37/37/37
f 41/41/41 38/38/38 42/42/42
f 43/43/43 40/40/40 41/41/41
f 42/42/42 43/43/43 41/41/41
f 43/43/43 44/44/44 40/40/40
f 45/45/45 37/37/37 32/32/32
f 42/42/42 37/37/37 45/45/45
f 42/42/42 46/46/46 43/43/43
f 45/45/45 46/46/46 42/42/42
f 47/47/47 44/44/44 43/43/43
f 46/46/46 47/47/47 43/43/43
f 45/45/45 32/32/32 48/48/48
f 48/48/48 32/32/32 29/29/29
f 49/49/49 44/44/44 47/47/47
f 49/49/49 50/50/50 44/44/44
f 51/51/51 49/49/49 47/47/47
f 51/51/51 47/47/47 52/52/52
f 46/46/46 52/52/52 47/47/47
f 53/53/53 51/51/51 52/52/52
f 45/45/45 54/54/54 46/46/46
f 54/54/54 52/52/52 46/46/46
f 48/48/48 54/54/54 45/45/45
f 53/53/53 52/52/52 55/55/55
f 54/54/54 55/55/55 52/52/52
f 56/56/56 53/53/53 55/55/55
f 48/48/48 29/29/29 57/57/57
f 57/57/57 29/29/29 18/18/18
f 48/48/48 58/58/58 54/54/54
f 58/58/58 55/55/55 54/54/54
f 57/57/57 58/58/58 48/48/48
f 56/56/56 55/55/55 59/59/59
f 58/58/58 59/59/59 55/55/55
f 60/60/60 56/56/56 59/59/59
f 57/57/57 18/18/18 61/61/61
f 61/61/61 18/18/18 13/13/13
f 61/61/61 13/13/13 62/62/62
f 57/57/57 63/63/63 58/58/58
f 63/63/63 59/59/59 58/58/58
f 61/61/61 63/63/63 57/57/57
f 60/60/60 59/59/59 64/64/64
f 63/63/63 64/64/64 59/59/59
f 65/65/65 60/60/60 64/64/64
f 61/61/61 66/66/66 63/63/63
f 61/61/61 62/62/62 66/66/66
f 66/66/66 64/64/64 63/63/63
f 65/65/65 64/64/64 67/67/67
f 66/66/66 67/67/67 64/64/64
f 62/62/62 67/67/67 66/66/66
f 68/68/68 65/65/65 67/67/67
f 68/68/68 67/67/67 62/62/62
f 69/69/69 70/70/70 71/71/71
f 69/69/69 71/71/71 72/72/72
f 73/73/73 69/69/69 72/72/72
f 73/73/73 72/72/72 74/74/74
f 75/75/75 73/73/73 74/74/74
f 75/75/75 74/74/74 76/76/76
f 73/73/73 77/77/77 69/69/69
f 77/77/77 73/73/73 75/75/75
f 78/78/78 75/75/75 76/76/76
f 78/78/78 76/76/76 79/79/79
f 69/69/69 77/77/77 80/80/80
f 81/81/81 69/69/69 80/80/80
f 77/77/77 75/75/75 82/82/82
f 82/82/82 75/75/75 78/78/78
f 83/83/83 78/78/78 79/79/79
f 83/83/83 79/79/79 84/84/84
f 77/77/77 85/85/85 80/80/80
f 77/77/77 82/82/82 85/85/85
f 81/81/81 80/80/80 86/86/86
f 85/85/85 86/86/86 80/80/80
f 82/82/82 78/78/78 87/87/87
f 87/87/87 78/78/78 83/83/83
f 88/88/88 83/83/83 84/84/84
f 88/88/88 84/84/84 89/89/89
f 82/82/82 90/90/90 85/85/85
f 82/82/82 87/87/87 90/90/90
f 87/87/87 83/83/83 91/91/91
f 91/91/91 83/83/83 88/88/88
f 92/92/92 88/88/88 89/89/89
f 92/92/92 89/89/89 93/93/93
f 92/92/92 93/93/93 94/94/94
f 95/95/95 88/88/88 92/92/92
f 91/91/91 88/88/88 95/95/95
f 87/87/87 91/91/91 96/96/96
f 87/87/87 96/96/96 90/90/90
f 90/90/90 97/97/97 85/85/85
f 85/85/85 97/97/97 86/86/86
f 98/98/98 92/92/92 94/94/94
f 95/95/95 92/92/92 98/98/98
f 91/91/91 95/95/95 99/99/99
f 91/91/91 99/99/99 96/96/96
f 96/96/96 100/100/100 90/90/90
f 90/90/90 100/100/100 97/97/97
f 95/95/95 98/98/98 101/101/101
f 95/95/95 101/101/101 99/99/99
f 98/98/98 94/94/94 102/102/102
f 101/101/101 98/98/98 102/102/102
f 94/94/94 103/103/103 102/102/102
f 94/94/94 104/104/104 103/103/103
f 99/99/99 105/105/105 96/96/96
f 96/96/96 105/105/105 100/100/100
f 101/101/101 106/106/106 99/99/99
f 99/99/99 106/106/106 105/105/105
f 102/102/102 107/107/107 101/101/101
f 101/101/101 107/107/107 106/106/106
f 102/102/102 108/108/108 107/107/107
f 109/109/109 106/106/106 107/107/107
f 109/109/109 107/107/107 108/108/108
f 110/110/110 105/105/105 106/106/106
f 109/109/109 110/110/110 106/106/106
f 111/111/111 109/109/109 108/108/108
f 110/110/110 109/109/109 111/111/111
f 111/111/111 108/108/108 112/112/112
f 113/113/113 100/100/100 105/105/105
f 110/110/110 113/113/113 105/105/105
f 110/110/110 111/111/111 114/114/114
f 113/113/113 110/110/110 114/114/114
f 115/115/115 111/111/111 112/112/112
f 114/114/114 111/111/111 115/115/115
f 113/113/113 116/116/116 100/100/100
f 116/116/116 97/97/97 100/100/100
f 117/117/117 115/115/115 112/112/112
f 117/117/117 112/112/112 118/118/118
f 119/119/119 115/115/115 117/117/117
f 119/119/119 120/120/120 115/115/115
f 114/114/114 115/115/115 120/120/120
f 121/121/121 120/120/120 119/119/119
f 113/113/113 114/114/114 122/122/122
f 122/122/122 114/114/114 120/120/120
f 116/116/116 113/113/113 122/122/122
f 121/121/121 123/123/123 120/120/120
f 122/122/122 120/120/120 123/123/123
f 124/124/124 123/123/123 121/121/121
f 116/116/116 125/125/125 97/97/97
f 125/125/125 86/86/86 97/97/97
f 116/116/116 122/122/122 126/126/126
f 126/126/126 122/122/122 123/123/123
f 125/125/125 116/116/116 126/126/126
f 124/124/124 127/127/127 123/123/123
f 126/126/126 123/123/123 127/127/127
f 128/128/128 127/127/127 124/124/124
f 125/125/125 129/129/129 86/86/86
f 129/129/129 81/81/81 86/86/86
f 129/129/129 130/130/130 81/81/81
f 125/125/125 126/126/126 131/131/131
f 131/131/131 126/126/126 127/127/127
f 129/129/129 125/125/125 131/131/131
f 128/128/128 132/132/132 127/127/127
f 131/131/131 127/127/127 132/132/132
f 133/133/133 132/132/132 128/128/128
f 129/129/129 131/131/131 134/134/134
f 129/129/129 134/134/134 130/130/130
f 134/134/134 131/131/131 132/132/132
f 133/133/133 135/135/135 132/132/132
f 134/134/134 132/132/132 135/135/135
f 130/130/130 134/134/134 135/135/135
f 136/136/136 135/135/135 133/133/133
f 136/136/136 130/130/130 135/135/135
