v 0.009028709 0.1875465 0.2351178
v 0.02669145 -0.01532043 0.2347151
v 0.0266914 0.1875464 0.2351179
v 0.00902873 -0.01532043 0.2347151
v 0.009029095 -0.01437637 -0.2393918
v 0.02669156 -0.01437622 -0.2393918
v 0.009029083 0.1884906 -0.2389891
v 0.02669153 0.1884905 -0.2389891
v 0.0266914 0.1875464 0.2351179
v 0.009028709 0.1875465 0.2351178
v 0.02669145 -0.01532043 0.2347151
v 0.02669156 -0.01437622 -0.2393918
v 0.02669158 -0.008458405 -0.2334596
v 0.02669145 -0.00937912 0.2288065
v 0.0266914 0.1875464 0.2351179
v 0.0266914 0.1816287 0.2291856
v 0.02669153 0.1884905 -0.2389891
v 0.02669151 0.1825493 -0.2330804
v 0.00902873 -0.01532043 0.2347151
v 0.00902873 -0.009378967 0.2288066
v 0.009029104 -0.008458405 -0.2334596
v 0.009028709 0.1875465 0.2351178
v 0.009029095 -0.01437637 -0.2393918
v 0.009028709 0.1816289 0.2291856
v 0.009029083 0.1884906 -0.2389891
v 0.009029083 0.1825496 -0.2330804
vt 0.5005942 0.493495
vt 0.5038688 0.5686032
vt 0.5038794 0.4934969
vt 0.5005845 0.5686022
vt 0.5005845 0.7444397
vt 0.5038688 0.7444388
vt 0.5005943 0.8195479
vt 0.5038794 0.8195469
vt 0.5038795 0.9953787
vt 0.5005942 0.9953786
vt 0.6773361 0.0008722926
vt 0.5893602 0.0008722926
vt 0.5904588 0.003067071
vt 0.6762376 0.003067191
vt 0.6773366 0.07599491
vt 0.6762376 0.07379905
vt 0.5893598 0.07599491
vt 0.5904588 0.07379905
vt 0.5884822 0.07592534
vt 0.5873836 0.0737302
vt 0.5016039 0.07373032
vt 0.5884822 0.0008027256
vt 0.5005054 0.07592546
vt 0.5873836 0.002998343
vt 0.5005053 0.0008027256
vt 0.5016039 0.002998343
vn 3.04588E-06 0.7057022 0.7085086
vn 0 -0.7085105 0.7057003
vn 3.045806E-06 0.7056965 0.7085142
vn 0 -0.7085121 0.7056987
vn 3.05709E-06 -0.7057016 -0.7085091
vn 3.057072E-06 -0.7056976 -0.7085131
vn 6.106172E-06 0.7085133 -0.7056975
vn 6.106136E-06 0.7085091 -0.7057016
vn 3.045806E-06 0.7056965 0.7085142
vn 3.04588E-06 0.7057022 0.7085086
vn 1 -6.782069E-07 1.235353E-07
vn 1 -6.810435E-07 0
vn 1 -4.335357E-07 0
vn 1 -4.314203E-07 1.565086E-07
vn 1 -5.775944E-07 1.250078E-07
vn 1 -3.560731E-07 1.576143E-07
vn 1 -5.804212E-07 0
vn 1 -3.581949E-07 0
vn -1 3.488435E-07 -3.943646E-07
vn -1 2.334884E-07 -4.978666E-07
vn -1 2.419708E-07 -1.957179E-07
vn -1 0 -4.002461E-07
vn -1 3.601375E-07 0
vn -1 0 -5.022902E-07
vn -1 0 0
vn -1 0 -2.001472E-07
f 1/1/1 2/2/2 3/3/3
f 1/1/1 4/4/4 2/2/2
f 2/2/2 4/4/4 5/5/5
f 2/2/2 5/5/5 6/6/6
f 7/7/7 6/6/6 5/5/5
f 7/7/7 8/8/8 6/6/6
f 7/7/7 9/9/9 8/8/8
f 7/7/7 10/10/10 9/9/9
f 11/11/11 12/12/12 13/13/13
f 11/11/11 13/13/13 14/14/14
f 15/15/15 11/11/11 14/14/14
f 15/15/15 14/14/14 16/16/16
f 13/13/13 16/16/16 14/14/14
f 17/17/17 15/15/15 16/16/16
f 12/12/12 17/17/17 18/18/18
f 12/12/12 18/18/18 13/13/13
f 13/13/13 18/18/18 16/16/16
f 17/17/17 16/16/16 18/18/18
f 19/19/19 20/20/20 21/21/21
f 22/22/22 20/20/20 19/19/19
f 19/19/19 21/21/21 23/23/23
f 22/22/22 24/24/24 20/20/20
f 21/21/21 20/20/20 24/24/24
f 25/25/25 24/24/24 22/22/22
f 23/23/23 21/21/21 26/26/26
f 23/23/23 26/26/26 25/25/25
f 21/21/21 24/24/24 26/26/26
f 25/25/25 26/26/26 24/24/24
