v 0.02669151 -0.01532103 -0.2347146
v 0.009028775 0.1875457 -0.2351171
v 0.02669147 0.1875457 -0.2351172
v 0.009028784 -0.01532118 -0.2347145
v 0.009029214 -0.01437737 0.2393924
v 0.02669168 -0.01437722 0.2393924
v 0.009029214 0.1884895 0.2389898
v 0.02669166 0.1884894 0.2389898
v 0.02669147 0.1875457 -0.2351172
v 0.009028775 0.1875457 -0.2351171
v 0.02669151 -0.01532103 -0.2347146
v 0.02669151 -0.009379869 -0.2288059
v 0.0266917 -0.0084594 0.2334602
v 0.02669147 0.1875457 -0.2351172
v 0.02669168 -0.01437722 0.2393924
v 0.02669147 0.1816279 -0.2291849
v 0.02669166 0.1884894 0.2389898
v 0.02669164 0.1825482 0.2330811
v 0.009028784 -0.01532118 -0.2347145
v 0.009029214 -0.01437737 0.2393924
v 0.009029224 -0.0084594 0.2334602
v 0.009028784 -0.009379717 -0.228806
v 0.009028775 0.1875457 -0.2351171
v 0.009028775 0.181628 -0.2291849
v 0.009029214 0.1884895 0.2389898
v 0.009029213 0.1825485 0.2330811
vt 0.4960046 0.5686032
vt 0.4992792 0.493495
vt 0.495994 0.4934969
vt 0.4992888 0.5686022
vt 0.4992888 0.7444397
vt 0.4960046 0.7444388
vt 0.499279 0.8195479
vt 0.4959939 0.8195469
vt 0.4959939 0.9953787
vt 0.4992792 0.9953786
vt 0.3225372 0.0008722926
vt 0.3236358 0.003067191
vt 0.4094146 0.003067071
vt 0.3225368 0.07599491
vt 0.4105131 0.0008722926
vt 0.3236358 0.07379905
vt 0.4105136 0.07599491
vt 0.4094146 0.07379905
vt 0.4113912 0.07592534
vt 0.499368 0.07592546
vt 0.4982694 0.07373032
vt 0.4124898 0.0737302
vt 0.4113912 0.0008027256
vt 0.4124898 0.002998343
vt 0.499368 0.0008027256
vt 0.4982694 0.002998343
vn 2.976152E-06 -0.7085081 -0.7057027
vn 0 0.7057006 -0.7085101
vn 0 0.7056989 -0.7085118
vn 2.976225E-06 -0.7085136 -0.7056971
vn 6.198552E-06 -0.705702 0.7085088
vn 6.198517E-06 -0.7056979 0.7085129
vn 3.139128E-06 0.7085129 0.7056979
vn 3.13911E-06 0.7085087 0.7057021
vn 0 0.7056989 -0.7085118
vn 0 0.7057006 -0.7085101
vn 1 -7.084539E-07 -2.540513E-07
vn 1 -4.681983E-07 -2.883194E-07
vn 1 -4.681894E-07 -2.883187E-07
vn 1 -7.084675E-07 -2.540533E-07
vn 1 -7.084805E-07 -2.540552E-07
vn 1 -4.681946E-07 -2.883195E-07
vn 1 -7.08456E-07 -2.540517E-07
vn 1 -4.681995E-07 -2.883196E-07
vn -1 3.790935E-07 5.248849E-07
vn -1 3.903879E-07 1.225593E-07
vn -1 2.802992E-07 3.281726E-07
vn -1 2.718166E-07 6.303197E-07
vn -1 0 5.307658E-07
vn -1 0 6.347433E-07
vn -1 0 1.284077E-07
vn -1 0 3.326017E-07
f 1/1/1 2/2/2 3/3/3
f 1/1/1 4/4/4 2/2/2
f 5/5/5 4/4/4 1/1/1
f 5/5/5 1/1/1 6/6/6
f 6/6/6 7/7/7 5/5/5
f 6/6/6 8/8/8 7/7/7
f 7/7/7 8/8/8 9/9/9
f 7/7/7 9/9/9 10/10/10
f 11/11/11 12/12/12 13/13/13
f 14/14/14 12/12/12 11/11/11
f 11/11/11 13/13/13 15/15/15
f 14/14/14 16/16/16 12/12/12
f 13/13/13 12/12/12 16/16/16
f 17/17/17 16/16/16 14/14/14
f 15/15/15 13/13/13 18/18/18
f 15/15/15 18/18/18 17/17/17
f 13/13/13 16/16/16 18/18/18
f 17/17/17 18/18/18 16/16/16
f 19/19/19 20/20/20 21/21/21
f 19/19/19 21/21/21 22/22/22
f 23/23/23 19/19/19 22/22/22
f 23/23/23 22/22/22 24/24/24
f 21/21/21 24/24/24 22/22/22
f 25/25/25 23/23/23 24/24/24
f 20/20/20 25/25/25 26/26/26
f 20/20/20 26/26/26 21/21/21
f 21/21/21 26/26/26 24/24/24
f 25/25/25 24/24/24 26/26/26
