v -0.1061135 -0.008199252 0.06701446
v -0.1060719 0.01253431 0.04203064
v -0.1061136 0.00820303 0.06701446
v -0.1060719 -0.01253054 0.04203064
v -0.1060487 0.01493856 0.01400696
v -0.1060486 -0.01493471 0.01400696
v -0.1060487 0.01493856 -0.01401703
v -0.1060486 -0.01493471 -0.01401703
v -0.106072 0.01253431 -0.04204071
v -0.106072 -0.01253054 -0.04204071
v -0.1061137 0.00820303 -0.06702454
v -0.1061137 -0.008199252 -0.06702454
v -0.1090886 -0.01797472 -0.01401703
v -0.1090886 -0.01797472 0.01400665
v -0.1060719 -0.01253054 0.04203064
v -0.109112 -0.01557047 -0.04204071
v -0.106072 -0.01253054 -0.04204071
v -0.1091119 -0.01557047 0.04203064
v -0.1061135 -0.008199252 0.06701446
v -0.1091536 -0.01127603 0.0670581
v -0.1233844 -0.01127611 0.0670581
v -0.1289533 -0.0155704 0.04203064
v -0.1320316 -0.01797465 0.01400665
v -0.1319933 -0.01253046 0.04203064
v -0.1264889 -0.008189109 0.06708527
v -0.1350716 -0.01493464 0.01400665
v -0.1320316 -0.01797472 -0.01401703
v -0.1091538 -0.01127619 -0.06706817
v -0.1061137 -0.008199252 -0.06702454
v -0.1289534 -0.01557055 -0.04204071
v -0.1233846 -0.01127619 -0.06706817
v -0.1264891 -0.008189186 -0.06709533
v -0.1319934 -0.01253054 -0.04204071
v -0.1350717 -0.01493472 -0.01401703
v -0.1350716 0.01493864 0.01400665
v -0.1319933 0.01253439 0.04203064
v -0.1319933 -0.01253046 0.04203064
v -0.1264889 0.008192956 0.06708527
v -0.1264889 -0.008189109 0.06708527
v -0.1227966 0.007725885 0.07005432
v -0.1233844 0.01128004 0.0670581
v -0.1227966 -0.007722036 0.07005432
v -0.1233844 -0.01127611 0.0670581
v -0.1091536 -0.01127603 0.0670581
v -0.1091586 0.007725963 0.07005432
v -0.1091536 0.01128012 0.0670581
v -0.1061136 0.00820303 0.06701446
v -0.1091586 -0.007721882 0.07005432
v -0.1061135 -0.008199252 0.06701446
v -0.1350717 0.01493856 -0.01401703
v -0.1319934 -0.01253054 -0.04204071
v -0.1319934 0.01253431 -0.04204071
v -0.1264891 -0.008189186 -0.06709533
v -0.1264891 0.008192879 -0.06709533
v -0.1227968 -0.007722036 -0.07006439
v -0.1233846 -0.01127619 -0.06706817
v -0.1227968 0.007725808 -0.07006439
v -0.1233846 0.01127996 -0.06706817
v -0.1091538 0.01127996 -0.06706817
v -0.1091588 -0.007722034 -0.07006439
v -0.1091538 -0.01127619 -0.06706817
v -0.1061137 -0.008199252 -0.06702454
v -0.1091588 0.007725811 -0.07006439
v -0.1061137 0.00820303 -0.06702454
v -0.1320316 0.01797849 -0.01401703
v -0.1320316 0.01797857 0.01400665
v -0.1319933 0.01253439 0.04203064
v -0.1289534 0.01557432 -0.04204071
v -0.1319934 0.01253431 -0.04204071
v -0.1233846 0.01127996 -0.06706817
v -0.1264891 0.008192879 -0.06709533
v -0.1091538 0.01127996 -0.06706817
v -0.109112 0.01557432 -0.04204071
v -0.1061137 0.00820303 -0.06702454
v -0.106072 0.01253431 -0.04204071
v -0.1090886 0.0179785 -0.01401703
v -0.1060487 0.01493856 -0.01401703
v -0.1090886 0.0179785 0.01400696
v -0.1060487 0.01493856 0.01400696
v -0.1289533 0.01557439 0.04203064
v -0.1264889 0.008192956 0.06708527
v -0.1233844 0.01128004 0.0670581
v -0.109112 0.01557432 0.04203064
v -0.1060719 0.01253431 0.04203064
v -0.1091536 0.01128012 0.0670581
v -0.1061136 0.00820303 0.06701446
v 0.07690192 -0.008199372 -0.06702515
v 0.07686033 0.01253419 -0.04204132
v 0.07690195 0.008202909 -0.06702515
v 0.07686031 -0.01253066 -0.04204132
v 0.07683703 0.01493844 -0.01401764
v 0.07683703 -0.01493483 -0.01401764
v 0.07683704 0.01493844 0.01400635
v 0.07683704 -0.01493483 0.01400635
v 0.07686043 0.01253419 0.04203003
v 0.07686044 -0.01253066 0.04203003
v 0.07690206 0.008202909 0.06701385
v 0.07690208 -0.008199372 0.06701385
v 0.07987703 -0.01797484 0.01400635
v 0.07987703 -0.01797484 -0.01401733
v 0.07686031 -0.01253066 -0.04204132
v 0.07990043 -0.01557059 0.04203003
v 0.07686044 -0.01253066 0.04203003
v 0.07990035 -0.01557059 -0.04204132
v 0.07690192 -0.008199372 -0.06702515
v 0.07994202 -0.01127615 -0.06706879
v 0.09417281 -0.01127615 -0.06706879
v 0.09974165 -0.01557043 -0.04204132
v 0.10282 -0.01797468 -0.01401733
v 0.1027817 -0.0125305 -0.04204132
v 0.09727734 -0.008189145 -0.06709594
v 0.10586 -0.01493467 -0.01401733
v 0.10282 -0.01797483 0.01400635
v 0.07994216 -0.01127631 0.06705749
v 0.07690208 -0.008199372 0.06701385
v 0.09974174 -0.01557066 0.04203003
v 0.09417294 -0.0112763 0.06705749
v 0.09727745 -0.008189298 0.06708466
v 0.1027818 -0.01253065 0.04203003
v 0.10586 -0.01493483 0.01400635
v 0.10586 0.0149386 -0.01401733
v 0.1027817 0.01253435 -0.04204132
v 0.1027817 -0.0125305 -0.04204132
v 0.09727734 0.008192918 -0.06709594
v 0.09727734 -0.008189145 -0.06709594
v 0.093585 0.007725846 -0.070065
v 0.09417281 0.01128 -0.06706879
v 0.09358501 -0.007722076 -0.070065
v 0.09417281 -0.01127615 -0.06706879
v 0.07994202 -0.01127615 -0.06706879
v 0.07994699 0.007725844 -0.070065
v 0.07994203 0.01128 -0.06706879
v 0.07690195 0.008202909 -0.06702515
v 0.07994701 -0.007722002 -0.070065
v 0.07690192 -0.008199372 -0.06702515
v 0.10586 0.01493845 0.01400635
v 0.1027818 -0.01253065 0.04203003
v 0.1027818 0.0125342 0.04203003
v 0.09727745 -0.008189298 0.06708466
v 0.09727745 0.008192766 0.06708466
v 0.09358515 -0.007722152 0.07005371
v 0.09417294 -0.0112763 0.06705749
v 0.09358517 0.007725693 0.07005371
v 0.09417297 0.01127985 0.06705749
v 0.07994217 0.01127984 0.06705749
v 0.07994716 -0.007722154 0.07005371
v 0.07994216 -0.01127631 0.06705749
v 0.07690208 -0.008199372 0.06701385
v 0.07994716 0.007725691 0.07005371
v 0.07690206 0.008202909 0.06701385
v 0.10282 0.01797838 0.01400635
v 0.10282 0.01797853 -0.01401733
v 0.1027817 0.01253435 -0.04204132
v 0.09974174 0.01557421 0.04203003
v 0.1027818 0.0125342 0.04203003
v 0.09417297 0.01127985 0.06705749
v 0.09727745 0.008192766 0.06708466
v 0.07994217 0.01127984 0.06705749
v 0.07990043 0.0155742 0.04203003
v 0.07690206 0.008202909 0.06701385
v 0.07686043 0.01253419 0.04203003
v 0.07987703 0.01797838 0.01400635
v 0.07683704 0.01493844 0.01400635
v 0.07987702 0.01797838 -0.01401764
v 0.07683703 0.01493844 -0.01401764
v 0.09974165 0.01557436 -0.04204132
v 0.09727734 0.008192918 -0.06709594
v 0.09417281 0.01128 -0.06706879
v 0.07990033 0.0155742 -0.04204132
v 0.07686033 0.01253419 -0.04204132
v 0.07994203 0.01128 -0.06706879
v 0.07690195 0.008202909 -0.06702515
vt 0.5976047 0.6832246
vt 0.5940613 0.6749275
vt 0.5948014 0.6832246
vt 0.598345 0.6749275
vt 0.5936508 0.6656164
vt 0.5987568 0.6656273
vt 0.5936508 0.6562998
vt 0.5987568 0.6562898
vt 0.5940613 0.646988
vt 0.598345 0.646988
vt 0.5948013 0.6386904
vt 0.5976047 0.6386904
vt 0.5994917 0.656324
vt 0.5994915 0.6655945
vt 0.5987729 0.6750321
vt 0.5995052 0.6470135
vt 0.5987747 0.6468859
vt 0.5995037 0.6749051
vt 0.5987862 0.6834804
vt 0.5995233 0.6833258
vt 0.601962 0.6833092
vt 0.602893 0.6748869
vt 0.6034133 0.6655889
vt 0.6036195 0.6750702
vt 0.602702 0.6835633
vt 0.6041489 0.6656409
vt 0.6034135 0.6563315
vt 0.5995262 0.6385928
vt 0.5987892 0.6384377
vt 0.6028947 0.6470335
vt 0.601965 0.6386105
vt 0.602705 0.6383572
vt 0.6036212 0.6468508
vt 0.6041489 0.6562802
vt 0.6092576 0.6656405
vt 0.6088464 0.6750107
vt 0.6045626 0.6750107
vt 0.608133 0.6835328
vt 0.6052788 0.6835397
vt 0.6080029 0.6850304
vt 0.6087515 0.6846788
vt 0.6054151 0.6850411
vt 0.6046653 0.6846991
vt 0.6046675 0.6896368
vt 0.6080086 0.6894547
vt 0.6087662 0.6896157
vt 0.608174 0.6907901
vt 0.6054242 0.6894674
vt 0.6052632 0.6908047
vt 0.6092576 0.6562805
vt 0.6045623 0.6469108
vt 0.6088462 0.6469108
vt 0.6052786 0.6383818
vt 0.6081326 0.6383892
vt 0.6054147 0.6368806
vt 0.604665 0.6372226
vt 0.6080024 0.6368915
vt 0.6087511 0.6372432
vt 0.6087661 0.6323066
vt 0.6054242 0.6324543
vt 0.6046674 0.6322847
vt 0.6052631 0.631117
vt 0.6080084 0.6324673
vt 0.6081739 0.6311322
vt 0.6099922 0.656332
vt 0.6099921 0.665589
vt 0.6097807 0.6750697
vt 0.6105077 0.6470332
vt 0.6097811 0.6468513
vt 0.6114339 0.6386086
vt 0.6106938 0.6383564
vt 0.6138725 0.6385872
vt 0.6138967 0.6470084
vt 0.6146095 0.638431
vt 0.6146272 0.646879
vt 0.6139134 0.6563224
vt 0.6146474 0.6562774
vt 0.6139133 0.6655996
vt 0.6146473 0.6656449
vt 0.6105072 0.6748879
vt 0.610693 0.6835647
vt 0.6114331 0.6833124
vt 0.6138963 0.6749136
vt 0.6146266 0.6750429
vt 0.6138716 0.6833346
vt 0.6146086 0.683491
vt 0.5976047 0.6832246
vt 0.5940613 0.6749275
vt 0.5948014 0.6832246
vt 0.598345 0.6749275
vt 0.5936508 0.6656164
vt 0.5987568 0.6656273
vt 0.5936508 0.6562998
vt 0.5987568 0.6562898
vt 0.5940613 0.646988
vt 0.598345 0.646988
vt 0.5948013 0.6386904
vt 0.5976047 0.6386904
vt 0.5994917 0.656324
vt 0.5994915 0.6655945
vt 0.5987729 0.6750321
vt 0.5995052 0.6470135
vt 0.5987747 0.6468859
vt 0.5995037 0.6749051
vt 0.5987862 0.6834804
vt 0.5995233 0.6833258
vt 0.601962 0.6833092
vt 0.602893 0.6748869
vt 0.6034133 0.6655889
vt 0.6036195 0.6750702
vt 0.602702 0.6835633
vt 0.6041489 0.6656409
vt 0.6034135 0.6563315
vt 0.5995262 0.6385928
vt 0.5987892 0.6384377
vt 0.6028947 0.6470335
vt 0.601965 0.6386105
vt 0.602705 0.6383572
vt 0.6036212 0.6468508
vt 0.6041489 0.6562802
vt 0.6092576 0.6656405
vt 0.6088464 0.6750107
vt 0.6045626 0.6750107
vt 0.608133 0.6835328
vt 0.6052788 0.6835397
vt 0.6080029 0.6850304
vt 0.6087515 0.6846788
vt 0.6054151 0.6850411
vt 0.6046653 0.6846991
vt 0.6046675 0.6896368
vt 0.6080086 0.6894547
vt 0.6087662 0.6896157
vt 0.608174 0.6907901
vt 0.6054242 0.6894674
vt 0.6052632 0.6908047
vt 0.6092576 0.6562805
vt 0.6045623 0.6469108
vt 0.6088462 0.6469108
vt 0.6052786 0.6383818
vt 0.6081326 0.6383892
vt 0.6054147 0.6368806
vt 0.604665 0.6372226
vt 0.6080024 0.6368915
vt 0.6087511 0.6372432
vt 0.6087661 0.6323066
vt 0.6054242 0.6324543
vt 0.6046674 0.6322847
vt 0.6052631 0.631117
vt 0.6080084 0.6324673
vt 0.6081739 0.6311322
vt 0.6099922 0.656332
vt 0.6099921 0.665589
vt 0.6097807 0.6750697
vt 0.6105077 0.6470332
vt 0.6097811 0.6468513
vt 0.6114339 0.6386086
vt 0.6106938 0.6383564
vt 0.6138725 0.6385872
vt 0.6138967 0.6470084
vt 0.6146095 0.638431
vt 0.6146272 0.646879
vt 0.6139134 0.6563224
vt 0.6146474 0.6562774
vt 0.6139133 0.6655996
vt 0.6146473 0.6656449
vt 0.6105072 0.6748879
vt 0.610693 0.6835647
vt 0.6114331 0.6833124
vt 0.6138963 0.6749136
vt 0.6146266 0.6750429
vt 0.6138716 0.6833346
vt 0.6146086 0.683491
vn 0.9999987 4.048423E-07 0.001665237
vn 0.9999993 4.63442E-07 0.001248477
vn 0.9999987 4.048423E-07 0.001665237
vn 0.9999993 4.63442E-07 0.001248477
vn 1 6.676838E-07 0.0004156888
vn 1 6.676838E-07 0.0004156888
vn 1 7.544753E-07 -0.0004173052
vn 1 7.544753E-07 -0.0004173052
vn 0.9999993 6.652097E-07 -0.001250803
vn 0.9999993 6.652097E-07 -0.001250803
vn 0.9999987 6.347942E-07 -0.001667336
vn 0.9999987 6.347942E-07 -0.001667336
vn 2.312391E-07 -0.9990846 -0.04277752
vn -2.434715E-06 -0.9990846 0.04277925
vn 0.9999993 4.63442E-07 0.001248477
vn 2.165292E-06 -0.9918503 -0.1274087
vn 0.9999993 6.652097E-07 -0.001250803
vn -1.603829E-06 -0.9918501 0.1274098
vn 0.9999987 4.048423E-07 0.001665237
vn 1.723272E-07 -0.9855964 0.1691143
vn 1.723272E-07 -0.9855964 0.1691143
vn -1.603829E-06 -0.9918501 0.1274098
vn -2.434715E-06 -0.9990846 0.04277925
vn -0.9867719 -2.848158E-07 0.1621148
vn -0.9767071 -3.950187E-07 0.2145769
vn -0.998504 -1.74584E-07 0.05467715
vn 2.312391E-07 -0.9990846 -0.04277752
vn 2.376841E-06 -0.9855967 -0.1691126
vn 0.9999987 6.347942E-07 -0.001667336
vn 2.165292E-06 -0.9918503 -0.1274087
vn 2.376841E-06 -0.9855967 -0.1691126
vn -0.9767075 -3.950188E-07 -0.2145747
vn -0.9867721 -2.848159E-07 -0.1621133
vn -0.9985042 -1.74584E-07 -0.05467606
vn -0.998504 -1.74584E-07 0.05467715
vn -0.9867719 -2.848158E-07 0.1621148
vn -0.9867719 -2.848158E-07 0.1621148
vn -0.9767071 -3.950187E-07 0.2145769
vn -0.9767071 -3.950187E-07 0.2145769
vn 0 0 1
vn -1.723272E-07 0.985597 0.1691114
vn 0 0 1
vn 1.723272E-07 -0.9855964 0.1691143
vn 1.723272E-07 -0.9855964 0.1691143
vn 0 0 1
vn -1.723272E-07 0.985597 0.1691114
vn 0.9999987 4.048423E-07 0.001665237
vn 0 0 1
vn 0.9999987 4.048423E-07 0.001665237
vn -0.9985042 -1.74584E-07 -0.05467606
vn -0.9867721 -2.848159E-07 -0.1621133
vn -0.9867721 -2.848159E-07 -0.1621133
vn -0.9767075 -3.950188E-07 -0.2145747
vn -0.9767075 -3.950188E-07 -0.2145747
vn 0 0 -1
vn 2.376841E-06 -0.9855967 -0.1691126
vn 0 0 -1
vn -1.723272E-07 0.9855964 -0.1691143
vn -1.723272E-07 0.9855964 -0.1691143
vn 0 0 -1
vn 2.376841E-06 -0.9855967 -0.1691126
vn 0.9999987 6.347942E-07 -0.001667336
vn 0 0 -1
vn 0.9999987 6.347942E-07 -0.001667336
vn 6.574231E-07 0.9990846 -0.04277826
vn 2.129837E-06 0.9990847 0.04277658
vn -0.9867719 -2.848158E-07 0.1621148
vn -1.734206E-07 0.9918503 -0.1274089
vn -0.9867721 -2.848159E-07 -0.1621133
vn -1.723272E-07 0.9855964 -0.1691143
vn -0.9767075 -3.950188E-07 -0.2145747
vn -1.723272E-07 0.9855964 -0.1691143
vn -1.734206E-07 0.9918503 -0.1274089
vn 0.9999987 6.347942E-07 -0.001667336
vn 0.9999993 6.652097E-07 -0.001250803
vn 6.574231E-07 0.9990846 -0.04277826
vn 1 7.544753E-07 -0.0004173052
vn 2.129837E-06 0.9990847 0.04277658
vn 1 6.676838E-07 0.0004156888
vn 1.298954E-06 0.9918504 0.1274071
vn -0.9767071 -3.950187E-07 0.2145769
vn -1.723272E-07 0.985597 0.1691114
vn 1.298954E-06 0.9918504 0.1274071
vn 0.9999993 4.63442E-07 0.001248477
vn -1.723272E-07 0.985597 0.1691114
vn 0.9999987 4.048423E-07 0.001665237
vn -0.9230862 -0.3787369 -0.06686027
vn -0.923429 0.380471 -0.05020713
vn -0.9230923 0.3787225 -0.06685612
vn -0.9234254 -0.3804794 -0.0502091
vn -0.9238223 0.3824539 -0.01677411
vn -0.9238228 -0.3824527 -0.01677407
vn -0.9238223 0.3824537 0.01677603
vn -0.9238234 -0.3824513 0.01677601
vn -0.9234278 0.3804735 0.05021026
vn -0.9234273 -0.3804744 0.05021004
vn -0.9230899 0.3787279 0.06685922
vn -0.9230891 -0.37873 0.06685875
vn -0.382552 -0.9230807 0.03969757
vn -0.3825484 -0.9230822 -0.03969854
vn -0.9234254 -0.3804794 -0.0502091
vn -0.3816613 -0.9166861 0.1184118
vn -0.9234273 -0.3804744 0.05021004
vn -0.3816522 -0.9166897 -0.1184127
vn -0.9230862 -0.3787369 -0.06686027
vn -0.3809031 -0.911135 -0.1573088
vn 4.58825E-06 -0.9855964 -0.1691148
vn 0.2501732 -0.9580442 -0.1398743
vn 0.3814364 -0.9224263 -0.06030082
vn 0.9541048 -0.2501875 -0.1645911
vn 0.9767073 1.70773E-07 -0.2145756
vn 0.9219568 -0.3814991 -0.06673747
vn 0.3814352 -0.9224269 0.06029649
vn -0.3809141 -0.9111308 0.1573063
vn -0.9230891 -0.37873 0.06685875
vn 0.250169 -0.9580454 0.139873
vn -2.03219E-06 -0.9855967 0.1691126
vn 0.9767075 1.70773E-07 0.2145749
vn 0.9541053 -0.2501866 0.1645901
vn 0.9219575 -0.3814985 0.0667338
vn 0.9219558 0.3815023 -0.06673548
vn 0.9541047 0.2501878 -0.1645911
vn 0.9541048 -0.2501875 -0.1645911
vn 0.9767073 1.70773E-07 -0.2145756
vn 0.9767073 1.70773E-07 -0.2145756
vn 0 0 -1
vn -4.581365E-06 0.9855971 -0.1691109
vn 0 0 -1
vn 4.58825E-06 -0.9855964 -0.1691148
vn -0.3809031 -0.911135 -0.1573088
vn 0 0 -1
vn -0.380923 0.9111274 -0.1573038
vn -0.9230923 0.3787225 -0.06685612
vn 0 0 -1
vn -0.9230862 -0.3787369 -0.06686027
vn 0.9219553 0.381503 0.06673623
vn 0.9541053 -0.2501866 0.1645901
vn 0.9541046 0.2501888 0.1645906
vn 0.9767075 1.70773E-07 0.2145749
vn 0.9767075 1.70773E-07 0.2145749
vn 0 0 1
vn -2.03219E-06 -0.9855967 0.1691126
vn 0 0 1
vn -1.723272E-07 0.9855964 0.1691144
vn -0.3809144 0.9111304 0.1573079
vn 0 0 1
vn -0.3809141 -0.9111308 0.1573063
vn -0.9230891 -0.37873 0.06685875
vn 0 0 1
vn -0.9230899 0.3787279 0.06685922
vn 0.3814293 0.9224292 0.06029983
vn 0.3814286 0.9224297 -0.06029651
vn 0.9541047 0.2501878 -0.1645911
vn 0.2501681 0.9580456 0.1398732
vn 0.9541046 0.2501888 0.1645906
vn -1.723272E-07 0.9855964 0.1691144
vn 0.9767075 1.70773E-07 0.2145749
vn -0.3809144 0.9111304 0.1573079
vn -0.3816608 0.9166862 0.1184122
vn -0.9230899 0.3787279 0.06685922
vn -0.9234278 0.3804735 0.05021026
vn -0.3825507 0.9230813 0.03969863
vn -0.9238223 0.3824537 0.01677603
vn -0.3825522 0.9230807 -0.0396962
vn -0.9238223 0.3824539 -0.01677411
vn 0.2501654 0.9580465 -0.1398721
vn 0.9767073 1.70773E-07 -0.2145756
vn -4.581365E-06 0.9855971 -0.1691109
vn -0.3816667 0.9166842 -0.1184092
vn -0.923429 0.380471 -0.05020713
vn -0.380923 0.9111274 -0.1573038
vn -0.9230923 0.3787225 -0.06685612
f 1/1/1 2/2/2 3/3/3
f 1/1/1 4/4/4 2/2/2
f 4/4/4 5/5/5 2/2/2
f 4/4/4 6/6/6 5/5/5
f 6/6/6 7/7/7 5/5/5
f 6/6/6 8/8/8 7/7/7
f 8/8/8 9/9/9 7/7/7
f 8/8/8 10/10/10 9/9/9
f 10/10/10 11/11/11 9/9/9
f 10/10/10 12/12/12 11/11/11
f 13/13/13 8/8/8 6/6/6
f 13/13/13 6/6/6 14/14/14
f 14/14/14 6/6/6 15/15/15
f 16/16/16 8/8/8 13/13/13
f 16/16/16 17/17/17 8/8/8
f 14/14/14 15/15/15 18/18/18
f 18/18/18 15/15/15 19/19/19
f 18/18/18 19/19/19 20/20/20
f 21/21/21 18/18/18 20/20/20
f 22/22/22 14/14/14 18/18/18
f 21/21/21 22/22/22 18/18/18
f 23/23/23 13/13/13 14/14/14
f 22/22/22 23/23/23 14/14/14
f 21/21/21 24/24/24 22/22/22
f 21/21/21 25/25/25 24/24/24
f 22/22/22 24/24/24 26/26/26
f 22/22/22 26/26/26 23/23/23
f 23/23/23 27/27/27 13/13/13
f 27/27/27 16/16/16 13/13/13
f 28/28/28 17/17/17 16/16/16
f 28/28/28 29/29/29 17/17/17
f 30/30/30 28/28/28 16/16/16
f 27/27/27 30/30/30 16/16/16
f 30/30/30 31/31/31 28/28/28
f 30/30/30 32/32/32 31/31/31
f 30/30/30 33/33/33 32/32/32
f 27/27/27 33/33/33 30/30/30
f 27/27/27 34/34/34 33/33/33
f 23/23/23 34/34/34 27/27/27
f 23/23/23 26/26/26 34/34/34
f 34/34/34 26/26/26 35/35/35
f 26/26/26 36/36/36 35/35/35
f 26/26/26 37/37/37 36/36/36
f 37/37/37 38/38/38 36/36/36
f 37/37/37 39/39/39 38/38/38
f 40/40/40 38/38/38 39/39/39
f 40/40/40 41/41/41 38/38/38
f 40/40/40 39/39/39 42/42/42
f 42/42/42 39/39/39 43/43/43
f 44/44/44 42/42/42 43/43/43
f 41/41/41 40/40/40 45/45/45
f 42/42/42 45/45/45 40/40/40
f 41/41/41 45/45/45 46/46/46
f 47/47/47 46/46/46 45/45/45
f 44/44/44 48/48/48 42/42/42
f 42/42/42 48/48/48 45/45/45
f 48/48/48 47/47/47 45/45/45
f 44/44/44 49/49/49 48/48/48
f 48/48/48 49/49/49 47/47/47
f 34/34/34 35/35/35 50/50/50
f 51/51/51 34/34/34 50/50/50
f 51/51/51 50/50/50 52/52/52
f 53/53/53 51/51/51 52/52/52
f 53/53/53 52/52/52 54/54/54
f 55/55/55 53/53/53 54/54/54
f 53/53/53 55/55/55 56/56/56
f 55/55/55 54/54/54 57/57/57
f 54/54/54 58/58/58 57/57/57
f 59/59/59 57/57/57 58/58/58
f 56/56/56 55/55/55 60/60/60
f 60/60/60 55/55/55 57/57/57
f 56/56/56 60/60/60 61/61/61
f 61/61/61 60/60/60 62/62/62
f 59/59/59 63/63/63 57/57/57
f 60/60/60 57/57/57 63/63/63
f 62/62/62 60/60/60 63/63/63
f 63/63/63 59/59/59 64/64/64
f 62/62/62 63/63/63 64/64/64
f 65/65/65 50/50/50 35/35/35
f 65/65/65 35/35/35 66/66/66
f 66/66/66 35/35/35 67/67/67
f 68/68/68 50/50/50 65/65/65
f 68/68/68 69/69/69 50/50/50
f 70/70/70 69/69/69 68/68/68
f 70/70/70 71/71/71 69/69/69
f 68/68/68 72/72/72 70/70/70
f 68/68/68 73/73/73 72/72/72
f 65/65/65 73/73/73 68/68/68
f 73/73/73 74/74/74 72/72/72
f 73/73/73 75/75/75 74/74/74
f 65/65/65 76/76/76 73/73/73
f 76/76/76 75/75/75 73/73/73
f 66/66/66 76/76/76 65/65/65
f 76/76/76 77/77/77 75/75/75
f 78/78/78 77/77/77 76/76/76
f 66/66/66 78/78/78 76/76/76
f 78/78/78 79/79/79 77/77/77
f 66/66/66 67/67/67 80/80/80
f 80/80/80 78/78/78 66/66/66
f 80/80/80 67/67/67 81/81/81
f 80/80/80 81/81/81 82/82/82
f 83/83/83 79/79/79 78/78/78
f 80/80/80 83/83/83 78/78/78
f 82/82/82 83/83/83 80/80/80
f 83/83/83 84/84/84 79/79/79
f 82/82/82 85/85/85 83/83/83
f 85/85/85 84/84/84 83/83/83
f 85/85/85 86/86/86 84/84/84
f 87/87/87 88/88/88 89/89/89
f 87/87/87 90/90/90 88/88/88
f 90/90/90 91/91/91 88/88/88
f 90/90/90 92/92/92 91/91/91
f 92/92/92 93/93/93 91/91/91
f 92/92/92 94/94/94 93/93/93
f 94/94/94 95/95/95 93/93/93
f 94/94/94 96/96/96 95/95/95
f 96/96/96 97/97/97 95/95/95
f 96/96/96 98/98/98 97/97/97
f 99/99/99 94/94/94 92/92/92
f 99/99/99 92/92/92 100/100/100
f 100/100/100 92/92/92 101/101/101
f 102/102/102 94/94/94 99/99/99
f 102/102/102 103/103/103 94/94/94
f 100/100/100 101/101/101 104/104/104
f 104/104/104 101/101/101 105/105/105
f 104/104/104 105/105/105 106/106/106
f 107/107/107 104/104/104 106/106/106
f 108/108/108 100/100/100 104/104/104
f 107/107/107 108/108/108 104/104/104
f 109/109/109 99/99/99 100/100/100
f 108/108/108 109/109/109 100/100/100
f 107/107/107 110/110/110 108/108/108
f 107/107/107 111/111/111 110/110/110
f 108/108/108 110/110/110 112/112/112
f 108/108/108 112/112/112 109/109/109
f 109/109/109 113/113/113 99/99/99
f 113/113/113 102/102/102 99/99/99
f 114/114/114 103/103/103 102/102/102
f 114/114/114 115/115/115 103/103/103
f 116/116/116 114/114/114 102/102/102
f 113/113/113 116/116/116 102/102/102
f 116/116/116 117/117/117 114/114/114
f 116/116/116 118/118/118 117/117/117
f 116/116/116 119/119/119 118/118/118
f 113/113/113 119/119/119 116/116/116
f 113/113/113 120/120/120 119/119/119
f 109/109/109 120/120/120 113/113/113
f 109/109/109 112/112/112 120/120/120
f 120/120/120 112/112/112 121/121/121
f 112/112/112 122/122/122 121/121/121
f 112/112/112 123/123/123 122/122/122
f 123/123/123 124/124/124 122/122/122
f 123/123/123 125/125/125 124/124/124
f 126/126/126 124/124/124 125/125/125
f 126/126/126 127/127/127 124/124/124
f 126/126/126 125/125/125 128/128/128
f 128/128/128 125/125/125 129/129/129
f 130/130/130 128/128/128 129/129/129
f 127/127/127 126/126/126 131/131/131
f 128/128/128 131/131/131 126/126/126
f 127/127/127 131/131/131 132/132/132
f 133/133/133 132/132/132 131/131/131
f 130/130/130 134/134/134 128/128/128
f 128/128/128 134/134/134 131/131/131
f 134/134/134 133/133/133 131/131/131
f 130/130/130 135/135/135 134/134/134
f 134/134/134 135/135/135 133/133/133
f 120/120/120 121/121/121 136/136/136
f 137/137/137 120/120/120 136/136/136
f 137/137/137 136/136/136 138/138/138
f 139/139/139 137/137/137 138/138/138
f 139/139/139 138/138/138 140/140/140
f 141/141/141 139/139/139 140/140/140
f 139/139/139 141/141/141 142/142/142
f 141/141/141 140/140/140 143/143/143
f 140/140/140 144/144/144 143/143/143
f 145/145/145 143/143/143 144/144/144
f 142/142/142 141/141/141 146/146/146
f 146/146/146 141/141/141 143/143/143
f 142/142/142 146/146/146 147/147/147
f 147/147/147 146/146/146 148/148/148
f 145/145/145 149/149/149 143/143/143
f 146/146/146 143/143/143 149/149/149
f 148/148/148 146/146/146 149/149/149
f 149/149/149 145/145/145 150/150/150
f 148/148/148 149/149/149 150/150/150
f 151/151/151 136/136/136 121/121/121
f 151/151/151 121/121/121 152/152/152
f 152/152/152 121/121/121 153/153/153
f 154/154/154 136/136/136 151/151/151
f 154/154/154 155/155/155 136/136/136
f 156/156/156 155/155/155 154/154/154
f 156/156/156 157/157/157 155/155/155
f 154/154/154 158/158/158 156/156/156
f 154/154/154 159/159/159 158/158/158
f 151/151/151 159/159/159 154/154/154
f 159/159/159 160/160/160 158/158/158
f 159/159/159 161/161/161 160/160/160
f 151/151/151 162/162/162 159/159/159
f 162/162/162 161/161/161 159/159/159
f 152/152/152 162/162/162 151/151/151
f 162/162/162 163/163/163 161/161/161
f 164/164/164 163/163/163 162/162/162
f 152/152/152 164/164/164 162/162/162
f 164/164/164 165/165/165 163/163/163
f 152/152/152 153/153/153 166/166/166
f 166/166/166 164/164/164 152/152/152
f 166/166/166 153/153/153 167/167/167
f 166/166/166 167/167/167 168/168/168
f 169/169/169 165/165/165 164/164/164
f 166/166/166 169/169/169 164/164/164
f 168/168/168 169/169/169 166/166/166
f 169/169/169 170/170/170 165/165/165
f 168/168/168 171/171/171 169/169/169
f 171/171/171 170/170/170 169/169/169
f 171/171/171 172/172/172 170/170/170
