v -0.106119 -0.008199779 -0.06701422
v -0.106119 0.008202503 -0.06701422
v -0.1060774 0.01253379 -0.0420304
v -0.1060774 -0.01253106 -0.0420304
v -0.106054 0.01493804 -0.01400672
v -0.106054 -0.01493524 -0.01400672
v -0.106054 0.01493804 0.01401727
v -0.106054 -0.01493524 0.01401727
v -0.1060774 0.01253379 0.04204094
v -0.1060774 -0.01253106 0.04204094
v -0.106119 0.008202503 0.06702477
v -0.106119 -0.008199779 0.06702477
v -0.109094 -0.01797525 0.01401727
v -0.109094 -0.01797525 -0.01400641
v -0.1060774 -0.01253106 -0.0420304
v -0.1091174 -0.015571 0.04204094
v -0.1060774 -0.01253106 0.04204094
v -0.1091174 -0.015571 -0.0420304
v -0.106119 -0.008199779 -0.06701422
v -0.1091591 -0.01127656 -0.06705786
v -0.1233899 -0.01127657 -0.06705786
v -0.1289587 -0.01557085 -0.0420304
v -0.132037 -0.0179751 -0.01400641
v -0.1319987 -0.01253092 -0.0420304
v -0.1264944 -0.008189561 -0.06708502
v -0.135077 -0.01493509 -0.01400641
v -0.132037 -0.01797525 0.01401727
v -0.1091591 -0.01127671 0.06706841
v -0.106119 -0.008199779 0.06702477
v -0.1289587 -0.01557108 0.04204094
v -0.1233899 -0.01127672 0.06706841
v -0.1264944 -0.008189714 0.06709557
v -0.1319987 -0.01253107 0.04204094
v -0.135077 -0.01493524 0.01401727
v -0.135077 0.01493818 -0.01400641
v -0.1319987 0.01253393 -0.0420304
v -0.1319987 -0.01253092 -0.0420304
v -0.1264944 0.008192503 -0.06708502
v -0.1264944 -0.008189561 -0.06708502
v -0.1228021 0.007725433 -0.07005408
v -0.1233899 0.01127959 -0.06705786
v -0.1228021 -0.007722489 -0.07005408
v -0.1233899 -0.01127657 -0.06705786
v -0.1091591 -0.01127656 -0.06705786
v -0.1091641 0.007725437 -0.07005408
v -0.1091591 0.01127959 -0.06705786
v -0.106119 0.008202503 -0.06701422
v -0.1091641 -0.007722409 -0.07005408
v -0.106119 -0.008199779 -0.06701422
v -0.135077 0.01493803 0.01401727
v -0.1319987 -0.01253107 0.04204094
v -0.1319987 0.01253378 0.04204094
v -0.1264944 -0.008189714 0.06709557
v -0.1264944 0.008192351 0.06709557
v -0.1228021 -0.007722565 0.07006463
v -0.1233899 -0.01127672 0.06706841
v -0.1228021 0.00772528 0.07006463
v -0.1233899 0.01127943 0.06706841
v -0.1091591 0.01127944 0.06706841
v -0.1091641 -0.007722561 0.07006463
v -0.1091591 -0.01127671 0.06706841
v -0.106119 -0.008199779 0.06702477
v -0.1091641 0.007725284 0.07006463
v -0.106119 0.008202503 0.06702477
v -0.132037 0.01797796 0.01401727
v -0.132037 0.01797812 -0.01400641
v -0.1319987 0.01253393 -0.0420304
v -0.1289587 0.01557379 0.04204094
v -0.1319987 0.01253378 0.04204094
v -0.1233899 0.01127943 0.06706841
v -0.1264944 0.008192351 0.06709557
v -0.1091591 0.01127944 0.06706841
v -0.1091174 0.01557379 0.04204094
v -0.106119 0.008202503 0.06702477
v -0.1060774 0.01253379 0.04204094
v -0.109094 0.01797797 0.01401727
v -0.106054 0.01493804 0.01401727
v -0.109094 0.01797797 -0.01400672
v -0.106054 0.01493804 -0.01400672
v -0.1289587 0.01557394 -0.0420304
v -0.1264944 0.008192503 -0.06708502
v -0.1233899 0.01127959 -0.06705786
v -0.1091174 0.01557379 -0.0420304
v -0.1060774 0.01253379 -0.0420304
v -0.1091591 0.01127959 -0.06705786
v -0.106119 0.008202503 -0.06701422
v 0.07689662 -0.008199883 0.06702507
v 0.07689665 0.008202399 0.06702507
v 0.07685499 0.01253368 0.04204125
v 0.07685498 -0.01253117 0.04204125
v 0.07683166 0.01493793 0.01401757
v 0.07683166 -0.01493534 0.01401757
v 0.07683165 0.01493793 -0.01400641
v 0.07683165 -0.01493534 -0.01400641
v 0.07685499 0.01253368 -0.0420301
v 0.07685502 -0.01253117 -0.0420301
v 0.07689662 0.008202399 -0.06701391
v 0.07689663 -0.008199883 -0.06701391
v 0.07987164 -0.01797535 -0.01400641
v 0.07987167 -0.01797535 0.01401727
v 0.07685498 -0.01253117 0.04204125
v 0.079895 -0.0155711 -0.0420301
v 0.07685502 -0.01253117 -0.0420301
v 0.079895 -0.0155711 0.04204125
v 0.07689662 -0.008199883 0.06702507
v 0.07993671 -0.01127666 0.06706871
v 0.09416751 -0.01127666 0.06706871
v 0.09973633 -0.01557094 0.04204125
v 0.1028147 -0.01797519 0.01401727
v 0.1027763 -0.01253101 0.04204125
v 0.09727204 -0.008189654 0.06709588
v 0.1058547 -0.01493518 0.01401727
v 0.1028146 -0.01797534 -0.01400641
v 0.07993671 -0.01127682 -0.06705756
v 0.07689663 -0.008199883 -0.06701391
v 0.09973633 -0.01557117 -0.0420301
v 0.0941675 -0.01127681 -0.06705756
v 0.097272 -0.008189807 -0.06708471
v 0.1027763 -0.01253116 -0.0420301
v 0.1058547 -0.01493533 -0.01400641
v 0.1058546 0.01493809 0.01401727
v 0.1027763 0.01253384 0.04204125
v 0.1027763 -0.01253101 0.04204125
v 0.09727203 0.008192411 0.06709588
v 0.09727204 -0.008189654 0.06709588
v 0.0935797 0.007725338 0.07006493
v 0.0941675 0.01127949 0.06706871
v 0.09357972 -0.007722584 0.07006493
v 0.09416751 -0.01127666 0.06706871
v 0.07993671 -0.01127666 0.06706871
v 0.0799417 0.007725334 0.07006493
v 0.07993672 0.01127949 0.06706871
v 0.07689665 0.008202399 0.06702507
v 0.07994172 -0.007722511 0.07006493
v 0.07689662 -0.008199883 0.06702507
v 0.1058546 0.01493794 -0.01400641
v 0.1027763 -0.01253116 -0.0420301
v 0.1027763 0.01253369 -0.0420301
v 0.097272 -0.008189807 -0.06708471
v 0.09727199 0.008192258 -0.06708471
v 0.09357969 -0.00772266 -0.07005377
v 0.0941675 -0.01127681 -0.06705756
v 0.09357971 0.007725185 -0.07005377
v 0.09416752 0.01127934 -0.06705756
v 0.07993671 0.01127933 -0.06705756
v 0.0799417 -0.007722664 -0.07005377
v 0.07993671 -0.01127682 -0.06705756
v 0.07689663 -0.008199883 -0.06701391
v 0.0799417 0.007725182 -0.07005377
v 0.07689662 0.008202399 -0.06701391
v 0.1028146 0.01797787 -0.01400641
v 0.1028147 0.01797803 0.01401727
v 0.1027763 0.01253384 0.04204125
v 0.09973633 0.0155737 -0.0420301
v 0.1027763 0.01253369 -0.0420301
v 0.09416752 0.01127934 -0.06705756
v 0.09727199 0.008192258 -0.06708471
v 0.07993671 0.01127933 -0.06705756
v 0.079895 0.01557369 -0.0420301
v 0.07689662 0.008202399 -0.06701391
v 0.07685499 0.01253368 -0.0420301
v 0.07987163 0.01797787 -0.01400641
v 0.07683165 0.01493793 -0.01400641
v 0.07987165 0.01797787 0.01401757
v 0.07683166 0.01493793 0.01401757
v 0.09973633 0.01557385 0.04204125
v 0.09727203 0.008192411 0.06709588
v 0.0941675 0.01127949 0.06706871
v 0.079895 0.01557369 0.04204125
v 0.07685499 0.01253368 0.04204125
v 0.07993672 0.01127949 0.06706871
v 0.07689665 0.008202399 0.06702507
vt 0.4024483 0.6832246
vt 0.4052517 0.6832246
vt 0.4059917 0.6749275
vt 0.401708 0.6749275
vt 0.4064023 0.6656164
vt 0.4012962 0.6656273
vt 0.4064023 0.6562998
vt 0.4012962 0.6562898
vt 0.4059917 0.646988
vt 0.401708 0.646988
vt 0.4052517 0.6386904
vt 0.4024483 0.6386904
vt 0.4005613 0.656324
vt 0.4005615 0.6655945
vt 0.4012801 0.6750321
vt 0.4005478 0.6470135
vt 0.4012783 0.6468859
vt 0.4005493 0.6749051
vt 0.4012668 0.6834804
vt 0.4005297 0.6833258
vt 0.398091 0.6833092
vt 0.39716 0.6748869
vt 0.3966397 0.6655889
vt 0.3964336 0.6750702
vt 0.397351 0.6835633
vt 0.3959042 0.6656409
vt 0.3966395 0.6563315
vt 0.4005268 0.6385928
vt 0.4012639 0.6384377
vt 0.3971584 0.6470335
vt 0.3980881 0.6386105
vt 0.397348 0.6383572
vt 0.3964318 0.6468508
vt 0.3959042 0.6562802
vt 0.3907954 0.6656405
vt 0.3912067 0.6750107
vt 0.3954904 0.6750107
vt 0.3919201 0.6835328
vt 0.3947742 0.6835397
vt 0.3920501 0.6850304
vt 0.3913015 0.6846788
vt 0.3946379 0.6850411
vt 0.3953877 0.6846991
vt 0.3953855 0.6896368
vt 0.3920444 0.6894547
vt 0.3912868 0.6896157
vt 0.391879 0.6907901
vt 0.3946288 0.6894674
vt 0.3947898 0.6908047
vt 0.3907954 0.6562805
vt 0.3954907 0.6469108
vt 0.3912068 0.6469108
vt 0.3947744 0.6383818
vt 0.3919204 0.6383892
vt 0.3946383 0.6368806
vt 0.395388 0.6372226
vt 0.3920506 0.6368915
vt 0.391302 0.6372432
vt 0.3912869 0.6323066
vt 0.3946289 0.6324543
vt 0.3953857 0.6322847
vt 0.3947899 0.631117
vt 0.3920446 0.6324673
vt 0.3918791 0.6311322
vt 0.3900608 0.656332
vt 0.3900609 0.665589
vt 0.3902723 0.6750697
vt 0.3895453 0.6470332
vt 0.3902719 0.6468513
vt 0.3886192 0.6386086
vt 0.3893593 0.6383564
vt 0.3861805 0.6385872
vt 0.3861563 0.6470084
vt 0.3854435 0.638431
vt 0.3854258 0.646879
vt 0.3861396 0.6563224
vt 0.3854056 0.6562774
vt 0.3861397 0.6655996
vt 0.3854057 0.6656449
vt 0.3895458 0.6748879
vt 0.38936 0.6835647
vt 0.3886199 0.6833124
vt 0.3861567 0.6749136
vt 0.3854264 0.6750429
vt 0.3861814 0.6833346
vt 0.3854444 0.683491
vt 0.4024483 0.6832246
vt 0.4052517 0.6832246
vt 0.4059917 0.6749275
vt 0.401708 0.6749275
vt 0.4064023 0.6656164
vt 0.4012962 0.6656273
vt 0.4064023 0.6562998
vt 0.4012962 0.6562898
vt 0.4059917 0.646988
vt 0.401708 0.646988
vt 0.4052517 0.6386904
vt 0.4024483 0.6386904
vt 0.4005613 0.656324
vt 0.4005615 0.6655945
vt 0.4012801 0.6750321
vt 0.4005478 0.6470135
vt 0.4012783 0.6468859
vt 0.4005493 0.6749051
vt 0.4012668 0.6834804
vt 0.4005297 0.6833258
vt 0.398091 0.6833092
vt 0.39716 0.6748869
vt 0.3966397 0.6655889
vt 0.3964336 0.6750702
vt 0.397351 0.6835633
vt 0.3959042 0.6656409
vt 0.3966395 0.6563315
vt 0.4005268 0.6385928
vt 0.4012639 0.6384377
vt 0.3971584 0.6470335
vt 0.3980881 0.6386105
vt 0.397348 0.6383572
vt 0.3964318 0.6468508
vt 0.3959042 0.6562802
vt 0.3907954 0.6656405
vt 0.3912067 0.6750107
vt 0.3954904 0.6750107
vt 0.3919201 0.6835328
vt 0.3947742 0.6835397
vt 0.3920501 0.6850304
vt 0.3913015 0.6846788
vt 0.3946379 0.6850411
vt 0.3953877 0.6846991
vt 0.3953855 0.6896368
vt 0.3920444 0.6894547
vt 0.3912868 0.6896157
vt 0.391879 0.6907901
vt 0.3946288 0.6894674
vt 0.3947898 0.6908047
vt 0.3907954 0.6562805
vt 0.3954907 0.6469108
vt 0.3912068 0.6469108
vt 0.3947744 0.6383818
vt 0.3919204 0.6383892
vt 0.3946383 0.6368806
vt 0.395388 0.6372226
vt 0.3920506 0.6368915
vt 0.391302 0.6372432
vt 0.3912869 0.6323066
vt 0.3946289 0.6324543
vt 0.3953857 0.6322847
vt 0.3947899 0.631117
vt 0.3920446 0.6324673
vt 0.3918791 0.6311322
vt 0.3900608 0.656332
vt 0.3900609 0.665589
vt 0.3902723 0.6750697
vt 0.3895453 0.6470332
vt 0.3902719 0.6468513
vt 0.3886192 0.6386086
vt 0.3893593 0.6383564
vt 0.3861805 0.6385872
vt 0.3861563 0.6470084
vt 0.3854435 0.638431
vt 0.3854258 0.646879
vt 0.3861396 0.6563224
vt 0.3854056 0.6562774
vt 0.3861397 0.6655996
vt 0.3854057 0.6656449
vt 0.3895458 0.6748879
vt 0.38936 0.6835647
vt 0.3886199 0.6833124
vt 0.3861567 0.6749136
vt 0.3854264 0.6750429
vt 0.3861814 0.6833346
vt 0.3854444 0.683491
vn 0.9230868 -0.3787351 -0.06686059
vn 0.9999987 3.813142E-07 -0.001666286
vn 0.9999993 4.106142E-07 -0.001249513
vn 0.923426 -0.3804778 -0.05020994
vn 1 5.127352E-07 -0.0004167948
vn 0.9238232 -0.3824519 -0.01677525
vn 1 5.561234E-07 0.0004161567
vn 0.9238234 -0.3824512 0.01677467
vn 0.9999993 6.264776E-07 0.001249678
vn 0.9234273 -0.3804745 0.05020917
vn 0.9999987 7.262647E-07 0.001666191
vn 0.9230892 -0.3787299 0.06685863
vn 0.3825519 -0.9230807 0.03969702
vn 0.3825493 -0.9230819 -0.039699
vn 0.923426 -0.3804778 -0.05020994
vn 0.3816608 -0.9166863 0.1184114
vn 0.9234273 -0.3804745 0.05020917
vn 0.381654 -0.9166889 -0.118413
vn 0.9230868 -0.3787351 -0.06686059
vn 0.3809052 -0.9111339 -0.157309
vn -4.153436E-06 -0.9855964 -0.1691148
vn -5.502136E-06 -0.9918501 -0.1274102
vn -4.954587E-06 -0.9990846 -0.04278002
vn -0.9867721 -1.204224E-07 -0.1621137
vn -0.9767073 -1.4799E-07 -0.2145757
vn -0.9985042 0 -0.05467598
vn -5.094778E-07 -0.9990847 0.04277685
vn 0.3809136 -0.911131 0.1573062
vn 0.9230892 -0.3787299 0.06685863
vn 2.256018E-06 -0.9918503 0.1274087
vn 2.466994E-06 -0.9855967 0.1691127
vn -0.9767073 0 0.2145758
vn -0.986772 0 0.1621142
vn -0.998504 0 0.05467711
vn -0.9985042 0 -0.05467598
vn -0.9867721 -1.204224E-07 -0.1621137
vn -0.9867721 -1.204224E-07 -0.1621137
vn -0.9767073 -1.4799E-07 -0.2145757
vn -0.9767073 -1.4799E-07 -0.2145757
vn 0 0 -1
vn 4.146551E-06 0.985597 -0.1691109
vn 0 0 -1
vn -4.153436E-06 -0.9855964 -0.1691148
vn 0.3809052 -0.9111339 -0.157309
vn 0 0 -1
vn 4.146551E-06 0.985597 -0.1691109
vn 0.9999987 3.813142E-07 -0.001666286
vn 0 0 -1
vn 0.9230868 -0.3787351 -0.06686059
vn -0.998504 0 0.05467711
vn -0.986772 0 0.1621142
vn -0.986772 0 0.1621142
vn -0.9767073 0 0.2145758
vn -0.9767073 0 0.2145758
vn 0 0 1
vn 2.466994E-06 -0.9855967 0.1691127
vn 0 0 1
vn -2.624802E-07 0.9855964 0.1691144
vn -2.624802E-07 0.9855964 0.1691144
vn 0 0 1
vn 0.3809136 -0.911131 0.1573062
vn 0.9230892 -0.3787299 0.06685863
vn 0 0 1
vn 0.9999987 7.262647E-07 0.001666191
vn 1.398145E-06 0.9990846 0.04277894
vn 4.649105E-06 0.9990847 -0.04277582
vn -0.9867721 -1.204224E-07 -0.1621137
vn -2.641457E-07 0.9918502 0.1274089
vn -0.986772 0 0.1621142
vn -2.624802E-07 0.9855964 0.1691144
vn -0.9767073 0 0.2145758
vn -2.624802E-07 0.9855964 0.1691144
vn -2.641457E-07 0.9918502 0.1274089
vn 0.9999987 7.262647E-07 0.001666191
vn 0.9999993 6.264776E-07 0.001249678
vn 1.398145E-06 0.9990846 0.04277894
vn 1 5.561234E-07 0.0004161567
vn 4.649105E-06 0.9990847 -0.04277582
vn 1 5.127352E-07 -0.0004167948
vn 5.193207E-06 0.9918506 -0.1274068
vn -0.9767073 -1.4799E-07 -0.2145757
vn 4.146551E-06 0.985597 -0.1691109
vn 5.193207E-06 0.9918506 -0.1274068
vn 0.9999993 4.106142E-07 -0.001249513
vn 4.146551E-06 0.985597 -0.1691109
vn 0.9999987 3.813142E-07 -0.001666286
vn -0.9999987 8.83624E-07 0.001666764
vn -0.9999987 8.83624E-07 0.001666764
vn -0.9999993 5.690437E-07 0.001249496
vn -0.9999993 5.690437E-07 0.001249496
vn -1 1.536936E-07 0.0004164545
vn -1 1.536936E-07 0.0004164545
vn -1 -1.934952E-07 -0.0004164545
vn -1 -1.934952E-07 -0.0004164545
vn -0.9999993 -6.980879E-07 -0.001249604
vn -0.9999993 -6.980879E-07 -0.001249604
vn -0.9999987 -9.562616E-07 -0.001665619
vn -0.9999987 -9.562616E-07 -0.001665619
vn 1.041622E-06 -0.9990847 -0.04277686
vn 5.486731E-06 -0.9990846 0.04278002
vn -0.9999993 5.690437E-07 0.001249496
vn -1.727728E-06 -0.9918503 -0.1274087
vn -0.9999993 -6.980879E-07 -0.001249604
vn 6.026981E-06 -0.9918501 0.1274102
vn -0.9999987 8.83624E-07 0.001666764
vn 4.671511E-06 -0.9855964 0.1691148
vn 4.671511E-06 -0.9855964 0.1691148
vn 6.026981E-06 -0.9918501 0.1274102
vn 5.486731E-06 -0.9990846 0.04278002
vn 0.9867722 2.627933E-07 0.1621131
vn 0.9767075 2.60113E-07 0.2145749
vn 0.9985042 2.659177E-07 0.05467615
vn 1.041622E-06 -0.9990847 -0.04277686
vn -1.942036E-06 -0.9855967 -0.1691127
vn -0.9999987 -9.562616E-07 -0.001665619
vn -1.727728E-06 -0.9918503 -0.1274087
vn -1.942036E-06 -0.9855967 -0.1691127
vn 0.9767072 2.601129E-07 -0.2145763
vn 0.986772 2.627933E-07 -0.1621144
vn 0.9985042 2.659177E-07 -0.05467673
vn 0.9985042 2.659177E-07 0.05467615
vn 0.9867722 2.627933E-07 0.1621131
vn 0.9867722 2.627933E-07 0.1621131
vn 0.9767075 2.60113E-07 0.2145749
vn 0.9767075 2.60113E-07 0.2145749
vn 0 0 1
vn -4.671516E-06 0.9855971 0.1691109
vn 0 0 1
vn 4.671511E-06 -0.9855964 0.1691148
vn 4.671511E-06 -0.9855964 0.1691148
vn 0 0 1
vn -4.671516E-06 0.9855971 0.1691109
vn -0.9999987 8.83624E-07 0.001666764
vn 0 0 1
vn -0.9999987 8.83624E-07 0.001666764
vn 0.9985042 2.659177E-07 -0.05467673
vn 0.986772 2.627933E-07 -0.1621144
vn 0.986772 2.627933E-07 -0.1621144
vn 0.9767072 2.601129E-07 -0.2145763
vn 0.9767072 2.601129E-07 -0.2145763
vn 0 0 -1
vn -1.942036E-06 -0.9855967 -0.1691127
vn 0 0 -1
vn -2.624802E-07 0.9855964 -0.1691143
vn -2.624802E-07 0.9855964 -0.1691143
vn 0 0 -1
vn -1.942036E-06 -0.9855967 -0.1691127
vn -0.9999987 -9.562616E-07 -0.001665619
vn 0 0 -1
vn -0.9999987 -9.562616E-07 -0.001665619
vn -1.930289E-06 0.9990846 -0.04277894
vn -5.181248E-06 0.9990847 0.04277581
vn 0.9867722 2.627933E-07 0.1621131
vn -2.641457E-07 0.9918503 -0.1274089
vn 0.986772 2.627933E-07 -0.1621144
vn -2.624802E-07 0.9855964 -0.1691143
vn 0.9767072 2.601129E-07 -0.2145763
vn -2.624802E-07 0.9855964 -0.1691143
vn -2.641457E-07 0.9918503 -0.1274089
vn -0.9999987 -9.562616E-07 -0.001665619
vn -0.9999993 -6.980879E-07 -0.001249604
vn -1.930289E-06 0.9990846 -0.04277894
vn -1 -1.934952E-07 -0.0004164545
vn -5.181248E-06 0.9990847 0.04277581
vn -1 1.536936E-07 0.0004164545
vn -5.721499E-06 0.9918506 0.1274068
vn 0.9767075 2.60113E-07 0.2145749
vn -4.671516E-06 0.9855971 0.1691109
vn -5.721499E-06 0.9918506 0.1274068
vn -0.9999993 5.690437E-07 0.001249496
vn -4.671516E-06 0.9855971 0.1691109
vn -0.9999987 8.83624E-07 0.001666764
f 1/1/1 2/2/2 3/3/3
f 1/1/1 3/3/3 4/4/4
f 4/4/4 3/3/3 5/5/5
f 4/4/4 5/5/5 6/6/6
f 6/6/6 5/5/5 7/7/7
f 6/6/6 7/7/7 8/8/8
f 8/8/8 7/7/7 9/9/9
f 8/8/8 9/9/9 10/10/10
f 10/10/10 9/9/9 11/11/11
f 10/10/10 11/11/11 12/12/12
f 13/13/13 6/6/6 8/8/8
f 13/13/13 14/14/14 6/6/6
f 14/14/14 15/15/15 6/6/6
f 16/16/16 13/13/13 8/8/8
f 16/16/16 8/8/8 17/17/17
f 14/14/14 18/18/18 15/15/15
f 18/18/18 19/19/19 15/15/15
f 18/18/18 20/20/20 19/19/19
f 21/21/21 20/20/20 18/18/18
f 22/22/22 18/18/18 14/14/14
f 21/21/21 18/18/18 22/22/22
f 23/23/23 14/14/14 13/13/13
f 22/22/22 14/14/14 23/23/23
f 21/21/21 22/22/22 24/24/24
f 21/21/21 24/24/24 25/25/25
f 22/22/22 26/26/26 24/24/24
f 22/22/22 23/23/23 26/26/26
f 23/23/23 13/13/13 27/27/27
f 27/27/27 13/13/13 16/16/16
f 28/28/28 16/16/16 17/17/17
f 28/28/28 17/17/17 29/29/29
f 30/30/30 16/16/16 28/28/28
f 27/27/27 16/16/16 30/30/30
f 30/30/30 28/28/28 31/31/31
f 30/30/30 31/31/31 32/32/32
f 30/30/30 32/32/32 33/33/33
f 27/27/27 30/30/30 33/33/33
f 27/27/27 33/33/33 34/34/34
f 23/23/23 27/27/27 34/34/34
f 23/23/23 34/34/34 26/26/26
f 34/34/34 35/35/35 26/26/26
f 26/26/26 35/35/35 36/36/36
f 26/26/26 36/36/36 37/37/37
f 37/37/37 36/36/36 38/38/38
f 37/37/37 38/38/38 39/39/39
f 40/40/40 39/39/39 38/38/38
f 40/40/40 38/38/38 41/41/41
f 40/40/40 42/42/42 39/39/39
f 42/42/42 43/43/43 39/39/39
f 44/44/44 43/43/43 42/42/42
f 41/41/41 45/45/45 40/40/40
f 42/42/42 40/40/40 45/45/45
f 41/41/41 46/46/46 45/45/45
f 47/47/47 45/45/45 46/46/46
f 44/44/44 42/42/42 48/48/48
f 42/42/42 45/45/45 48/48/48
f 48/48/48 45/45/45 47/47/47
f 44/44/44 48/48/48 49/49/49
f 48/48/48 47/47/47 49/49/49
f 34/34/34 50/50/50 35/35/35
f 51/51/51 50/50/50 34/34/34
f 51/51/51 52/52/52 50/50/50
f 53/53/53 52/52/52 51/51/51
f 53/53/53 54/54/54 52/52/52
f 55/55/55 54/54/54 53/53/53
f 53/53/53 56/56/56 55/55/55
f 55/55/55 57/57/57 54/54/54
f 54/54/54 57/57/57 58/58/58
f 59/59/59 58/58/58 57/57/57
f 56/56/56 60/60/60 55/55/55
f 60/60/60 57/57/57 55/55/55
f 56/56/56 61/61/61 60/60/60
f 61/61/61 62/62/62 60/60/60
f 59/59/59 57/57/57 63/63/63
f 60/60/60 63/63/63 57/57/57
f 62/62/62 63/63/63 60/60/60
f 63/63/63 64/64/64 59/59/59
f 62/62/62 64/64/64 63/63/63
f 65/65/65 35/35/35 50/50/50
f 65/65/65 66/66/66 35/35/35
f 66/66/66 67/67/67 35/35/35
f 68/68/68 65/65/65 50/50/50
f 68/68/68 50/50/50 69/69/69
f 70/70/70 68/68/68 69/69/69
f 70/70/70 69/69/69 71/71/71
f 68/68/68 70/70/70 72/72/72
f 68/68/68 72/72/72 73/73/73
f 65/65/65 68/68/68 73/73/73
f 73/73/73 72/72/72 74/74/74
f 73/73/73 74/74/74 75/75/75
f 65/65/65 73/73/73 76/76/76
f 76/76/76 73/73/73 75/75/75
f 66/66/66 65/65/65 76/76/76
f 76/76/76 75/75/75 77/77/77
f 78/78/78 76/76/76 77/77/77
f 66/66/66 76/76/76 78/78/78
f 78/78/78 77/77/77 79/79/79
f 80/80/80 66/66/66 78/78/78
f 66/66/66 80/80/80 67/67/67
f 80/80/80 81/81/81 67/67/67
f 80/80/80 82/82/82 81/81/81
f 83/83/83 78/78/78 79/79/79
f 80/80/80 78/78/78 83/83/83
f 82/82/82 80/80/80 83/83/83
f 83/83/83 79/79/79 84/84/84
f 82/82/82 83/83/83 85/85/85
f 85/85/85 83/83/83 84/84/84
f 85/85/85 84/84/84 86/86/86
f 87/87/87 88/88/88 89/89/89
f 87/87/87 89/89/89 90/90/90
f 90/90/90 89/89/89 91/91/91
f 90/90/90 91/91/91 92/92/92
f 92/92/92 91/91/91 93/93/93
f 92/92/92 93/93/93 94/94/94
f 94/94/94 93/93/93 95/95/95
f 94/94/94 95/95/95 96/96/96
f 96/96/96 95/95/95 97/97/97
f 96/96/96 97/97/97 98/98/98
f 99/99/99 92/92/92 94/94/94
f 99/99/99 100/100/100 92/92/92
f 100/100/100 101/101/101 92/92/92
f 102/102/102 99/99/99 94/94/94
f 102/102/102 94/94/94 103/103/103
f 100/100/100 104/104/104 101/101/101
f 104/104/104 105/105/105 101/101/101
f 104/104/104 106/106/106 105/105/105
f 107/107/107 106/106/106 104/104/104
f 108/108/108 104/104/104 100/100/100
f 107/107/107 104/104/104 108/108/108
f 109/109/109 100/100/100 99/99/99
f 108/108/108 100/100/100 109/109/109
f 107/107/107 108/108/108 110/110/110
f 107/107/107 110/110/110 111/111/111
f 108/108/108 112/112/112 110/110/110
f 108/108/108 109/109/109 112/112/112
f 109/109/109 99/99/99 113/113/113
f 113/113/113 99/99/99 102/102/102
f 114/114/114 102/102/102 103/103/103
f 114/114/114 103/103/103 115/115/115
f 116/116/116 102/102/102 114/114/114
f 113/113/113 102/102/102 116/116/116
f 116/116/116 114/114/114 117/117/117
f 116/116/116 117/117/117 118/118/118
f 116/116/116 118/118/118 119/119/119
f 113/113/113 116/116/116 119/119/119
f 113/113/113 119/119/119 120/120/120
f 109/109/109 113/113/113 120/120/120
f 109/109/109 120/120/120 112/112/112
f 120/120/120 121/121/121 112/112/112
f 112/112/112 121/121/121 122/122/122
f 112/112/112 122/122/122 123/123/123
f 123/123/123 122/122/122 124/124/124
f 123/123/123 124/124/124 125/125/125
f 126/126/126 125/125/125 124/124/124
f 126/126/126 124/124/124 127/127/127
f 126/126/126 128/128/128 125/125/125
f 128/128/128 129/129/129 125/125/125
f 130/130/130 129/129/129 128/128/128
f 127/127/127 131/131/131 126/126/126
f 128/128/128 126/126/126 131/131/131
f 127/127/127 132/132/132 131/131/131
f 133/133/133 131/131/131 132/132/132
f 130/130/130 128/128/128 134/134/134
f 128/128/128 131/131/131 134/134/134
f 134/134/134 131/131/131 133/133/133
f 130/130/130 134/134/134 135/135/135
f 134/134/134 133/133/133 135/135/135
f 120/120/120 136/136/136 121/121/121
f 137/137/137 136/136/136 120/120/120
f 137/137/137 138/138/138 136/136/136
f 139/139/139 138/138/138 137/137/137
f 139/139/139 140/140/140 138/138/138
f 141/141/141 140/140/140 139/139/139
f 139/139/139 142/142/142 141/141/141
f 141/141/141 143/143/143 140/140/140
f 140/140/140 143/143/143 144/144/144
f 145/145/145 144/144/144 143/143/143
f 142/142/142 146/146/146 141/141/141
f 146/146/146 143/143/143 141/141/141
f 142/142/142 147/147/147 146/146/146
f 147/147/147 148/148/148 146/146/146
f 145/145/145 143/143/143 149/149/149
f 146/146/146 149/149/149 143/143/143
f 148/148/148 149/149/149 146/146/146
f 149/149/149 150/150/150 145/145/145
f 148/148/148 150/150/150 149/149/149
f 151/151/151 121/121/121 136/136/136
f 151/151/151 152/152/152 121/121/121
f 152/152/152 153/153/153 121/121/121
f 154/154/154 151/151/151 136/136/136
f 154/154/154 136/136/136 155/155/155
f 156/156/156 154/154/154 155/155/155
f 156/156/156 155/155/155 157/157/157
f 154/154/154 156/156/156 158/158/158
f 154/154/154 158/158/158 159/159/159
f 151/151/151 154/154/154 159/159/159
f 159/159/159 158/158/158 160/160/160
f 159/159/159 160/160/160 161/161/161
f 151/151/151 159/159/159 162/162/162
f 162/162/162 159/159/159 161/161/161
f 152/152/152 151/151/151 162/162/162
f 162/162/162 161/161/161 163/163/163
f 164/164/164 162/162/162 163/163/163
f 152/152/152 162/162/162 164/164/164
f 164/164/164 163/163/163 165/165/165
f 166/166/166 152/152/152 164/164/164
f 152/152/152 166/166/166 153/153/153
f 166/166/166 167/167/167 153/153/153
f 166/166/166 168/168/168 167/167/167
f 169/169/169 164/164/164 165/165/165
f 166/166/166 164/164/164 169/169/169
f 168/168/168 166/166/166 169/169/169
f 169/169/169 165/165/165 170/170/170
f 168/168/168 169/169/169 171/171/171
f 171/171/171 169/169/169 170/170/170
f 171/171/171 170/170/170 172/172/172
