v -0.09103043 0.003740999 -0.1314576
v -0.0903566 -0.0116922 -0.1314576
v -0.0903566 -0.0116922 -0.1178196
v -0.09103043 0.003740999 -0.1178196
v -0.08730957 0.007516176 -0.1178141
v -0.0871051 0.004437715 -0.114774
v -0.0509494 0.01373314 -0.1177691
v -0.0508168 0.01069603 -0.1147292
v -0.08730949 0.007516176 -0.1321004
v -0.01549851 0.01723891 -0.1177501
v -0.0153064 0.01420776 -0.1147101
v -0.0872171 0.004419328 -0.1352185
v -0.0903566 -0.0116922 -0.1314576
v -0.05094932 0.01373306 -0.1381083
v 0.01378052 0.01855849 -0.1177497
v 0.0139724 0.01552069 -0.1147097
v -0.05081673 0.01069603 -0.1411483
v -0.08649865 -0.0120356 -0.1352185
v -0.01549851 0.01723891 -0.1406129
v 0.05015121 0.01814726 -0.1177691
v 0.05028381 0.01511015 -0.1147291
v -0.0153064 0.01420776 -0.1436571
v 0.01378059 0.01855849 -0.1406656
v 0.08691482 0.01512296 -0.117814
v 0.08697952 0.0120384 -0.1147739
v 0.0909507 0.01168645 -0.1178195
v 0.05015129 0.01814726 -0.1381082
v 0.01397247 0.01552069 -0.1437014
v -0.04968972 -0.01511597 -0.1411483
v 0.0869149 0.01512296 -0.1321003
v 0.05028389 0.01511015 -0.1411482
v -0.0133783 -0.01552651 -0.1437014
v 0.08709282 0.01202985 -0.1352184
v 0.09095077 0.01168645 -0.1314575
v 0.0916246 -0.003746742 -0.1314575
v 0.09162453 -0.003746742 -0.1178195
v 0.01590057 -0.0142135 -0.1436571
v 0.0514109 -0.01070177 -0.1411482
v 0.08781128 -0.004425071 -0.1352184
v 0.0916246 -0.003746742 -0.1314575
v 0.0879036 -0.007521994 -0.1321003
v 0.0515435 -0.01373888 -0.1381082
v 0.0879036 -0.007521994 -0.117814
v 0.09162453 -0.003746742 -0.1178195
v 0.0160926 -0.01724473 -0.1406129
v 0.05154342 -0.01373888 -0.1177691
v 0.0876992 -0.004443458 -0.1147739
v -0.01318642 -0.01856431 -0.1406656
v 0.08697952 0.0120384 -0.1147739
v 0.0909507 0.01168645 -0.1178195
v 0.05028381 0.01511015 -0.1147291
v 0.05141082 -0.01070177 -0.1147291
v 0.0139724 0.01552069 -0.1147097
v 0.01609252 -0.01724473 -0.1177501
v 0.01590042 -0.0142135 -0.1147101
v -0.0153064 0.01420776 -0.1147101
v -0.04955712 -0.01815308 -0.1381083
v -0.0131865 -0.01856431 -0.1177497
v -0.01337845 -0.01552651 -0.1147098
v -0.0508168 0.01069603 -0.1147292
v -0.08632081 -0.01512878 -0.1321004
v -0.0903566 -0.0116922 -0.1178196
v -0.04955719 -0.01815308 -0.1177692
v -0.04968979 -0.01511597 -0.1147292
v -0.0871051 0.004437715 -0.114774
v -0.08632081 -0.01512878 -0.1178141
v -0.0863855 -0.01204414 -0.114774
v -0.09103043 0.003740999 -0.1178196
v -0.0910305 0.003740999 0.1204096
v -0.09035676 -0.0116922 0.1067716
v -0.09035669 -0.0116922 0.1204096
v -0.09103058 0.003740999 0.1067716
v -0.08730957 0.007516176 0.1067661
v -0.08710525 0.004437715 0.103726
v -0.0509494 0.01373306 0.1067212
v -0.0508168 0.01069603 0.1036811
v -0.08730957 0.007516176 0.1210524
v -0.01549858 0.01723891 0.1067022
v -0.01530647 0.01420776 0.1036621
v -0.08721717 0.004419328 0.1241705
v -0.09035669 -0.0116922 0.1204096
v -0.05094948 0.01373314 0.1270603
v 0.01378052 0.01855849 0.1067018
v 0.01397232 0.01552069 0.1036618
v -0.05081688 0.01069603 0.1301003
v -0.08649872 -0.0120356 0.1241705
v -0.01549866 0.01723891 0.129565
v 0.05015121 0.01814726 0.1067212
v 0.05028381 0.01511015 0.1036812
v -0.01530655 0.01420776 0.1326092
v 0.01378044 0.01855849 0.1296176
v 0.08691482 0.01512296 0.1067661
v 0.08697952 0.0120384 0.103726
v 0.09095062 0.01168645 0.1067716
v 0.05015121 0.01814726 0.1270603
v 0.01397232 0.01552069 0.1326534
v -0.04968987 -0.01511597 0.1301003
v 0.08691482 0.01512296 0.1210524
v 0.05028381 0.01511015 0.1301003
v -0.01337845 -0.01552651 0.1326534
v 0.08709274 0.01202985 0.1241705
v 0.09095062 0.01168645 0.1204096
v 0.09162445 -0.003746742 0.1204096
v 0.09162445 -0.003746742 0.1067716
v 0.01590042 -0.0142135 0.1326091
v 0.05141075 -0.01070177 0.1301003
v 0.08781113 -0.004425071 0.1241705
v 0.09162445 -0.003746742 0.1204096
v 0.08790351 -0.007521994 0.1210524
v 0.05154334 -0.01373888 0.1270603
v 0.08790351 -0.007521994 0.1067661
v 0.09162445 -0.003746742 0.1067716
v 0.01609252 -0.01724473 0.129565
v 0.05154342 -0.01373888 0.1067211
v 0.08769912 -0.004443458 0.103726
v -0.01318657 -0.01856431 0.1296176
v 0.08697952 0.0120384 0.103726
v 0.09095062 0.01168645 0.1067716
v 0.05028381 0.01511015 0.1036812
v 0.05141082 -0.01070177 0.1036811
v 0.01397232 0.01552069 0.1036618
v 0.01609252 -0.01724473 0.1067022
v 0.01590042 -0.0142135 0.1036621
v -0.01530647 0.01420776 0.1036621
v -0.04955727 -0.01815308 0.1270603
v -0.0131865 -0.01856431 0.1067018
v -0.01337845 -0.01552651 0.1036618
v -0.0508168 0.01069603 0.1036811
v -0.08632088 -0.01512878 0.1210524
v -0.09035676 -0.0116922 0.1067716
v -0.04955719 -0.01815308 0.1067212
v -0.04968979 -0.01511597 0.1036812
v -0.08710525 0.004437715 0.103726
v -0.08632096 -0.01512878 0.1067661
v -0.0863855 -0.01204414 0.103726
v -0.09103058 0.003740999 0.1067716
vt 0.2223263 0.09378614
vt 0.2292077 0.09448936
vt 0.2300506 0.08844887
vt 0.2232408 0.08724491
vt 0.2209636 0.08666683
vt 0.2216308 0.08499529
vt 0.2048953 0.08157836
vt 0.205226 0.07977465
vt 0.2199434 0.09277425
vt 0.1883085 0.07956499
vt 0.1883508 0.07772582
vt 0.2201215 0.09456611
vt 0.2225762 0.1024606
vt 0.2035773 0.09025665
vt 0.1743759 0.0801651
vt 0.1741377 0.07835469
vt 0.2037823 0.09180641
vt 0.2202157 0.1017417
vt 0.1880566 0.08951154
vt 0.1576921 0.08354061
vt 0.1572213 0.08176287
vt 0.188103 0.09109589
vt 0.1754181 0.09006412
vt 0.1420299 0.08972359
vt 0.1412351 0.08811013
vt 0.139799 0.09047063
vt 0.1596762 0.09212049
vt 0.17542 0.09164393
vt 0.2038178 0.1029958
vt 0.1435174 0.09571715
vt 0.1596185 0.09371598
vt 0.1881986 0.1040608
vt 0.1435051 0.09747992
vt 0.1412316 0.09691069
vt 0.1344317 0.09816995
vt 0.1331038 0.092217
vt 0.1757884 0.1046033
vt 0.1603757 0.1048812
vt 0.1439082 0.1046502
vt 0.141634 0.1055884
vt 0.1439714 0.1064953
vt 0.1604401 0.1064079
vt 0.1436579 0.1126973
vt 0.1414628 0.1132663
vt 0.1758132 0.1061367
vt 0.1599387 0.1151322
vt 0.1436586 0.1144511
vt 0.1882204 0.1055917
vt 0.1420489 0.1215518
vt 0.1398247 0.1205282
vt 0.158225 0.1280222
vt 0.1600169 0.116785
vt 0.1758868 0.1308362
vt 0.1758651 0.1160156
vt 0.1759421 0.1176714
vt 0.1907531 0.130159
vt 0.2038965 0.1045679
vt 0.1889588 0.1154609
vt 0.1890519 0.1171065
vt 0.2078075 0.1260101
vt 0.2203292 0.1035443
vt 0.2233755 0.1100653
vt 0.2050811 0.1132629
vt 0.2051459 0.1149343
vt 0.2234344 0.1183594
vt 0.2211361 0.1096762
vt 0.2212845 0.111409
vt 0.2255743 0.1171714
vt 0.2223263 0.09378614
vt 0.2300506 0.08844887
vt 0.2292077 0.09448936
vt 0.2232408 0.08724491
vt 0.2209636 0.08666683
vt 0.2216308 0.08499529
vt 0.2048953 0.08157836
vt 0.205226 0.07977465
vt 0.2199434 0.09277425
vt 0.1883085 0.07956499
vt 0.1883508 0.07772582
vt 0.2201215 0.09456611
vt 0.2225762 0.1024606
vt 0.2035773 0.09025665
vt 0.1743759 0.0801651
vt 0.1741377 0.07835469
vt 0.2037823 0.09180641
vt 0.2202157 0.1017417
vt 0.1880566 0.08951154
vt 0.1576921 0.08354061
vt 0.1572213 0.08176287
vt 0.188103 0.09109589
vt 0.1754181 0.09006412
vt 0.1420299 0.08972359
vt 0.1412351 0.08811013
vt 0.139799 0.09047063
vt 0.1596762 0.09212049
vt 0.17542 0.09164393
vt 0.2038178 0.1029958
vt 0.1435174 0.09571715
vt 0.1596185 0.09371598
vt 0.1881986 0.1040608
vt 0.1435051 0.09747992
vt 0.1412316 0.09691069
vt 0.1344317 0.09816995
vt 0.1331038 0.092217
vt 0.1757884 0.1046033
vt 0.1603757 0.1048812
vt 0.1439082 0.1046502
vt 0.141634 0.1055884
vt 0.1439714 0.1064953
vt 0.1604401 0.1064079
vt 0.1436579 0.1126973
vt 0.1414628 0.1132663
vt 0.1758132 0.1061367
vt 0.1599387 0.1151322
vt 0.1436586 0.1144511
vt 0.1882204 0.1055917
vt 0.1420489 0.1215518
vt 0.1398247 0.1205282
vt 0.158225 0.1280222
vt 0.1600169 0.116785
vt 0.1758868 0.1308362
vt 0.1758651 0.1160156
vt 0.1759421 0.1176714
vt 0.1907531 0.130159
vt 0.2038965 0.1045679
vt 0.1889588 0.1154609
vt 0.1890519 0.1171065
vt 0.2078075 0.1260101
vt 0.2203292 0.1035443
vt 0.2233755 0.1100653
vt 0.2050811 0.1132629
vt 0.2051459 0.1149343
vt 0.2234344 0.1183594
vt 0.2211361 0.1096762
vt 0.2212845 0.111409
vt 0.2255743 0.1171714
vn -0.8937569 0.3034371 -0.33034
vn -0.8639109 -0.3801753 -0.3303406
vn -0.8414978 -0.3804117 0.3836252
vn -0.8714502 0.3056249 0.3836246
vn -0.4186638 0.8395556 0.3462183
vn -0.3354263 0.3194818 0.8862396
vn -0.1234433 0.9168076 0.3797705
vn -0.05357733 0.3863979 0.9207748
vn -0.4560924 0.8295669 -0.3221776
vn -0.06639618 0.9224523 0.3803594
vn -0.0281269 0.3873001 0.9215246
vn -0.4508028 0.3084125 -0.8376507
vn -0.8639109 -0.3801753 -0.3303406
vn -0.1662796 0.9082331 -0.3840101
vn -0.01570316 0.9247483 0.3802553
vn -0.006062734 0.3885084 0.9214252
vn -0.1554817 0.3757934 -0.9135671
vn -0.4222076 -0.3465236 -0.8376527
vn -0.07994702 0.9186097 -0.3869943
vn 0.0430686 0.9240767 0.3797728
vn 0.01969581 0.3895963 0.9207752
vn -0.05990706 0.3825773 -0.9219792
vn -0.00272691 0.9219546 -0.3872882
vn 0.3438897 0.8728529 0.3462191
vn 0.3063028 0.3475038 0.8862392
vn 0.8414928 0.3804198 0.3836284
vn 0.08649018 0.919268 -0.3840126
vn 0.02512195 0.3864243 -0.9219788
vn -0.1221377 -0.3879087 -0.9135695
vn 0.3820523 0.8661632 -0.322176
vn 0.1221381 0.3879106 -0.9135686
vn -0.02512044 -0.3864227 -0.9219797
vn 0.4222082 0.3465293 -0.8376501
vn 0.863909 0.3801835 -0.3303359
vn 0.8937582 -0.3034373 -0.3303364
vn 0.8714486 -0.305625 0.3836282
vn 0.05990855 -0.3825728 -0.9219811
vn 0.1554821 -0.3757886 -0.913569
vn 0.4508051 -0.3084097 -0.8376505
vn 0.8937582 -0.3034373 -0.3303364
vn 0.4560919 -0.8295671 -0.3221779
vn 0.1662802 -0.9082317 -0.384013
vn 0.4186607 -0.8395561 0.3462208
vn 0.8714486 -0.305625 0.3836282
vn 0.07994778 -0.9186083 -0.3869974
vn 0.1234426 -0.9168061 0.3797742
vn 0.3354267 -0.3194805 0.8862398
vn 0.002727797 -0.9219539 -0.3872899
vn 0.3063028 0.3475038 0.8862392
vn 0.8414928 0.3804198 0.3836284
vn 0.01969581 0.3895963 0.9207752
vn 0.05357597 -0.3863956 0.9207758
vn -0.006062734 0.3885084 0.9214252
vn 0.06639633 -0.9224507 0.3803633
vn 0.0281261 -0.3872966 0.9215261
vn -0.0281269 0.3873001 0.9215246
vn -0.0864902 -0.9192673 -0.3840146
vn 0.01570295 -0.9247473 0.3802574
vn 0.006061702 -0.388507 0.9214258
vn -0.05357733 0.3863979 0.9207748
vn -0.3820596 -0.8661582 -0.3221805
vn -0.8414978 -0.3804117 0.3836252
vn -0.04306914 -0.9240761 0.379774
vn -0.01969684 -0.3895949 0.9207758
vn -0.3354263 0.3194818 0.8862396
vn -0.3438981 -0.8728488 0.346221
vn -0.306307 -0.3474984 0.8862398
vn -0.8714502 0.3056249 0.3836246
vn -0.8937545 0.3034401 0.3303436
vn -0.8414971 -0.380411 -0.3836278
vn -0.8639091 -0.3801751 0.3303455
vn -0.8714486 0.30563 -0.3836243
vn -0.4186559 0.8395606 -0.3462158
vn -0.3354272 0.3194869 -0.8862374
vn -0.1234431 0.9168086 -0.379768
vn -0.05357767 0.3864029 -0.9207727
vn -0.4560911 0.8295675 0.3221781
vn -0.06639609 0.9224531 -0.3803574
vn -0.02812654 0.3873034 -0.9215232
vn -0.4508014 0.3084096 0.8376525
vn -0.8639091 -0.3801751 0.3303455
vn -0.1662803 0.9082317 0.3840129
vn -0.0157026 0.9247483 -0.380255
vn -0.006062032 0.3885095 -0.9214248
vn -0.1554821 0.3757884 0.913569
vn -0.4222063 -0.3465223 0.8376539
vn -0.0799471 0.9186089 0.3869964
vn 0.04306869 0.924077 -0.3797721
vn 0.01969597 0.3895973 -0.9207746
vn -0.0599071 0.3825739 0.9219807
vn -0.002727453 0.9219543 0.387289
vn 0.3438948 0.8728516 -0.3462173
vn 0.3063082 0.3475034 -0.8862374
vn 0.8414975 0.3804165 -0.3836213
vn 0.08648987 0.9192683 0.3840122
vn 0.02512093 0.3864231 0.9219795
vn -0.1221384 -0.3879067 0.9135703
vn 0.382055 0.8661628 0.3221738
vn 0.1221374 0.3879105 0.9135688
vn -0.02512081 -0.3864208 0.9219805
vn 0.4222111 0.3465297 0.8376484
vn 0.8639102 0.3801804 0.3303364
vn 0.8937584 -0.3034352 0.330338
vn 0.8714515 -0.3056234 -0.383623
vn 0.05990736 -0.3825714 0.9219817
vn 0.155481 -0.3757887 0.9135691
vn 0.4508046 -0.3084101 0.8376505
vn 0.8937584 -0.3034352 0.330338
vn 0.4560948 -0.8295655 0.3221781
vn 0.1662799 -0.9082313 0.384014
vn 0.4186626 -0.8395556 -0.3462198
vn 0.8714515 -0.3056234 -0.383623
vn 0.07994779 -0.9186074 0.3869998
vn 0.1234429 -0.9168065 -0.3797733
vn 0.3354293 -0.3194807 -0.8862389
vn 0.002727539 -0.9219531 0.387292
vn 0.3063082 0.3475034 -0.8862374
vn 0.8414975 0.3804165 -0.3836213
vn 0.01969597 0.3895973 -0.9207746
vn 0.05357641 -0.3863961 -0.9207756
vn -0.006062032 0.3885095 -0.9214248
vn 0.06639664 -0.9224519 -0.3803603
vn 0.02812692 -0.3872986 -0.9215252
vn -0.02812654 0.3873034 -0.9215232
vn -0.0864908 -0.9192663 0.3840167
vn 0.01570331 -0.9247485 -0.3802546
vn 0.006062524 -0.3885095 -0.9214248
vn -0.05357767 0.3864029 -0.9207727
vn -0.3820589 -0.8661577 0.3221831
vn -0.8414971 -0.380411 -0.3836278
vn -0.04306883 -0.9240767 -0.3797725
vn -0.01969657 -0.3895962 -0.9207752
vn -0.3354272 0.3194869 -0.8862374
vn -0.3439002 -0.8728474 -0.3462226
vn -0.3062989 -0.3474971 -0.886243
vn -0.8714486 0.30563 -0.3836243
f 1/1/1 2/2/2 3/3/3
f 1/1/1 3/3/3 4/4/4
f 5/5/5 1/1/1 4/4/4
f 5/5/5 4/4/4 6/6/6
f 7/7/7 5/5/5 6/6/6
f 7/7/7 6/6/6 8/8/8
f 5/5/5 9/9/9 1/1/1
f 9/9/9 5/5/5 7/7/7
f 10/10/10 7/7/7 8/8/8
f 10/10/10 8/8/8 11/11/11
f 1/1/1 9/9/9 12/12/12
f 13/13/13 1/1/1 12/12/12
f 9/9/9 7/7/7 14/14/14
f 14/14/14 7/7/7 10/10/10
f 15/15/15 10/10/10 11/11/11
f 15/15/15 11/11/11 16/16/16
f 9/9/9 17/17/17 12/12/12
f 9/9/9 14/14/14 17/17/17
f 13/13/13 12/12/12 18/18/18
f 17/17/17 18/18/18 12/12/12
f 14/14/14 10/10/10 19/19/19
f 19/19/19 10/10/10 15/15/15
f 20/20/20 15/15/15 16/16/16
f 20/20/20 16/16/16 21/21/21
f 14/14/14 22/22/22 17/17/17
f 14/14/14 19/19/19 22/22/22
f 19/19/19 15/15/15 23/23/23
f 23/23/23 15/15/15 20/20/20
f 24/24/24 20/20/20 21/21/21
f 24/24/24 21/21/21 25/25/25
f 24/24/24 25/25/25 26/26/26
f 27/27/27 20/20/20 24/24/24
f 23/23/23 20/20/20 27/27/27
f 19/19/19 23/23/23 28/28/28
f 19/19/19 28/28/28 22/22/22
f 22/22/22 29/29/29 17/17/17
f 17/17/17 29/29/29 18/18/18
f 30/30/30 24/24/24 26/26/26
f 27/27/27 24/24/24 30/30/30
f 23/23/23 27/27/27 31/31/31
f 23/23/23 31/31/31 28/28/28
f 28/28/28 32/32/32 22/22/22
f 22/22/22 32/32/32 29/29/29
f 27/27/27 30/30/30 33/33/33
f 27/27/27 33/33/33 31/31/31
f 30/30/30 26/26/26 34/34/34
f 33/33/33 30/30/30 34/34/34
f 26/26/26 35/35/35 34/34/34
f 26/26/26 36/36/36 35/35/35
f 31/31/31 37/37/37 28/28/28
f 28/28/28 37/37/37 32/32/32
f 33/33/33 38/38/38 31/31/31
f 31/31/31 38/38/38 37/37/37
f 34/34/34 39/39/39 33/33/33
f 33/33/33 39/39/39 38/38/38
f 34/34/34 40/40/40 39/39/39
f 41/41/41 38/38/38 39/39/39
f 41/41/41 39/39/39 40/40/40
f 42/42/42 37/37/37 38/38/38
f 41/41/41 42/42/42 38/38/38
f 43/43/43 41/41/41 40/40/40
f 42/42/42 41/41/41 43/43/43
f 43/43/43 40/40/40 44/44/44
f 45/45/45 32/32/32 37/37/37
f 42/42/42 45/45/45 37/37/37
f 42/42/42 43/43/43 46/46/46
f 45/45/45 42/42/42 46/46/46
f 47/47/47 43/43/43 44/44/44
f 46/46/46 43/43/43 47/47/47
f 45/45/45 48/48/48 32/32/32
f 48/48/48 29/29/29 32/32/32
f 49/49/49 47/47/47 44/44/44
f 49/49/49 44/44/44 50/50/50
f 51/51/51 47/47/47 49/49/49
f 51/51/51 52/52/52 47/47/47
f 46/46/46 47/47/47 52/52/52
f 53/53/53 52/52/52 51/51/51
f 45/45/45 46/46/46 54/54/54
f 54/54/54 46/46/46 52/52/52
f 48/48/48 45/45/45 54/54/54
f 53/53/53 55/55/55 52/52/52
f 54/54/54 52/52/52 55/55/55
f 56/56/56 55/55/55 53/53/53
f 48/48/48 57/57/57 29/29/29
f 57/57/57 18/18/18 29/29/29
f 48/48/48 54/54/54 58/58/58
f 58/58/58 54/54/54 55/55/55
f 57/57/57 48/48/48 58/58/58
f 56/56/56 59/59/59 55/55/55
f 58/58/58 55/55/55 59/59/59
f 60/60/60 59/59/59 56/56/56
f 57/57/57 61/61/61 18/18/18
f 61/61/61 13/13/13 18/18/18
f 61/61/61 62/62/62 13/13/13
f 57/57/57 58/58/58 63/63/63
f 63/63/63 58/58/58 59/59/59
f 61/61/61 57/57/57 63/63/63
f 60/60/60 64/64/64 59/59/59
f 63/63/63 59/59/59 64/64/64
f 65/65/65 64/64/64 60/60/60
f 61/61/61 63/63/63 66/66/66
f 61/61/61 66/66/66 62/62/62
f 66/66/66 63/63/63 64/64/64
f 65/65/65 67/67/67 64/64/64
f 66/66/66 64/64/64 67/67/67
f 62/62/62 66/66/66 67/67/67
f 68/68/68 67/67/67 65/65/65
f 68/68/68 62/62/62 67/67/67
f 69/69/69 70/70/70 71/71/71
f 69/69/69 72/72/72 70/70/70
f 73/73/73 72/72/72 69/69/69
f 73/73/73 74/74/74 72/72/72
f 75/75/75 74/74/74 73/73/73
f 75/75/75 76/76/76 74/74/74
f 73/73/73 69/69/69 77/77/77
f 77/77/77 75/75/75 73/73/73
f 78/78/78 76/76/76 75/75/75
f 78/78/78 79/79/79 76/76/76
f 69/69/69 80/80/80 77/77/77
f 81/81/81 80/80/80 69/69/69
f 77/77/77 82/82/82 75/75/75
f 82/82/82 78/78/78 75/75/75
f 83/83/83 79/79/79 78/78/78
f 83/83/83 84/84/84 79/79/79
f 77/77/77 80/80/80 85/85/85
f 77/77/77 85/85/85 82/82/82
f 81/81/81 86/86/86 80/80/80
f 85/85/85 80/80/80 86/86/86
f 82/82/82 87/87/87 78/78/78
f 87/87/87 83/83/83 78/78/78
f 88/88/88 84/84/84 83/83/83
f 88/88/88 89/89/89 84/84/84
f 82/82/82 85/85/85 90/90/90
f 82/82/82 90/90/90 87/87/87
f 87/87/87 91/91/91 83/83/83
f 91/91/91 88/88/88 83/83/83
f 92/92/92 89/89/89 88/88/88
f 92/92/92 93/93/93 89/89/89
f 92/92/92 94/94/94 93/93/93
f 95/95/95 92/92/92 88/88/88
f 91/91/91 95/95/95 88/88/88
f 87/87/87 96/96/96 91/91/91
f 87/87/87 90/90/90 96/96/96
f 90/90/90 85/85/85 97/97/97
f 85/85/85 86/86/86 97/97/97
f 98/98/98 94/94/94 92/92/92
f 95/95/95 98/98/98 92/92/92
f 91/91/91 99/99/99 95/95/95
f 91/91/91 96/96/96 99/99/99
f 96/96/96 90/90/90 100/100/100
f 90/90/90 97/97/97 100/100/100
f 95/95/95 101/101/101 98/98/98
f 95/95/95 99/99/99 101/101/101
f 98/98/98 102/102/102 94/94/94
f 101/101/101 102/102/102 98/98/98
f 94/94/94 102/102/102 103/103/103
f 94/94/94 103/103/103 104/104/104
f 99/99/99 96/96/96 105/105/105
f 96/96/96 100/100/100 105/105/105
f 101/101/101 99/99/99 106/106/106
f 99/99/99 105/105/105 106/106/106
f 102/102/102 101/101/101 107/107/107
f 101/101/101 106/106/106 107/107/107
f 102/102/102 107/107/107 108/108/108
f 109/109/109 107/107/107 106/106/106
f 109/109/109 108/108/108 107/107/107
f 110/110/110 106/106/106 105/105/105
f 109/109/109 106/106/106 110/110/110
f 111/111/111 108/108/108 109/109/109
f 110/110/110 111/111/111 109/109/109
f 111/111/111 112/112/112 108/108/108
f 113/113/113 105/105/105 100/100/100
f 110/110/110 105/105/105 113/113/113
f 110/110/110 114/114/114 111/111/111
f 113/113/113 114/114/114 110/110/110
f 115/115/115 112/112/112 111/111/111
f 114/114/114 115/115/115 111/111/111
f 113/113/113 100/100/100 116/116/116
f 116/116/116 100/100/100 97/97/97
f 117/117/117 112/112/112 115/115/115
f 117/117/117 118/118/118 112/112/112
f 119/119/119 117/117/117 115/115/115
f 119/119/119 115/115/115 120/120/120
f 114/114/114 120/120/120 115/115/115
f 121/121/121 119/119/119 120/120/120
f 113/113/113 122/122/122 114/114/114
f 122/122/122 120/120/120 114/114/114
f 116/116/116 122/122/122 113/113/113
f 121/121/121 120/120/120 123/123/123
f 122/122/122 123/123/123 120/120/120
f 124/124/124 121/121/121 123/123/123
f 116/116/116 97/97/97 125/125/125
f 125/125/125 97/97/97 86/86/86
f 116/116/116 126/126/126 122/122/122
f 126/126/126 123/123/123 122/122/122
f 125/125/125 126/126/126 116/116/116
f 124/124/124 123/123/123 127/127/127
f 126/126/126 127/127/127 123/123/123
f 128/128/128 124/124/124 127/127/127
f 125/125/125 86/86/86 129/129/129
f 129/129/129 86/86/86 81/81/81
f 129/129/129 81/81/81 130/130/130
f 125/125/125 131/131/131 126/126/126
f 131/131/131 127/127/127 126/126/126
f 129/129/129 131/131/131 125/125/125
f 128/128/128 127/127/127 132/132/132
f 131/131/131 132/132/132 127/127/127
f 133/133/133 128/128/128 132/132/132
f 129/129/129 134/134/134 131/131/131
f 129/129/129 130/130/130 134/134/134
f 134/134/134 132/132/132 131/131/131
f 133/133/133 132/132/132 135/135/135
f 134/134/134 135/135/135 132/132/132
f 130/130/130 135/135/135 134/134/134
f 136/136/136 133/133/133 135/135/135
f 136/136/136 135/135/135 130/130/130
