v -0.2356074 -0.005344896 0.02072529
v -0.2360091 0.1997949 0.02072529
v -0.2360091 0.1997949 0.003062591
v -0.2356074 -0.005344896 0.003062558
v 0.2373395 -0.00439037 0.003062439
v 0.2373395 -0.00439037 0.02072491
v 0.2369378 0.2007495 0.003062477
v 0.2369378 0.2007495 0.02072491
v -0.2360091 0.1997949 0.003062591
v -0.2360091 0.1997949 0.02072529
v -0.2356074 -0.005344896 0.003062558
v -0.2297133 0.0006629458 0.003062553
v 0.2314219 0.00159367 0.003062429
v -0.2360091 0.1997949 0.003062591
v 0.2373395 -0.00439037 0.003062439
v -0.2300914 0.1938108 0.003062591
v 0.2369378 0.2007495 0.003062477
v 0.2310436 0.1947417 0.003062472
v -0.2356074 -0.005344896 0.02072529
v 0.2373395 -0.00439037 0.02072491
v 0.2314219 0.00159367 0.02072491
v -0.2297132 0.0006629458 0.02072528
v -0.2360091 0.1997949 0.02072529
v -0.2300914 0.1938108 0.02072528
v 0.2369378 0.2007495 0.02072491
v 0.2310436 0.1947417 0.02072492
vt 0.9985953 0.5686022
vt 0.998576 0.493495
vt 0.9920056 0.4934969
vt 0.9920268 0.5686032
vt 0.9920268 0.7444388
vt 0.9985953 0.7444397
vt 0.9920055 0.8195469
vt 0.9985756 0.8195479
vt 0.9920053 0.9953787
vt 0.998576 0.9953786
vt 0.6450921 0.0008722926
vt 0.6472892 0.003067191
vt 0.8188468 0.003067071
vt 0.6450912 0.07599491
vt 0.8210438 0.0008722926
vt 0.6472892 0.07379905
vt 0.8210447 0.07599491
vt 0.8188468 0.07379905
vt 0.8228 0.07592534
vt 0.9987536 0.07592546
vt 0.9965565 0.07373032
vt 0.8249972 0.0737302
vt 0.8228 0.0008027256
vt 0.8249972 0.002998343
vt 0.9987537 0.0008027256
vt 0.9965565 0.002998343
vn -0.7056993 -0.7085115 1.526036E-06
vn -0.708511 0.7056998 1.527962E-06
vn -0.7085118 0.705699 1.527964E-06
vn -0.7057 -0.7085108 1.526038E-06
vn 0.7085112 -0.7056996 0
vn 0.708511 -0.7056998 0
vn 0.7056996 0.7085112 0
vn 0.7056993 0.7085115 0
vn -0.7085118 0.705699 1.527964E-06
vn -0.708511 0.7056998 1.527962E-06
vn -3.302939E-07 -5.139127E-07 -1
vn -3.144509E-07 -3.265028E-07 -1
vn 2.930127E-07 -3.162897E-07 -1
vn -3.267603E-07 2.890183E-07 -1
vn 4.692896E-07 -5.004977E-07 -1
vn -3.118334E-07 2.680433E-07 -1
vn 4.72831E-07 3.024404E-07 -1
vn 2.95641E-07 2.782425E-07 -1
vn 8.039904E-07 2.023027E-07 1
vn 8.040169E-07 1.904482E-07 1
vn 8.021117E-07 1.3502E-07 1
vn 8.020917E-07 1.440327E-07 1
vn 7.988364E-07 2.022962E-07 1
vn 7.982753E-07 1.44023E-07 1
vn 7.988628E-07 1.904388E-07 1
vn 7.982955E-07 1.350195E-07 1
f 1/1/1 2/2/2 3/3/3
f 1/1/1 3/3/3 4/4/4
f 1/1/1 4/4/4 5/5/5
f 1/1/1 5/5/5 6/6/6
f 7/7/7 6/6/6 5/5/5
f 7/7/7 8/8/8 6/6/6
f 8/8/8 7/7/7 9/9/9
f 8/8/8 9/9/9 10/10/10
f 11/11/11 12/12/12 13/13/13
f 14/14/14 12/12/12 11/11/11
f 11/11/11 13/13/13 15/15/15
f 14/14/14 16/16/16 12/12/12
f 13/13/13 12/12/12 16/16/16
f 17/17/17 16/16/16 14/14/14
f 15/15/15 13/13/13 18/18/18
f 15/15/15 18/18/18 17/17/17
f 13/13/13 16/16/16 18/18/18
f 17/17/17 18/18/18 16/16/16
f 19/19/19 20/20/20 21/21/21
f 19/19/19 21/21/21 22/22/22
f 23/23/23 19/19/19 22/22/22
f 23/23/23 22/22/22 24/24/24
f 21/21/21 24/24/24 22/22/22
f 25/25/25 23/23/23 24/24/24
f 20/20/20 25/25/25 26/26/26
f 20/20/20 26/26/26 21/21/21
f 21/21/21 26/26/26 24/24/24
f 25/25/25 24/24/24 26/26/26
