v 0.04179962 0.0126207 -0.1364332
v 0.06664573 -0.007773667 -0.1364749
v 0.06664581 0.00836029 -0.136475
v 0.04179954 -0.01203399 -0.1364332
v 0.01393066 0.01498559 -0.13641
v 0.01393066 -0.01439887 -0.13641
v -0.01393867 0.01498559 -0.1364099
v -0.01393868 -0.01439887 -0.1364099
v -0.04180771 0.01262086 -0.1364332
v -0.04180771 -0.01203398 -0.1364332
v -0.0666539 0.008360288 -0.1364749
v -0.0666539 -0.007773592 -0.1364749
v -0.01393868 -0.01738921 -0.1394499
v 0.0139302 -0.01738922 -0.13945
v 0.04179954 -0.01203399 -0.1364332
v -0.04180771 -0.01502425 -0.1394733
v -0.04180771 -0.01203398 -0.1364332
v 0.04179962 -0.01502426 -0.1394733
v 0.06664573 -0.007773667 -0.1364749
v 0.06668937 -0.01080025 -0.139515
v 0.06668922 -0.01080032 -0.1537458
v 0.04179969 -0.01502426 -0.1593146
v 0.0139302 -0.01738922 -0.1623929
v 0.04179954 -0.01203399 -0.1623546
v 0.066716 -0.007763749 -0.1568503
v 0.01393028 -0.01439889 -0.1654329
v -0.01393876 -0.01738929 -0.1623929
v -0.06669708 -0.01080025 -0.139515
v -0.0666539 -0.007773592 -0.1364749
v -0.04180771 -0.01502432 -0.1593146
v -0.06669708 -0.01080031 -0.1537457
v -0.06672432 -0.007763788 -0.1568502
v -0.04180786 -0.0120341 -0.1623546
v -0.01393883 -0.01439881 -0.1654329
v 0.01393021 0.01498562 -0.165433
v 0.04179962 0.01262076 -0.1623547
v 0.04179954 -0.01203399 -0.1623546
v 0.06671616 0.008350295 -0.1568503
v 0.066716 -0.007763749 -0.1568503
v 0.06966904 0.00789091 -0.153158
v 0.06668937 0.01138693 -0.1537458
v 0.06966903 -0.007304231 -0.153158
v 0.06668922 -0.01080032 -0.1537458
v 0.06668937 -0.01080025 -0.139515
v 0.06966904 0.007890852 -0.13952
v 0.06668937 0.01138695 -0.139515
v 0.06664581 0.00836029 -0.136475
v 0.06966903 -0.007304231 -0.13952
v 0.06664573 -0.007773667 -0.1364749
v -0.01393883 0.01498555 -0.165433
v -0.04180786 -0.0120341 -0.1623546
v -0.04180786 0.01262075 -0.1623546
v -0.06672432 -0.007763788 -0.1568502
v -0.06672432 0.008350256 -0.1568503
v -0.06967682 -0.007304212 -0.153158
v -0.06669708 -0.01080031 -0.1537457
v -0.06967682 0.007890852 -0.153158
v -0.06669708 0.01138694 -0.1537458
v -0.06669708 0.01138704 -0.139515
v -0.06967682 -0.007304231 -0.13952
v -0.06669708 -0.01080025 -0.139515
v -0.0666539 -0.007773592 -0.1364749
v -0.06967682 0.007890872 -0.13952
v -0.0666539 0.008360288 -0.1364749
v -0.01393883 0.01797582 -0.1623929
v 0.01393021 0.01797581 -0.162393
v 0.04179962 0.01262076 -0.1623547
v -0.04180786 0.01561086 -0.1593145
v -0.04180786 0.01262075 -0.1623546
v -0.06669708 0.01138694 -0.1537458
v -0.06672432 0.008350256 -0.1568503
v -0.06669708 0.01138704 -0.139515
v -0.04180771 0.01561105 -0.1394732
v -0.0666539 0.008360288 -0.1364749
v -0.04180771 0.01262086 -0.1364332
v -0.01393867 0.01797593 -0.1394499
v -0.01393867 0.01498559 -0.1364099
v 0.01393066 0.01797593 -0.1394499
v 0.01393066 0.01498559 -0.13641
v 0.0417997 0.01561096 -0.1593147
v 0.06671616 0.008350295 -0.1568503
v 0.06668937 0.01138693 -0.1537458
v 0.04179955 0.01561104 -0.1394733
v 0.04179962 0.0126207 -0.1364332
v 0.06668937 0.01138695 -0.139515
v 0.06664581 0.00836029 -0.136475
v 0.06664565 -0.007773648 0.1210375
v 0.04179955 0.01262064 0.1209958
v 0.06664573 0.008360232 0.1210375
v 0.04179946 -0.01203405 0.1209958
v 0.01393059 0.01498561 0.1209725
v 0.01393058 -0.01439885 0.1209725
v -0.01393875 0.01498561 0.1209725
v -0.01393876 -0.01439885 0.1209725
v -0.04180779 0.01262081 0.1209958
v -0.04180779 -0.01203404 0.1209958
v -0.06665397 0.008360251 0.1210375
v -0.06665398 -0.00777363 0.1210374
v -0.01393876 -0.01738925 0.1240125
v 0.01393013 -0.01738925 0.1240125
v 0.04179946 -0.01203405 0.1209958
v -0.04180779 -0.0150243 0.1240359
v -0.04180779 -0.01203404 0.1209958
v 0.04179954 -0.01502432 0.1240359
v 0.06664565 -0.007773648 0.1210375
v 0.0666893 -0.01080023 0.1240775
v 0.06668914 -0.01080036 0.1383084
v 0.04179962 -0.0150243 0.1438772
v 0.01393013 -0.01738925 0.1469555
v 0.04179946 -0.01203403 0.1469171
v 0.06671592 -0.00776371 0.1414129
v 0.0139302 -0.01439891 0.1499955
v -0.01393883 -0.01738925 0.1469555
v -0.06669717 -0.01080029 0.1240775
v -0.06665398 -0.00777363 0.1210374
v -0.04180779 -0.01502428 0.1438772
v -0.06669717 -0.01080036 0.1383083
v -0.0667244 -0.007763769 0.1414128
v -0.04180794 -0.0120341 0.1469172
v -0.01393891 -0.01439883 0.1499955
v 0.01393013 0.01498562 0.1499955
v 0.04179955 0.01262074 0.1469172
v 0.04179946 -0.01203403 0.1469171
v 0.06671607 0.008350333 0.1414129
v 0.06671592 -0.00776371 0.1414129
v 0.06966896 0.00789089 0.1377206
v 0.0666893 0.01138699 0.1383084
v 0.06966896 -0.007304269 0.1377206
v 0.06668914 -0.01080036 0.1383084
v 0.0666893 -0.01080023 0.1240775
v 0.06966896 0.007890872 0.1240826
v 0.0666893 0.01138697 0.1240776
v 0.06664573 0.008360232 0.1210375
v 0.06966896 -0.007304288 0.1240826
v 0.06664565 -0.007773648 0.1210375
v -0.0139389 0.01498555 0.1499955
v -0.04180794 -0.0120341 0.1469172
v -0.04180794 0.01262075 0.1469172
v -0.0667244 -0.007763769 0.1414128
v -0.0667244 0.008350275 0.1414129
v -0.0696769 -0.007304269 0.1377206
v -0.06669717 -0.01080036 0.1383083
v -0.06967689 0.007890814 0.1377206
v -0.06669716 0.01138691 0.1383084
v -0.06669716 0.01138698 0.1240775
v -0.0696769 -0.007304269 0.1240825
v -0.06669717 -0.01080029 0.1240775
v -0.06665398 -0.00777363 0.1210374
v -0.06967689 0.00789089 0.1240825
v -0.06665397 0.008360251 0.1210375
v -0.0139389 0.01797582 0.1469555
v 0.01393013 0.01797581 0.1469555
v 0.04179955 0.01262074 0.1469172
v -0.04180794 0.01561086 0.1438771
v -0.04180794 0.01262075 0.1469172
v -0.06669716 0.01138691 0.1383084
v -0.0667244 0.008350275 0.1414129
v -0.06669716 0.01138698 0.1240775
v -0.04180779 0.01561107 0.1240358
v -0.06665397 0.008360251 0.1210375
v -0.04180779 0.01262081 0.1209958
v -0.01393875 0.01797587 0.1240125
v -0.01393875 0.01498561 0.1209725
v 0.01393059 0.01797587 0.1240125
v 0.01393059 0.01498561 0.1209725
v 0.04179962 0.01561093 0.1438772
v 0.06671607 0.008350333 0.1414129
v 0.0666893 0.01138699 0.1383084
v 0.04179947 0.01561106 0.1240359
v 0.04179955 0.01262064 0.1209958
v 0.0666893 0.01138697 0.1240776
v 0.06664573 0.008360232 0.1210375
vt 0.3946227 0.9917365
vt 0.3537638 0.974301
vt 0.3537638 0.9880949
vt 0.3946227 0.9706581
vt 0.4404751 0.9937567
vt 0.4404217 0.9686321
vt 0.4863549 0.9937567
vt 0.4864034 0.9686317
vt 0.5322105 0.9917365
vt 0.5322105 0.9706581
vt 0.5730719 0.9880953
vt 0.5730719 0.974301
vt 0.4862355 0.9650158
vt 0.440583 0.965017
vt 0.3941079 0.9685528
vt 0.5320843 0.9649493
vt 0.5327132 0.9685441
vt 0.3947331 0.9649569
vt 0.3525039 0.9684871
vt 0.3532654 0.9648604
vt 0.3533469 0.9528605
vt 0.3948229 0.9482795
vt 0.4406107 0.9457191
vt 0.3939199 0.944705
vt 0.3520959 0.9492192
vt 0.4403547 0.9420999
vt 0.4861979 0.9457183
vt 0.5735521 0.964846
vt 0.5743158 0.9684727
vt 0.5319863 0.9482713
vt 0.573465 0.9528461
vt 0.5747126 0.9492046
vt 0.5328863 0.9446964
vt 0.4864511 0.9420999
vt 0.4403564 0.9169619
vt 0.3942131 0.9189856
vt 0.3942131 0.9400642
vt 0.3522463 0.922496
vt 0.3522117 0.9365398
vt 0.3448714 0.9231359
vt 0.3466026 0.9194522
vt 0.3448183 0.9358693
vt 0.3465026 0.9395589
vt 0.3221873 0.9395481
vt 0.3230837 0.9231077
vt 0.3222912 0.9193801
vt 0.3165078 0.9222939
vt 0.3230217 0.9358244
vt 0.316436 0.9366169
vt 0.4864492 0.9169619
vt 0.5325905 0.9400654
vt 0.5325905 0.9189864
vt 0.5745909 0.936541
vt 0.5745546 0.9224976
vt 0.5819836 0.9358711
vt 0.5803 0.9395604
vt 0.5819302 0.9231383
vt 0.5801985 0.9194545
vt 0.6045085 0.9193805
vt 0.6037812 0.9358248
vt 0.6046166 0.9395486
vt 0.6103666 0.9366173
vt 0.6037173 0.9231086
vt 0.6102921 0.9222944
vt 0.4861956 0.9133474
vt 0.44061 0.9133477
vt 0.3939222 0.9143882
vt 0.5319879 0.9108107
vt 0.5328833 0.9143863
vt 0.5734745 0.9062536
vt 0.5747165 0.9098953
vt 0.5735794 0.8942542
vt 0.5321103 0.8941349
vt 0.5743492 0.8906277
vt 0.5327471 0.8905406
vt 0.4862434 0.8940527
vt 0.4864647 0.8904409
vt 0.4405579 0.8940533
vt 0.4403346 0.8904415
vt 0.3948176 0.9108131
vt 0.352089 0.9098989
vt 0.3533317 0.906257
vt 0.3946906 0.8941369
vt 0.3940544 0.8905432
vt 0.3532219 0.8942587
vt 0.3524518 0.8906318
vt 0.3537638 0.974301
vt 0.3946227 0.9917365
vt 0.3537638 0.9880949
vt 0.3946227 0.9706581
vt 0.4404751 0.9937567
vt 0.4404217 0.9686321
vt 0.4863549 0.9937567
vt 0.4864034 0.9686317
vt 0.5322105 0.9917365
vt 0.5322105 0.9706581
vt 0.5730719 0.9880953
vt 0.5730719 0.974301
vt 0.4862355 0.9650158
vt 0.440583 0.965017
vt 0.3941079 0.9685528
vt 0.5320843 0.9649493
vt 0.5327132 0.9685441
vt 0.3947331 0.9649569
vt 0.3525039 0.9684871
vt 0.3532654 0.9648604
vt 0.3533469 0.9528605
vt 0.3948229 0.9482795
vt 0.4406107 0.9457191
vt 0.3939199 0.944705
vt 0.3520959 0.9492192
vt 0.4403547 0.9420999
vt 0.4861979 0.9457183
vt 0.5735521 0.964846
vt 0.5743158 0.9684727
vt 0.5319863 0.9482713
vt 0.573465 0.9528461
vt 0.5747126 0.9492046
vt 0.5328863 0.9446964
vt 0.4864511 0.9420999
vt 0.4403564 0.9169619
vt 0.3942131 0.9189856
vt 0.3942131 0.9400642
vt 0.3522463 0.922496
vt 0.3522117 0.9365398
vt 0.3448714 0.9231359
vt 0.3466026 0.9194522
vt 0.3448183 0.9358693
vt 0.3465026 0.9395589
vt 0.3221873 0.9395481
vt 0.3230837 0.9231077
vt 0.3222912 0.9193801
vt 0.3165078 0.9222939
vt 0.3230217 0.9358244
vt 0.316436 0.9366169
vt 0.4864492 0.9169619
vt 0.5325905 0.9400654
vt 0.5325905 0.9189864
vt 0.5745909 0.936541
vt 0.5745546 0.9224976
vt 0.5819836 0.9358711
vt 0.5803 0.9395604
vt 0.5819302 0.9231383
vt 0.5801985 0.9194545
vt 0.6045085 0.9193805
vt 0.6037812 0.9358248
vt 0.6046166 0.9395486
vt 0.6103666 0.9366173
vt 0.6037173 0.9231086
vt 0.6102921 0.9222944
vt 0.4861956 0.9133474
vt 0.44061 0.9133477
vt 0.3939222 0.9143882
vt 0.5319879 0.9108107
vt 0.5328833 0.9143863
vt 0.5734745 0.9062536
vt 0.5747165 0.9098953
vt 0.5735794 0.8942542
vt 0.5321103 0.8941349
vt 0.5743492 0.8906277
vt 0.5327471 0.8905406
vt 0.4862434 0.8940527
vt 0.4864647 0.8904409
vt 0.4405579 0.8940533
vt 0.4403346 0.8904415
vt 0.3948176 0.9108131
vt 0.352089 0.9098989
vt 0.3533317 0.906257
vt 0.3946906 0.8941369
vt 0.3940544 0.8905432
vt 0.3532219 0.8942587
vt 0.3524518 0.8906318
vn 0.05216309 0.3937306 0.9177446
vn 0.3799607 -0.3219825 0.8671545
vn 0.3801855 0.3217354 0.8671477
vn 0.05251654 -0.3938911 0.9176556
vn 0.01743669 0.3950773 0.9184824
vn 0.01743744 -0.3950818 0.9184804
vn -0.01743311 0.3950804 0.9184811
vn -0.01743534 -0.3950819 0.9184804
vn -0.05251964 0.3938975 0.9176527
vn -0.05216406 -0.3937332 0.9177434
vn -0.3799908 0.3219817 0.8671417
vn -0.3802083 -0.3217409 0.8671358
vn -0.03907695 -0.9261084 0.3752281
vn 0.03907572 -0.9261093 0.3752262
vn 0.05251654 -0.3938911 0.9176556
vn -0.1164897 -0.9202145 0.3736782
vn -0.05216406 -0.3937332 0.9177434
vn 0.1167486 -0.9201195 0.3738315
vn 0.3799607 -0.3219825 0.8671545
vn 0.445431 -0.8303623 0.3347979
vn 0.4893147 -0.818863 -0.3000576
vn 0.1764709 -0.9089265 -0.3777708
vn 0.05955526 -0.920791 -0.3854828
vn 0.1949522 -0.3814838 -0.9035839
vn 0.5115184 -0.3131231 -0.8001892
vn 0.06594776 -0.3893693 -0.9187179
vn -0.05955443 -0.9207883 -0.3854894
vn -0.4457085 -0.8303243 0.3345226
vn -0.3802083 -0.3217409 0.8671358
vn -0.1762768 -0.9090028 -0.3776776
vn -0.4894453 -0.8188524 -0.2998734
vn -0.5116959 -0.3129702 -0.8001356
vn -0.1947801 -0.3814158 -0.9036496
vn -0.06594749 -0.389359 -0.9187222
vn 0.06594668 0.3893792 -0.9187137
vn 0.1947773 0.381414 -0.9036511
vn 0.1949522 -0.3814838 -0.9035839
vn 0.5116696 0.3129439 -0.8001627
vn 0.5115184 -0.3131231 -0.8001892
vn 0.910138 0.3000639 -0.2856755
vn 0.4894527 0.8188378 -0.2999012
vn 0.9101328 -0.300069 -0.2856867
vn 0.4893147 -0.818863 -0.3000576
vn 0.445431 -0.8303623 0.3347979
vn 0.8916625 0.3031342 0.3362256
vn 0.4457214 0.8303153 0.334528
vn 0.3801855 0.3217354 0.8671477
vn 0.8916607 -0.3031381 0.3362267
vn 0.3799607 -0.3219825 0.8671545
vn -0.06595025 0.3893743 -0.9187155
vn -0.1947801 -0.3814158 -0.9036496
vn -0.1949555 0.3815018 -0.9035755
vn -0.5116959 -0.3129702 -0.8001356
vn -0.5115549 0.3131189 -0.8001675
vn -0.9101452 -0.3000683 -0.2856477
vn -0.4894453 -0.8188524 -0.2998734
vn -0.9101444 0.3000685 -0.2856501
vn -0.4893176 0.818864 -0.30005
vn -0.4454276 0.830367 0.3347908
vn -0.891667 -0.3031458 0.3362031
vn -0.4457085 -0.8303243 0.3345226
vn -0.3802083 -0.3217409 0.8671358
vn -0.8916696 0.3031377 0.3362037
vn -0.3799908 0.3219817 0.8671417
vn -0.05955726 0.9207931 -0.3854778
vn 0.05955352 0.9207953 -0.3854729
vn 0.1947773 0.381414 -0.9036511
vn -0.1764694 0.9089337 -0.3777542
vn -0.1949555 0.3815018 -0.9035755
vn -0.4893176 0.818864 -0.30005
vn -0.5115549 0.3131189 -0.8001675
vn -0.4454276 0.830367 0.3347908
vn -0.116751 0.9201225 0.373823
vn -0.3799908 0.3219817 0.8671417
vn -0.05251964 0.3938975 0.9176527
vn -0.03907488 0.9261097 0.3752252
vn -0.01743311 0.3950804 0.9184811
vn 0.03907727 0.9261076 0.37523
vn 0.01743669 0.3950773 0.9184824
vn 0.1762763 0.9090009 -0.3776827
vn 0.5116696 0.3129439 -0.8001627
vn 0.4894527 0.8188378 -0.2999012
vn 0.1164887 0.9202149 0.3736776
vn 0.05216309 0.3937306 0.9177446
vn 0.4457214 0.8303153 0.334528
vn 0.3801855 0.3217354 0.8671477
vn 0.3799593 -0.321981 -0.8671558
vn 0.05216303 0.3937246 -0.9177473
vn 0.3801841 0.3217303 -0.8671504
vn 0.05251703 -0.3938915 -0.9176553
vn 0.01743662 0.3950829 -0.91848
vn 0.01743683 -0.3950771 -0.9184825
vn -0.01743455 0.3950867 -0.9184785
vn -0.01743556 -0.3950774 -0.9184824
vn -0.05251828 0.393892 -0.9176551
vn -0.05216347 -0.3937342 -0.9177431
vn -0.3799895 0.3219823 -0.867142
vn -0.3802084 -0.3217402 -0.8671359
vn -0.03907725 -0.9261071 -0.3752314
vn 0.03907519 -0.9261076 -0.3752305
vn 0.05251703 -0.3938915 -0.9176553
vn -0.1164895 -0.9202156 -0.3736755
vn -0.05216347 -0.3937342 -0.9177431
vn 0.1167491 -0.9201196 -0.373831
vn 0.3799593 -0.321981 -0.8671558
vn 0.4454284 -0.830363 -0.3347998
vn 0.4893155 -0.818861 0.3000616
vn 0.1764705 -0.9089264 0.377771
vn 0.05955507 -0.9207904 0.3854842
vn 0.1949519 -0.3814833 0.9035841
vn 0.5115187 -0.3131166 0.8001916
vn 0.06594805 -0.3893673 0.9187187
vn -0.05955543 -0.9207894 0.3854866
vn -0.4457081 -0.8303245 -0.3345227
vn -0.3802084 -0.3217402 -0.8671359
vn -0.1762765 -0.909003 0.3776773
vn -0.489444 -0.8188514 0.2998784
vn -0.5116956 -0.3129645 0.8001379
vn -0.1947803 -0.3814184 0.9036485
vn -0.06594781 -0.3893627 0.9187207
vn 0.06594729 0.3893797 0.9187135
vn 0.1947766 0.3814159 0.9036503
vn 0.1949519 -0.3814833 0.9035841
vn 0.5116699 0.3129438 0.8001626
vn 0.5115187 -0.3131166 0.8001916
vn 0.9101399 0.3000584 0.2856752
vn 0.4894547 0.8188363 0.2999021
vn 0.9101326 -0.3000701 0.2856859
vn 0.4893155 -0.818861 0.3000616
vn 0.4454284 -0.830363 -0.3347998
vn 0.8916617 0.3031351 -0.336227
vn 0.4457204 0.8303133 -0.3345343
vn 0.3801841 0.3217303 -0.8671504
vn 0.8916588 -0.3031435 -0.3362272
vn 0.3799593 -0.321981 -0.8671558
vn -0.06594973 0.3893742 0.9187157
vn -0.1947803 -0.3814184 0.9036485
vn -0.1949553 0.3815021 0.9035754
vn -0.5116956 -0.3129645 0.8001379
vn -0.5115558 0.3131229 0.8001654
vn -0.9101452 -0.3000691 0.2856472
vn -0.489444 -0.8188514 0.2998784
vn -0.9101451 0.300068 0.2856487
vn -0.4893181 0.818865 0.3000462
vn -0.4454252 0.8303687 -0.3347899
vn -0.8916673 -0.3031455 -0.3362027
vn -0.4457081 -0.8303245 -0.3345227
vn -0.3802084 -0.3217402 -0.8671359
vn -0.8916678 0.3031437 -0.3362031
vn -0.3799895 0.3219823 -0.867142
vn -0.05955669 0.9207932 0.3854777
vn 0.05955421 0.9207958 0.3854716
vn 0.1947766 0.3814159 0.9036503
vn -0.1764701 0.9089334 0.3777544
vn -0.1949553 0.3815021 0.9035754
vn -0.4893181 0.818865 0.3000462
vn -0.5115558 0.3131229 0.8001654
vn -0.4454252 0.8303687 -0.3347899
vn -0.1167507 0.9201206 -0.373828
vn -0.3799895 0.3219823 -0.867142
vn -0.05251828 0.393892 -0.9176551
vn -0.03907486 0.9261113 -0.3752213
vn -0.01743455 0.3950867 -0.9184785
vn 0.0390768 0.9261097 -0.3752251
vn 0.01743662 0.3950829 -0.91848
vn 0.1762747 0.9090014 0.3776821
vn 0.5116699 0.3129438 0.8001626
vn 0.4894547 0.8188363 0.2999021
vn 0.1164878 0.9202133 -0.3736816
vn 0.05216303 0.3937246 -0.9177473
vn 0.4457204 0.8303133 -0.3345343
vn 0.3801841 0.3217303 -0.8671504
f 1/1/1 2/2/2 3/3/3
f 2/2/2 1/1/1 4/4/4
f 5/5/5 4/4/4 1/1/1
f 4/4/4 5/5/5 6/6/6
f 7/7/7 6/6/6 5/5/5
f 6/6/6 7/7/7 8/8/8
f 9/9/9 8/8/8 7/7/7
f 8/8/8 9/9/9 10/10/10
f 11/11/11 10/10/10 9/9/9
f 10/10/10 11/11/11 12/12/12
f 13/13/13 6/6/6 8/8/8
f 6/6/6 13/13/13 14/14/14
f 14/14/14 15/15/15 6/6/6
f 8/8/8 16/16/16 13/13/13
f 16/16/16 8/8/8 17/17/17
f 15/15/15 14/14/14 18/18/18
f 18/18/18 19/19/19 15/15/15
f 19/19/19 18/18/18 20/20/20
f 18/18/18 21/21/21 20/20/20
f 14/14/14 22/22/22 18/18/18
f 21/21/21 18/18/18 22/22/22
f 13/13/13 23/23/23 14/14/14
f 22/22/22 14/14/14 23/23/23
f 24/24/24 21/21/21 22/22/22
f 21/21/21 24/24/24 25/25/25
f 22/22/22 26/26/26 24/24/24
f 26/26/26 22/22/22 23/23/23
f 23/23/23 13/13/13 27/27/27
f 16/16/16 27/27/27 13/13/13
f 17/17/17 28/28/28 16/16/16
f 28/28/28 17/17/17 29/29/29
f 28/28/28 30/30/30 16/16/16
f 27/27/27 16/16/16 30/30/30
f 30/30/30 28/28/28 31/31/31
f 32/32/32 30/30/30 31/31/31
f 30/30/30 32/32/32 33/33/33
f 33/33/33 27/27/27 30/30/30
f 27/27/27 33/33/33 34/34/34
f 34/34/34 23/23/23 27/27/27
f 23/23/23 34/34/34 26/26/26
f 34/34/34 35/35/35 26/26/26
f 36/36/36 26/26/26 35/35/35
f 26/26/26 36/36/36 37/37/37
f 38/38/38 37/37/37 36/36/36
f 37/37/37 38/38/38 39/39/39
f 40/40/40 39/39/39 38/38/38
f 40/40/40 38/38/38 41/41/41
f 39/39/39 40/40/40 42/42/42
f 42/42/42 43/43/43 39/39/39
f 42/42/42 44/44/44 43/43/43
f 41/41/41 45/45/45 40/40/40
f 45/45/45 42/42/42 40/40/40
f 45/45/45 41/41/41 46/46/46
f 47/47/47 45/45/45 46/46/46
f 44/44/44 42/42/42 48/48/48
f 42/42/42 45/45/45 48/48/48
f 47/47/47 48/48/48 45/45/45
f 44/44/44 48/48/48 49/49/49
f 48/48/48 47/47/47 49/49/49
f 35/35/35 34/34/34 50/50/50
f 51/51/51 50/50/50 34/34/34
f 50/50/50 51/51/51 52/52/52
f 53/53/53 52/52/52 51/51/51
f 52/52/52 53/53/53 54/54/54
f 55/55/55 54/54/54 53/53/53
f 53/53/53 56/56/56 55/55/55
f 54/54/54 55/55/55 57/57/57
f 54/54/54 57/57/57 58/58/58
f 57/57/57 59/59/59 58/58/58
f 56/56/56 60/60/60 55/55/55
f 60/60/60 57/57/57 55/55/55
f 60/60/60 56/56/56 61/61/61
f 61/61/61 62/62/62 60/60/60
f 59/59/59 57/57/57 63/63/63
f 57/57/57 60/60/60 63/63/63
f 62/62/62 63/63/63 60/60/60
f 63/63/63 64/64/64 59/59/59
f 63/63/63 62/62/62 64/64/64
f 65/65/65 35/35/35 50/50/50
f 35/35/35 65/65/65 66/66/66
f 66/66/66 67/67/67 35/35/35
f 50/50/50 68/68/68 65/65/65
f 68/68/68 50/50/50 69/69/69
f 69/69/69 70/70/70 68/68/68
f 70/70/70 69/69/69 71/71/71
f 72/72/72 68/68/68 70/70/70
f 68/68/68 72/72/72 73/73/73
f 73/73/73 65/65/65 68/68/68
f 74/74/74 73/73/73 72/72/72
f 73/73/73 74/74/74 75/75/75
f 65/65/65 73/73/73 76/76/76
f 75/75/75 76/76/76 73/73/73
f 76/76/76 66/66/66 65/65/65
f 76/76/76 75/75/75 77/77/77
f 77/77/77 78/78/78 76/76/76
f 66/66/66 76/76/76 78/78/78
f 78/78/78 77/77/77 79/79/79
f 78/78/78 80/80/80 66/66/66
f 67/67/67 66/66/66 80/80/80
f 80/80/80 81/81/81 67/67/67
f 81/81/81 80/80/80 82/82/82
f 79/79/79 83/83/83 78/78/78
f 80/80/80 78/78/78 83/83/83
f 83/83/83 82/82/82 80/80/80
f 83/83/83 79/79/79 84/84/84
f 82/82/82 83/83/83 85/85/85
f 84/84/84 85/85/85 83/83/83
f 85/85/85 84/84/84 86/86/86
f 87/87/87 88/88/88 89/89/89
f 88/88/88 87/87/87 90/90/90
f 90/90/90 91/91/91 88/88/88
f 91/91/91 90/90/90 92/92/92
f 92/92/92 93/93/93 91/91/91
f 93/93/93 92/92/92 94/94/94
f 94/94/94 95/95/95 93/93/93
f 95/95/95 94/94/94 96/96/96
f 96/96/96 97/97/97 95/95/95
f 97/97/97 96/96/96 98/98/98
f 92/92/92 99/99/99 94/94/94
f 99/99/99 92/92/92 100/100/100
f 101/101/101 100/100/100 92/92/92
f 102/102/102 94/94/94 99/99/99
f 94/94/94 102/102/102 103/103/103
f 100/100/100 101/101/101 104/104/104
f 105/105/105 104/104/104 101/101/101
f 104/104/104 105/105/105 106/106/106
f 107/107/107 104/104/104 106/106/106
f 108/108/108 100/100/100 104/104/104
f 104/104/104 107/107/107 108/108/108
f 109/109/109 99/99/99 100/100/100
f 100/100/100 108/108/108 109/109/109
f 107/107/107 110/110/110 108/108/108
f 110/110/110 107/107/107 111/111/111
f 112/112/112 108/108/108 110/110/110
f 108/108/108 112/112/112 109/109/109
f 99/99/99 109/109/109 113/113/113
f 113/113/113 102/102/102 99/99/99
f 114/114/114 103/103/103 102/102/102
f 103/103/103 114/114/114 115/115/115
f 116/116/116 114/114/114 102/102/102
f 102/102/102 113/113/113 116/116/116
f 114/114/114 116/116/116 117/117/117
f 116/116/116 118/118/118 117/117/117
f 118/118/118 116/116/116 119/119/119
f 113/113/113 119/119/119 116/116/116
f 119/119/119 113/113/113 120/120/120
f 109/109/109 120/120/120 113/113/113
f 120/120/120 109/109/109 112/112/112
f 121/121/121 120/120/120 112/112/112
f 112/112/112 122/122/122 121/121/121
f 122/122/122 112/112/112 123/123/123
f 123/123/123 124/124/124 122/122/122
f 124/124/124 123/123/123 125/125/125
f 125/125/125 126/126/126 124/124/124
f 126/126/126 127/127/127 124/124/124
f 126/126/126 125/125/125 128/128/128
f 128/128/128 125/125/125 129/129/129
f 130/130/130 128/128/128 129/129/129
f 131/131/131 127/127/127 126/126/126
f 128/128/128 131/131/131 126/126/126
f 127/127/127 131/131/131 132/132/132
f 133/133/133 132/132/132 131/131/131
f 128/128/128 130/130/130 134/134/134
f 131/131/131 128/128/128 134/134/134
f 134/134/134 133/133/133 131/131/131
f 130/130/130 135/135/135 134/134/134
f 133/133/133 134/134/134 135/135/135
f 120/120/120 121/121/121 136/136/136
f 136/136/136 137/137/137 120/120/120
f 137/137/137 136/136/136 138/138/138
f 138/138/138 139/139/139 137/137/137
f 139/139/139 138/138/138 140/140/140
f 140/140/140 141/141/141 139/139/139
f 139/139/139 141/141/141 142/142/142
f 141/141/141 140/140/140 143/143/143
f 140/140/140 144/144/144 143/143/143
f 145/145/145 143/143/143 144/144/144
f 146/146/146 142/142/142 141/141/141
f 143/143/143 146/146/146 141/141/141
f 142/142/142 146/146/146 147/147/147
f 147/147/147 146/146/146 148/148/148
f 143/143/143 145/145/145 149/149/149
f 146/146/146 143/143/143 149/149/149
f 149/149/149 148/148/148 146/146/146
f 149/149/149 145/145/145 150/150/150
f 148/148/148 149/149/149 150/150/150
f 121/121/121 151/151/151 136/136/136
f 151/151/151 121/121/121 152/152/152
f 153/153/153 152/152/152 121/121/121
f 154/154/154 136/136/136 151/151/151
f 136/136/136 154/154/154 155/155/155
f 156/156/156 155/155/155 154/154/154
f 155/155/155 156/156/156 157/157/157
f 154/154/154 158/158/158 156/156/156
f 158/158/158 154/154/154 159/159/159
f 151/151/151 159/159/159 154/154/154
f 159/159/159 160/160/160 158/158/158
f 160/160/160 159/159/159 161/161/161
f 159/159/159 151/151/151 162/162/162
f 162/162/162 161/161/161 159/159/159
f 152/152/152 162/162/162 151/151/151
f 161/161/161 162/162/162 163/163/163
f 164/164/164 163/163/163 162/162/162
f 162/162/162 152/152/152 164/164/164
f 163/163/163 164/164/164 165/165/165
f 166/166/166 164/164/164 152/152/152
f 152/152/152 153/153/153 166/166/166
f 167/167/167 166/166/166 153/153/153
f 166/166/166 167/167/167 168/168/168
f 169/169/169 165/165/165 164/164/164
f 164/164/164 166/166/166 169/169/169
f 168/168/168 169/169/169 166/166/166
f 165/165/165 169/169/169 170/170/170
f 169/169/169 168/168/168 171/171/171
f 171/171/171 170/170/170 169/169/169
f 170/170/170 171/171/171 172/172/172
